<?xml version="1.0" encoding="UTF-8"?>
<svg id="Layer_2" data-name="Layer 2" xmlns="http://www.w3.org/2000/svg" viewBox="0 0 642.78 642.78">
  <defs>
    <style>
      .cls-1, .cls-2, .cls-3, .cls-4, .cls-5, .cls-6 {
        stroke-width: 0px;
      }

      .cls-7 {
        fill: none;
        stroke: #fff;
        stroke-width: 60px;
      }

      .cls-2 {
        fill: #b3b3b3;
      }

      .cls-3 {
        fill: #cf4848;
      }

      .cls-4 {
        fill: #b33e3e;
      }

      .cls-5 {
        fill: #361313;
      }

      .cls-6 {
        fill: #d44a4a;
      }
    </style>
  </defs>
  <g id="Clock">
    <g id="clock_button_click">
      <g>
        <g>
          <g>
            <g>
              <path class="cls-6" d="m321.39,630.78c-82.64,0-160.34-32.18-218.77-90.62C44.18,481.73,12,404.03,12,321.39S44.18,161.05,102.62,102.62C161.05,44.18,238.75,12,321.39,12s160.34,32.18,218.77,90.62c58.44,58.44,90.62,136.13,90.62,218.77s-32.18,160.34-90.62,218.77c-58.44,58.44-136.13,90.62-218.77,90.62Z"/>
              <path class="cls-1" d="m321.39,24c164.24,0,297.39,133.15,297.39,297.39s-133.15,297.39-297.39,297.39S24,485.64,24,321.39,157.15,24,321.39,24m0-24c-43.38,0-85.47,8.5-125.11,25.27-38.27,16.19-72.64,39.36-102.15,68.87-29.51,29.51-52.68,63.88-68.87,102.15C8.5,235.92,0,278.01,0,321.39s8.5,85.47,25.27,125.11c16.19,38.27,39.36,72.64,68.87,102.15,29.51,29.51,63.88,52.68,102.15,68.87,39.64,16.77,81.73,25.27,125.11,25.27s85.47-8.5,125.11-25.27c38.27-16.19,72.64-39.36,102.15-68.87,29.51-29.51,52.68-63.88,68.87-102.15,16.77-39.64,25.27-81.73,25.27-125.11s-8.5-85.47-25.27-125.11c-16.19-38.27-39.36-72.64-68.87-102.15-29.51-29.51-63.88-52.68-102.15-68.87C406.86,8.5,364.77,0,321.39,0h0Z"/>
            </g>
            <path class="cls-1" d="m321.39,24c164.24,0,297.39,133.15,297.39,297.39s-133.15,297.39-297.39,297.39S24,485.64,24,321.39,157.15,24,321.39,24m0-24c-43.38,0-85.47,8.5-125.11,25.27-38.27,16.19-72.64,39.36-102.15,68.87-29.51,29.51-52.68,63.88-68.87,102.15C8.5,235.92,0,278.01,0,321.39s8.5,85.47,25.27,125.11c16.19,38.27,39.36,72.64,68.87,102.15,29.51,29.51,63.88,52.68,102.15,68.87,39.64,16.77,81.73,25.27,125.11,25.27s85.47-8.5,125.11-25.27c38.27-16.19,72.64-39.36,102.15-68.87,29.51-29.51,52.68-63.88,68.87-102.15,16.77-39.64,25.27-81.73,25.27-125.11s-8.5-85.47-25.27-125.11c-16.19-38.27-39.36-72.64-68.87-102.15-29.51-29.51-63.88-52.68-102.15-68.87C406.86,8.5,364.77,0,321.39,0h0Z"/>
          </g>
          <path class="cls-2" d="m321.39,43c37.59,0,74.05,7.36,108.36,21.87,33.15,14.02,62.92,34.1,88.5,59.67,25.57,25.57,45.65,55.35,59.67,88.5,14.51,34.31,21.87,70.77,21.87,108.36s-7.36,74.05-21.87,108.36c-14.02,33.15-34.1,62.92-59.67,88.5-25.57,25.57-55.35,45.65-88.5,59.67-34.31,14.51-70.77,21.87-108.36,21.87s-74.05-7.36-108.36-21.87c-33.15-14.02-62.92-34.1-88.5-59.67-25.57-25.57-45.65-55.35-59.67-88.5-14.51-34.31-21.87-70.77-21.87-108.36s7.36-74.05,21.87-108.36c14.02-33.15,34.1-62.92,59.67-88.5,25.57-25.57,55.35-45.65,88.5-59.67,34.31-14.51,70.77-21.87,108.36-21.87m0-19C157.15,24,24,157.15,24,321.39s133.15,297.39,297.39,297.39,297.39-133.15,297.39-297.39S485.64,24,321.39,24h0Z"/>
        </g>
        <g>
          <g>
            <g>
              <path class="cls-7" d="m321.39,630.78c-82.64,0-160.34-32.18-218.77-90.62C44.18,481.73,12,404.03,12,321.39S44.18,161.05,102.62,102.62C161.05,44.18,238.75,12,321.39,12s160.34,32.18,218.77,90.62c58.44,58.44,90.62,136.13,90.62,218.77s-32.18,160.34-90.62,218.77c-58.44,58.44-136.13,90.62-218.77,90.62Z"/>
              <path class="cls-7" d="m321.39,24c164.24,0,297.39,133.15,297.39,297.39s-133.15,297.39-297.39,297.39S24,485.64,24,321.39,157.15,24,321.39,24m0-24c-43.38,0-85.47,8.5-125.11,25.27-38.27,16.19-72.64,39.36-102.15,68.87-29.51,29.51-52.68,63.88-68.87,102.15C8.5,235.92,0,278.01,0,321.39s8.5,85.47,25.27,125.11c16.19,38.27,39.36,72.64,68.87,102.15,29.51,29.51,63.88,52.68,102.15,68.87,39.64,16.77,81.73,25.27,125.11,25.27s85.47-8.5,125.11-25.27c38.27-16.19,72.64-39.36,102.15-68.87,29.51-29.51,52.68-63.88,68.87-102.15,16.77-39.64,25.27-81.73,25.27-125.11s-8.5-85.47-25.27-125.11c-16.19-38.27-39.36-72.64-68.87-102.15-29.51-29.51-63.88-52.68-102.15-68.87C406.86,8.5,364.77,0,321.39,0h0Z"/>
            </g>
            <path class="cls-7" d="m321.39,24c164.24,0,297.39,133.15,297.39,297.39s-133.15,297.39-297.39,297.39S24,485.64,24,321.39,157.15,24,321.39,24m0-24c-43.38,0-85.47,8.5-125.11,25.27-38.27,16.19-72.64,39.36-102.15,68.87-29.51,29.51-52.68,63.88-68.87,102.15C8.5,235.92,0,278.01,0,321.39s8.5,85.47,25.27,125.11c16.19,38.27,39.36,72.64,68.87,102.15,29.51,29.51,63.88,52.68,102.15,68.87,39.64,16.77,81.73,25.27,125.11,25.27s85.47-8.5,125.11-25.27c38.27-16.19,72.64-39.36,102.15-68.87,29.51-29.51,52.68-63.88,68.87-102.15,16.77-39.64,25.27-81.73,25.27-125.11s-8.5-85.47-25.27-125.11c-16.19-38.27-39.36-72.64-68.87-102.15-29.51-29.51-63.88-52.68-102.15-68.87C406.86,8.5,364.77,0,321.39,0h0Z"/>
          </g>
          <path class="cls-7" d="m321.39,43c37.59,0,74.05,7.36,108.36,21.87,33.15,14.02,62.92,34.1,88.5,59.67,25.57,25.57,45.65,55.35,59.67,88.5,14.51,34.31,21.87,70.77,21.87,108.36s-7.36,74.05-21.87,108.36c-14.02,33.15-34.1,62.92-59.67,88.5-25.57,25.57-55.35,45.65-88.5,59.67-34.31,14.51-70.77,21.87-108.36,21.87s-74.05-7.36-108.36-21.87c-33.15-14.02-62.92-34.1-88.5-59.67-25.57-25.57-45.65-55.35-59.67-88.5-14.51-34.31-21.87-70.77-21.87-108.36s7.36-74.05,21.87-108.36c14.02-33.15,34.1-62.92,59.67-88.5,25.57-25.57,55.35-45.65,88.5-59.67,34.31-14.51,70.77-21.87,108.36-21.87m0-19C157.15,24,24,157.15,24,321.39s133.15,297.39,297.39,297.39,297.39-133.15,297.39-297.39S485.64,24,321.39,24h0Z"/>
        </g>
      </g>
      <g>
        <g>
          <path class="cls-6" d="m321.39,630.78c-82.64,0-160.34-32.18-218.77-90.62C44.18,481.73,12,404.03,12,321.39S44.18,161.05,102.62,102.62C161.05,44.18,238.75,12,321.39,12s160.34,32.18,218.77,90.62c58.44,58.44,90.62,136.13,90.62,218.77s-32.18,160.34-90.62,218.77c-58.44,58.44-136.13,90.62-218.77,90.62Z"/>
          <path class="cls-1" d="m321.39,24c164.24,0,297.39,133.15,297.39,297.39s-133.15,297.39-297.39,297.39S24,485.64,24,321.39,157.15,24,321.39,24m0-24c-43.38,0-85.47,8.5-125.11,25.27-38.27,16.19-72.64,39.36-102.15,68.87-29.51,29.51-52.68,63.88-68.87,102.15C8.5,235.92,0,278.01,0,321.39s8.5,85.47,25.27,125.11c16.19,38.27,39.36,72.64,68.87,102.15,29.51,29.51,63.88,52.68,102.15,68.87,39.64,16.77,81.73,25.27,125.11,25.27s85.47-8.5,125.11-25.27c38.27-16.19,72.64-39.36,102.15-68.87,29.51-29.51,52.68-63.88,68.87-102.15,16.77-39.64,25.27-81.73,25.27-125.11s-8.5-85.47-25.27-125.11c-16.19-38.27-39.36-72.64-68.87-102.15-29.51-29.51-63.88-52.68-102.15-68.87C406.86,8.5,364.77,0,321.39,0h0Z"/>
        </g>
        <path class="cls-1" d="m321.39,24c164.24,0,297.39,133.15,297.39,297.39s-133.15,297.39-297.39,297.39S24,485.64,24,321.39,157.15,24,321.39,24m0-24c-43.38,0-85.47,8.5-125.11,25.27-38.27,16.19-72.64,39.36-102.15,68.87-29.51,29.51-52.68,63.88-68.87,102.15C8.5,235.92,0,278.01,0,321.39s8.5,85.47,25.27,125.11c16.19,38.27,39.36,72.64,68.87,102.15,29.51,29.51,63.88,52.68,102.15,68.87,39.64,16.77,81.73,25.27,125.11,25.27s85.47-8.5,125.11-25.27c38.27-16.19,72.64-39.36,102.15-68.87,29.51-29.51,52.68-63.88,68.87-102.15,16.77-39.64,25.27-81.73,25.27-125.11s-8.5-85.47-25.27-125.11c-16.19-38.27-39.36-72.64-68.87-102.15-29.51-29.51-63.88-52.68-102.15-68.87C406.86,8.5,364.77,0,321.39,0h0Z"/>
      </g>
      <g>
        <circle class="cls-6" cx="321.39" cy="321.39" r="297.39"/>
        <path class="cls-4" d="m321.39,96c60.2,0,116.8,23.44,159.38,66.02s66.02,99.17,66.02,159.38-23.44,116.8-66.02,159.38-99.17,66.02-159.38,66.02-116.8-23.44-159.38-66.02-66.02-99.17-66.02-159.38,23.44-116.8,66.02-159.38,99.17-66.02,159.38-66.02m0-72C157.15,24,24,157.15,24,321.39s133.15,297.39,297.39,297.39,297.39-133.15,297.39-297.39S485.64,24,321.39,24h0Z"/>
      </g>
      <g>
        <path class="cls-3" d="m159.74,336.19v-61.71c0-3.45,2.8-6.25,6.25-6.25h32.65c3.45,0,6.25,2.8,6.25,6.25v.05c0,3.45-2.8,6.25-6.25,6.25h-20.4c-3.45,0-6.25,2.8-6.25,6.25v3.95c0,3.45,2.8,6.25,6.25,6.25h18.07c3.45,0,6.25,2.8,6.25,6.25h0c0,3.45-2.8,6.25-6.25,6.25h-18.07c-3.45,0-6.25,2.8-6.25,6.25v7.64c0,3.45,2.8,6.25,6.25,6.25h21.51c3.45,0,6.25,2.8,6.25,6.25v.05c0,3.45-2.8,6.25-6.25,6.25h-33.76c-3.45,0-6.25-2.8-6.25-6.25Z"/>
        <path class="cls-5" d="m219.78,317.48h0c2.93-.35,5.7,1.42,6.62,4.22,2.04,6.24,6.09,9.36,12.17,9.36,5.53,0,9.3-2.15,11.31-6.46.22-.47.37-.98.45-1.49.42-2.66.11-4.82-.93-6.48-.74-1.18-1.87-2.15-3.39-2.91s-5.2-2.03-11.04-3.82c-5.23-1.58-9.06-3.3-11.49-5.16-2.43-1.85-4.36-4.29-5.8-7.31-1.43-3.02-2.15-6.26-2.15-9.74,0-4.05.92-7.69,2.76-10.93,1.84-3.24,4.38-5.68,7.62-7.33s7.24-2.48,12-2.48c7.15,0,12.74,1.94,16.76,5.82,2.49,2.41,4.25,5.45,5.29,9.15s-1.7,7.66-5.66,7.87l-.38.02c-2.79.15-5.26-1.61-6.22-4.23-.61-1.67-1.43-2.95-2.44-3.85-1.79-1.59-4.34-2.38-7.64-2.38s-5.86.69-7.64,2.07c-1.79,1.38-2.68,3.09-2.68,5.15s.81,3.72,2.44,5.1c1.62,1.38,5.35,2.9,11.19,4.55,6.17,1.79,10.64,3.67,13.38,5.65,2.75,1.97,4.85,4.52,6.3,7.64,1.45,3.12,2.18,6.91,2.18,11.36,0,6.45-1.98,11.86-5.95,16.25-3.97,4.39-10.17,6.58-18.6,6.58-12.73,0-20.64-6.18-23.74-18.54-.91-3.63,1.59-7.24,5.31-7.68Z"/>
        <path class="cls-5" d="m286.8,336.32v-49.41c0-3.38-2.74-6.13-6.13-6.13h-5.82c-3.38,0-6.13-2.74-6.13-6.13v-.3c0-3.38,2.74-6.13,6.13-6.13h36.09c3.38,0,6.13,2.74,6.13,6.13v.3c0,3.38-2.74,6.13-6.13,6.13h-5.77c-3.38,0-6.13,2.74-6.13,6.13v49.41c0,3.38-2.74,6.13-6.13,6.13h0c-3.38,0-6.13-2.74-6.13-6.13Z"/>
        <path class="cls-5" d="m321.07,305.79c0-8.84,1.31-16.12,3.92-21.84,2.61-5.72,6.03-9.98,10.25-12.78,4.22-2.8,9.33-4.2,15.34-4.2,8.71,0,15.8,3.32,21.29,9.97,5.48,6.65,8.23,16.11,8.23,28.4s-2.9,22.12-8.71,29.11c-5.1,6.18-12.01,9.26-20.75,9.26s-15.76-3.05-20.86-9.16c-5.8-6.99-8.71-16.57-8.71-28.75Zm12.66-.51c0,8.54,1.62,14.94,4.87,19.21,3.24,4.27,7.27,6.4,12.07,6.4s8.84-2.12,12.02-6.35,4.77-10.74,4.77-19.51-1.55-14.97-4.64-19.08c-3.09-4.12-7.14-6.18-12.14-6.18s-9.07,2.08-12.22,6.23c-3.14,4.15-4.71,10.58-4.71,19.29Z"/>
        <path class="cls-5" d="m389.71,336.46v-62.24c0-3.31,2.68-5.99,5.99-5.99h13.75c7.36,0,12.17.35,14.43,1.06,3.61,1.15,6.59,3.59,8.93,7.34s3.52,8.57,3.52,14.48c0,5.37-1.01,9.86-3.04,13.49-2.02,3.63-4.56,6.18-7.59,7.64s-8.27,2.2-15.69,2.2h-2.06c-3.31,0-5.99,2.68-5.99,5.99v16.02c0,3.31-2.68,5.99-5.99,5.99h-.28c-3.31,0-5.99-2.68-5.99-5.99Zm12.25-49.68v9.13c0,3.31,2.68,5.99,5.99,5.99h.81c4.57,0,7.67-.32,9.31-.96,1.64-.64,2.99-1.8,4.03-3.47,1.05-1.67,1.57-3.73,1.57-6.17s-.54-4.55-1.62-6.24c-1.08-1.69-2.42-2.82-4.01-3.4-1.59-.58-4.96-.86-10.1-.86h0c-3.31,0-5.99,2.68-5.99,5.99Z"/>
        <path class="cls-3" d="m486.57,342.44h-.26c-2.69,0-5.08-1.74-5.89-4.31l-2.59-8.18c-.81-2.57-3.2-4.31-5.89-4.31h-15.24c-2.73,0-5.14,1.79-5.92,4.41l-2.39,7.99c-.78,2.62-3.19,4.41-5.92,4.41h0c-4.18,0-7.16-4.07-5.89-8.06l19.75-61.85c.82-2.56,3.2-4.3,5.89-4.3h4.03c2.67,0,5.04,1.71,5.87,4.25l20.33,61.85c1.31,4-1.66,8.11-5.87,8.11Zm-16.5-37.34h0c-1.79-5.85-10.08-5.83-11.83.03h0c-1.19,3.96,1.78,7.95,5.92,7.95h0c4.15,0,7.12-4.01,5.91-7.98Z"/>
      </g>
    </g>
  </g>
</svg>