<?xml version="1.0" encoding="UTF-8"?>
<svg id="Layer_2" data-name="Layer 2" xmlns="http://www.w3.org/2000/svg" viewBox="0 0 394.7 235.48">
  <defs>
    <style>
      .cls-1 {
        fill: #999;
      }

      .cls-1, .cls-2, .cls-3 {
        stroke-width: 0px;
      }

      .cls-2 {
        fill: #666;
      }

      .cls-3 {
        fill: #828282;
      }
    </style>
  </defs>
  <g id="Clock">
    <g id="clock_timer">
      <g>
        <rect id="clock_timer-2" data-name="clock_timer" class="cls-1" x="16" y="16" width="362.7" height="203.48" rx="27" ry="27"/>
        <path id="clock_timer-3" data-name="clock_timer" class="cls-2" d="m351.7,16c14.91,0,27,12.09,27,27v149.48c0,14.91-12.09,27-27,27H43c-14.91,0-27-12.09-27-27V43c0-14.91,12.09-27,27-27h308.7m0-16H43C19.29,0,0,19.29,0,43v149.48c0,23.71,19.29,43,43,43h308.7c23.71,0,43-19.29,43-43V43c0-23.71-19.29-43-43-43h0Z"/>
      </g>
      <path class="cls-3" d="m30.75,216.48c-1.84-3.65-2.88-7.76-2.88-12.12V54.88c0-14.91,12.09-27,27-27h308.7c4.36,0,8.48,1.04,12.12,2.88-4.44-8.82-13.57-14.88-24.12-14.88H42.88c-14.91,0-27,12.09-27,27v149.48c0,10.55,6.06,19.68,14.88,24.12Z"/>
    </g>
  </g>
</svg>