<?xml version="1.0" encoding="UTF-8"?>
<svg id="Layer_2" data-name="Layer 2" xmlns="http://www.w3.org/2000/svg" viewBox="0 0 699.78 699.78">
  <defs>
    <style>
      .cls-1, .cls-2, .cls-3, .cls-4, .cls-5 {
        stroke-width: 0px;
      }

      .cls-2 {
        fill: #fff;
      }

      .cls-3 {
        fill: #cf4848;
      }

      .cls-4 {
        fill: #b33e3e;
      }

      .cls-5 {
        fill: #d44a4a;
      }
    </style>
  </defs>
  <g id="Counter">
    <g id="counter_button_idle">
      <g>
        <g>
          <path class="cls-1" d="m349.89,52.5c164.24,0,297.39,133.15,297.39,297.39s-133.15,297.39-297.39,297.39S52.5,514.14,52.5,349.89,185.65,52.5,349.89,52.5m0-24c-43.38,0-85.47,8.5-125.11,25.27-38.27,16.19-72.64,39.36-102.15,68.87-29.51,29.51-52.68,63.88-68.87,102.15-16.77,39.64-25.27,81.73-25.27,125.11s8.5,85.47,25.27,125.11c16.19,38.27,39.36,72.64,68.87,102.15,29.51,29.51,63.88,52.68,102.15,68.87,39.64,16.77,81.73,25.27,125.11,25.27s85.47-8.5,125.11-25.27c38.27-16.19,72.64-39.36,102.15-68.87,29.51-29.51,52.68-63.88,68.87-102.15,16.77-39.64,25.27-81.73,25.27-125.11s-8.5-85.47-25.27-125.11c-16.19-38.27-39.36-72.64-68.87-102.15-29.51-29.51-63.88-52.68-102.15-68.87-39.64-16.77-81.73-25.27-125.11-25.27h0Z"/>
          <path class="cls-2" d="m349.89,699.78c-47.21,0-93.04-9.26-136.21-27.52-41.67-17.63-79.09-42.85-111.2-74.96-32.12-32.12-57.34-69.53-74.96-111.2C9.26,442.93,0,397.1,0,349.89s9.26-93.04,27.52-136.21c17.62-41.67,42.85-79.08,74.96-111.2,32.12-32.12,69.53-57.34,111.2-74.96C256.85,9.26,302.68,0,349.89,0s93.04,9.26,136.21,27.52c41.67,17.63,79.08,42.85,111.2,74.96s57.34,69.53,74.96,111.2c18.26,43.17,27.52,89,27.52,136.21s-9.26,93.04-27.52,136.21c-17.63,41.67-42.85,79.08-74.96,111.2-32.12,32.12-69.53,57.34-111.2,74.96-43.17,18.26-89,27.52-136.21,27.52Zm0-618.78c-148.27,0-268.89,120.62-268.89,268.89s120.62,268.89,268.89,268.89,268.89-120.62,268.89-268.89S498.16,81,349.89,81Z"/>
        </g>
        <g>
          <g>
            <circle class="cls-5" cx="349.89" cy="349.89" r="297.39"/>
            <path class="cls-1" d="m349.89,52.5c164.24,0,297.39,133.15,297.39,297.39s-133.15,297.39-297.39,297.39S52.5,514.14,52.5,349.89,185.65,52.5,349.89,52.5m0-24c-43.38,0-85.47,8.5-125.11,25.27-38.27,16.19-72.64,39.36-102.15,68.87-29.51,29.51-52.68,63.88-68.87,102.15-16.77,39.64-25.27,81.73-25.27,125.11s8.5,85.47,25.27,125.11c16.19,38.27,39.36,72.64,68.87,102.15,29.51,29.51,63.88,52.68,102.15,68.87,39.64,16.77,81.73,25.27,125.11,25.27s85.47-8.5,125.11-25.27c38.27-16.19,72.64-39.36,102.15-68.87,29.51-29.51,52.68-63.88,68.87-102.15,16.77-39.64,25.27-81.73,25.27-125.11s-8.5-85.47-25.27-125.11c-16.19-38.27-39.36-72.64-68.87-102.15-29.51-29.51-63.88-52.68-102.15-68.87-39.64-16.77-81.73-25.27-125.11-25.27h0Z"/>
          </g>
          <path class="cls-1" d="m349.89,52.5c164.24,0,297.39,133.15,297.39,297.39s-133.15,297.39-297.39,297.39S52.5,514.14,52.5,349.89,185.65,52.5,349.89,52.5m0-24c-43.38,0-85.47,8.5-125.11,25.27-38.27,16.19-72.64,39.36-102.15,68.87-29.51,29.51-52.68,63.88-68.87,102.15-16.77,39.64-25.27,81.73-25.27,125.11s8.5,85.47,25.27,125.11c16.19,38.27,39.36,72.64,68.87,102.15,29.51,29.51,63.88,52.68,102.15,68.87,39.64,16.77,81.73,25.27,125.11,25.27s85.47-8.5,125.11-25.27c38.27-16.19,72.64-39.36,102.15-68.87,29.51-29.51,52.68-63.88,68.87-102.15,16.77-39.64,25.27-81.73,25.27-125.11s-8.5-85.47-25.27-125.11c-16.19-38.27-39.36-72.64-68.87-102.15-29.51-29.51-63.88-52.68-102.15-68.87-39.64-16.77-81.73-25.27-125.11-25.27h0Z"/>
        </g>
        <path class="cls-4" d="m349.89,71.5c37.59,0,74.05,7.36,108.36,21.87,33.15,14.02,62.92,34.1,88.5,59.67,25.57,25.57,45.65,55.35,59.67,88.5,14.51,34.31,21.87,70.77,21.87,108.36s-7.36,74.05-21.87,108.36c-14.02,33.15-34.1,62.92-59.67,88.5-25.57,25.57-55.35,45.65-88.5,59.67-34.31,14.51-70.77,21.87-108.36,21.87s-74.05-7.36-108.36-21.87c-33.15-14.02-62.92-34.1-88.5-59.67-25.57-25.57-45.65-55.35-59.67-88.5-14.51-34.31-21.87-70.77-21.87-108.36s7.36-74.05,21.87-108.36c14.02-33.15,34.1-62.92,59.67-88.5,25.57-25.57,55.35-45.65,88.5-59.67,34.31-14.51,70.77-21.87,108.36-21.87m0-19c-164.24,0-297.39,133.15-297.39,297.39s133.15,297.39,297.39,297.39,297.39-133.15,297.39-297.39S514.14,52.5,349.89,52.5h0Z"/>
      </g>
      <g id="Layer_34" data-name="Layer 34">
        <g>
          <path class="cls-3" d="m123.35,376.72v-85.76c0-4.8,3.89-8.69,8.69-8.69h45.38c4.8,0,8.69,3.89,8.69,8.69v.07c0,4.8-3.89,8.69-8.69,8.69h-28.35c-4.8,0-8.69,3.89-8.69,8.69v5.49c0,4.8,3.89,8.69,8.69,8.69h25.11c4.8,0,8.69,3.89,8.69,8.69h0c0,4.8-3.89,8.69-8.69,8.69h-25.11c-4.8,0-8.69,3.89-8.69,8.69v10.62c0,4.8,3.89,8.69,8.69,8.69h29.9c4.8,0,8.69,3.89,8.69,8.69v.07c0,4.8-3.89,8.69-8.69,8.69h-46.92c-4.8,0-8.69-3.89-8.69-8.69Z"/>
          <path class="cls-1" d="m206.78,350.72h0c4.07-.48,7.92,1.97,9.19,5.86,2.83,8.67,8.47,13,16.91,13,7.69,0,12.93-2.99,15.72-8.97.3-.65.51-1.36.63-2.07.59-3.69.16-6.69-1.29-9-1.03-1.64-2.6-2.99-4.71-4.04s-7.22-2.82-15.34-5.31c-7.27-2.2-12.59-4.59-15.97-7.17-3.38-2.58-6.06-5.96-8.05-10.16-1.99-4.2-2.99-8.71-2.99-13.53,0-5.62,1.28-10.68,3.83-15.18,2.56-4.5,6.09-7.89,10.59-10.19,4.5-2.3,10.06-3.45,16.67-3.45,9.94,0,17.7,2.7,23.29,8.09,3.46,3.34,5.91,7.58,7.35,12.71s-2.36,10.64-7.87,10.94l-.53.03c-3.87.21-7.3-2.23-8.64-5.88-.85-2.32-1.98-4.1-3.39-5.35-2.49-2.2-6.03-3.31-10.62-3.31s-8.14.96-10.62,2.88c-2.49,1.92-3.73,4.3-3.73,7.15s1.13,5.17,3.38,7.08c2.26,1.92,7.44,4.03,15.55,6.32,8.58,2.49,14.78,5.1,18.6,7.85,3.82,2.74,6.74,6.28,8.75,10.62,2.02,4.34,3.02,9.6,3.02,15.79,0,8.96-2.76,16.48-8.27,22.58-5.51,6.1-14.13,9.14-25.85,9.14-17.69,0-28.69-8.59-32.99-25.77-1.26-5.05,2.21-10.07,7.38-10.68Z"/>
          <path class="cls-1" d="m299.93,376.89v-68.66c0-4.7-3.81-8.51-8.51-8.51h-8.09c-4.7,0-8.51-3.81-8.51-8.51v-.42c0-4.7,3.81-8.51,8.51-8.51h50.16c4.7,0,8.51,3.81,8.51,8.51v.42c0,4.7-3.81,8.51-8.51,8.51h-8.02c-4.7,0-8.51,3.81-8.51,8.51v68.66c0,4.7-3.81,8.51-8.51,8.51h0c-4.7,0-8.51-3.81-8.51-8.51Z"/>
          <path class="cls-1" d="m347.55,334.47c0-12.29,1.82-22.41,5.45-30.36,3.63-7.95,8.38-13.87,14.25-17.76,5.86-3.89,12.97-5.84,21.32-5.84,12.1,0,21.96,4.62,29.58,13.86,7.62,9.24,11.43,22.39,11.43,39.47s-4.03,30.74-12.1,40.45c-7.08,8.58-16.7,12.87-28.84,12.87s-21.9-4.24-28.98-12.73c-8.07-9.71-12.1-23.03-12.1-39.96Zm17.59-.7c0,11.87,2.25,20.76,6.76,26.7,4.51,5.93,10.1,8.9,16.77,8.9s12.28-2.94,16.7-8.83c4.41-5.89,6.62-14.93,6.62-27.12s-2.15-20.8-6.45-26.52c-4.3-5.72-9.92-8.58-16.87-8.58s-12.61,2.88-16.98,8.65c-4.37,5.77-6.55,14.7-6.55,26.8Z"/>
          <path class="cls-1" d="m442.95,377.08v-86.49c0-4.6,3.73-8.32,8.32-8.32h19.12c10.22,0,16.91.49,20.05,1.48,5.02,1.59,9.16,4.99,12.42,10.2,3.26,5.21,4.89,11.91,4.89,20.12,0,7.46-1.41,13.71-4.22,18.75-2.81,5.04-6.33,8.58-10.55,10.62s-11.49,3.06-21.81,3.06h-2.86c-4.6,0-8.32,3.73-8.32,8.32v22.26c0,4.6-3.73,8.32-8.32,8.32h-.38c-4.6,0-8.32-3.73-8.32-8.32Zm17.02-69.04v12.69c0,4.6,3.73,8.32,8.32,8.32h1.13c6.35,0,10.66-.45,12.94-1.34,2.28-.89,4.15-2.5,5.6-4.83,1.46-2.33,2.19-5.18,2.19-8.57s-.75-6.32-2.26-8.67c-1.5-2.35-3.36-3.92-5.57-4.72-2.21-.8-6.89-1.2-14.03-1.2h0c-4.6,0-8.32,3.73-8.32,8.32Z"/>
          <path class="cls-3" d="m577.55,385.41h-.36c-3.74,0-7.05-2.42-8.19-5.99l-3.61-11.37c-1.13-3.57-4.44-5.99-8.19-5.99h-21.17c-3.79,0-7.14,2.49-8.23,6.12l-3.32,11.11c-1.09,3.63-4.43,6.12-8.23,6.12h0c-5.82,0-9.95-5.66-8.18-11.2l27.45-85.96c1.14-3.56,4.44-5.98,8.18-5.98h5.59c3.71,0,7,2.38,8.16,5.91l28.25,85.96c1.83,5.55-2.31,11.27-8.16,11.27Zm-22.94-51.9h0c-2.48-8.13-14-8.1-16.44.04h0c-1.65,5.51,2.48,11.05,8.23,11.05h0c5.77,0,9.9-5.58,8.21-11.09Z"/>
        </g>
      </g>
    </g>
  </g>
</svg>