<?xml version="1.0" encoding="UTF-8"?>
<svg id="Layer_2" data-name="Layer 2" xmlns="http://www.w3.org/2000/svg" viewBox="0 0 1209.52 1371.65">
  <defs>
    <style>
      .cls-1 {
        fill: #666;
      }

      .cls-1, .cls-2, .cls-3, .cls-4, .cls-5, .cls-6, .cls-7 {
        stroke-width: 0px;
      }

      .cls-8 {
        fill: none;
        stroke: #f2f2f2;
        stroke-width: 100px;
      }

      .cls-3 {
        fill: #b3b3b3;
      }

      .cls-4 {
        fill: #ccc;
      }

      .cls-5 {
        fill: #212121;
      }

      .cls-6 {
        fill: #080808;
      }

      .cls-7 {
        fill: #adadad;
      }
    </style>
  </defs>
  <g id="Clock">
    <g id="clock_chronometer">
      <g>
        <circle class="cls-4" cx="604.76" cy="766.89" r="502.22"/>
        <path class="cls-3" d="m604.76,286.67c64.84,0,127.73,12.69,186.92,37.73,57.18,24.19,108.54,58.81,152.65,102.92,44.11,44.11,78.74,95.47,102.92,152.65,25.04,59.19,37.73,122.08,37.73,186.92s-12.69,127.73-37.73,186.92c-24.19,57.18-58.81,108.54-102.92,152.65-44.11,44.11-95.47,78.74-152.65,102.92-59.19,25.04-122.08,37.73-186.92,37.73s-127.73-12.69-186.92-37.73c-57.18-24.19-108.54-58.81-152.65-102.92-44.11-44.11-78.74-95.47-102.92-152.65-25.04-59.19-37.73-122.08-37.73-186.92s12.69-127.73,37.73-186.92c24.19-57.18,58.81-108.54,102.92-152.65,44.11-44.11,95.47-78.74,152.65-102.92,59.19-25.04,122.08-37.73,186.92-37.73m0-22c-277.37,0-502.22,224.85-502.22,502.22s224.85,502.22,502.22,502.22,502.22-224.85,502.22-502.22-224.85-502.22-502.22-502.22h0Z"/>
      </g>
      <g>
        <g>
          <path class="cls-1" d="m555.85,180.09v-52.59c0-3.96-3.21-7.17-7.17-7.17h-24c-3.96,0-7.17-3.21-7.17-7.17V29.67c0-3.96,3.21-7.17,7.17-7.17h160.17c3.96,0,7.17,3.21,7.17,7.17v83.48c0,3.96-3.21,7.17-7.17,7.17h-24c-3.96,0-7.17,3.21-7.17,7.17v52.59c0,3.69,2.79,6.79,6.47,7.14,295.6,27.89,526.88,276.77,526.88,579.66,0,321.57-260.69,582.26-582.26,582.26S22.5,1088.47,22.5,766.89c0-302.9,231.28-551.77,526.88-579.66,3.67-.35,6.47-3.45,6.47-7.14Z"/>
          <path class="cls-2" d="m604.76,1371.65c-81.63,0-160.83-15.99-235.41-47.53-72.02-30.46-136.69-74.06-192.22-129.6-55.53-55.53-99.14-120.21-129.6-192.22C15.99,927.73,0,848.52,0,766.89c0-151.51,56.29-296.46,158.49-408.15,98.38-107.51,231.04-175.5,374.86-192.44v-23.48h-8.67c-16.36,0-29.67-13.31-29.67-29.67V29.67c0-16.36,13.31-29.67,29.67-29.67h160.17c16.36,0,29.67,13.31,29.67,29.67v83.48c0,16.36-13.31,29.67-29.67,29.67h-8.67v23.48c143.81,16.93,276.47,84.92,374.86,192.44,102.21,111.69,158.49,256.64,158.49,408.15,0,81.63-15.99,160.83-47.53,235.41-30.46,72.02-74.06,136.69-129.6,192.22-55.53,55.53-120.21,99.13-192.22,129.6-74.57,31.54-153.77,47.53-235.41,47.53ZM540,97.83h8.67c16.36,0,29.67,13.31,29.67,29.67v52.59c0,15.39-11.54,28.09-26.85,29.54C262.75,236.87,45,476.44,45,766.89c0,308.65,251.11,559.76,559.76,559.76s559.76-251.11,559.76-559.76c0-290.45-217.75-530.02-506.5-557.26-15.31-1.45-26.85-14.14-26.85-29.54v-52.59c0-16.36,13.31-29.67,29.67-29.67h8.67v-52.83h-129.52v52.83Z"/>
        </g>
        <g>
          <path class="cls-8" d="m555.85,180.09v-52.59c0-3.96-3.21-7.17-7.17-7.17h-24c-3.96,0-7.17-3.21-7.17-7.17V29.67c0-3.96,3.21-7.17,7.17-7.17h160.17c3.96,0,7.17,3.21,7.17,7.17v83.48c0,3.96-3.21,7.17-7.17,7.17h-24c-3.96,0-7.17,3.21-7.17,7.17v52.59c0,3.69,2.79,6.79,6.47,7.14,295.6,27.89,526.88,276.77,526.88,579.66,0,321.57-260.69,582.26-582.26,582.26S22.5,1088.47,22.5,766.89c0-302.9,231.28-551.77,526.88-579.66,3.67-.35,6.47-3.45,6.47-7.14Z"/>
          <path class="cls-8" d="m604.76,1371.65c-81.63,0-160.83-15.99-235.41-47.53-72.02-30.46-136.69-74.06-192.22-129.6-55.53-55.53-99.14-120.21-129.6-192.22C15.99,927.73,0,848.52,0,766.89c0-151.51,56.29-296.46,158.49-408.15,98.38-107.51,231.04-175.5,374.86-192.44v-23.48h-8.67c-16.36,0-29.67-13.31-29.67-29.67V29.67c0-16.36,13.31-29.67,29.67-29.67h160.17c16.36,0,29.67,13.31,29.67,29.67v83.48c0,16.36-13.31,29.67-29.67,29.67h-8.67v23.48c143.81,16.93,276.47,84.92,374.86,192.44,102.21,111.69,158.49,256.64,158.49,408.15,0,81.63-15.99,160.83-47.53,235.41-30.46,72.02-74.06,136.69-129.6,192.22-55.53,55.53-120.21,99.13-192.22,129.6-74.57,31.54-153.77,47.53-235.41,47.53ZM540,97.83h8.67c16.36,0,29.67,13.31,29.67,29.67v52.59c0,15.39-11.54,28.09-26.85,29.54C262.75,236.87,45,476.44,45,766.89c0,308.65,251.11,559.76,559.76,559.76s559.76-251.11,559.76-559.76c0-290.45-217.75-530.02-506.5-557.26-15.31-1.45-26.85-14.14-26.85-29.54v-52.59c0-16.36,13.31-29.67,29.67-29.67h8.67v-52.83h-129.52v52.83Z"/>
        </g>
      </g>
      <g>
        <path class="cls-1" d="m555.85,180.09v-52.59c0-3.96-3.21-7.17-7.17-7.17h-24c-3.96,0-7.17-3.21-7.17-7.17V29.67c0-3.96,3.21-7.17,7.17-7.17h160.17c3.96,0,7.17,3.21,7.17,7.17v83.48c0,3.96-3.21,7.17-7.17,7.17h-24c-3.96,0-7.17,3.21-7.17,7.17v52.59c0,3.69,2.79,6.79,6.47,7.14,295.6,27.89,526.88,276.77,526.88,579.66,0,321.57-260.69,582.26-582.26,582.26S22.5,1088.47,22.5,766.89c0-302.9,231.28-551.77,526.88-579.66,3.67-.35,6.47-3.45,6.47-7.14Z"/>
        <path class="cls-2" d="m604.76,1371.65c-81.63,0-160.83-15.99-235.41-47.53-72.02-30.46-136.69-74.06-192.22-129.6-55.53-55.53-99.14-120.21-129.6-192.22C15.99,927.73,0,848.52,0,766.89c0-151.51,56.29-296.46,158.49-408.15,98.38-107.51,231.04-175.5,374.86-192.44v-23.48h-8.67c-16.36,0-29.67-13.31-29.67-29.67V29.67c0-16.36,13.31-29.67,29.67-29.67h160.17c16.36,0,29.67,13.31,29.67,29.67v83.48c0,16.36-13.31,29.67-29.67,29.67h-8.67v23.48c143.81,16.93,276.47,84.92,374.86,192.44,102.21,111.69,158.49,256.64,158.49,408.15,0,81.63-15.99,160.83-47.53,235.41-30.46,72.02-74.06,136.69-129.6,192.22-55.53,55.53-120.21,99.13-192.22,129.6-74.57,31.54-153.77,47.53-235.41,47.53ZM540,97.83h8.67c16.36,0,29.67,13.31,29.67,29.67v52.59c0,15.39-11.54,28.09-26.85,29.54C262.75,236.87,45,476.44,45,766.89c0,308.65,251.11,559.76,559.76,559.76s559.76-251.11,559.76-559.76c0-290.45-217.75-530.02-506.5-557.26-15.31-1.45-26.85-14.14-26.85-29.54v-52.59c0-16.36,13.31-29.67,29.67-29.67h8.67v-52.83h-129.52v52.83Z"/>
      </g>
      <g>
        <path class="cls-4" d="m1127.72,766.89c0,288.82-234.14,522.96-522.96,522.96S81.8,1055.71,81.8,766.89s210.76-498.83,479.03-521.14c14.48-1.2,29.14-1.82,43.93-1.82,14.8,0,29.45.61,43.93,1.82,268.26,22.31,479.03,247.11,479.03,521.14Z"/>
        <path class="cls-7" d="m103.8,790.89c0-274.03,210.76-498.83,479.03-521.14,14.48-1.2,29.14-1.82,43.93-1.82s29.45.61,43.93,1.82c129.23,10.75,245.11,68.49,330.52,156.08-86.95-100.98-211.82-168.38-352.52-180.08-14.48-1.2-29.14-1.82-43.93-1.82s-29.45.61-43.93,1.82c-268.26,22.31-479.03,247.11-479.03,521.14,0,142.07,56.66,270.91,148.61,365.16-78.9-91.58-126.61-210.8-126.61-341.16Z"/>
      </g>
      <rect class="cls-5" x="398.1" y="468.58" width="411.65" height="46.96" rx="23.48" ry="23.48" transform="translate(113.98 1097.71) rotate(-90.2)"/>
      <path class="cls-6" d="m626.76,309.63c-.03-9.03-5.16-16.85-12.65-20.75,1.68,3.22,2.64,6.87,2.65,10.75l1.28,364.69c.05,12.97-10.43,23.51-23.4,23.56h0c-3.94.01-7.65-.95-10.91-2.65,3.93,7.54,11.82,12.68,20.91,12.65h0c12.97-.05,23.44-10.59,23.4-23.56l-1.28-364.69Z"/>
    </g>
  </g>
</svg>