<?xml version="1.0" encoding="UTF-8"?>
<svg id="Layer_2" data-name="Layer 2" xmlns="http://www.w3.org/2000/svg" viewBox="0 0 1209.52 1371.65">
  <defs>
    <style>
      .cls-1 {
        fill: #999;
      }

      .cls-1, .cls-2, .cls-3, .cls-4, .cls-5, .cls-6, .cls-7, .cls-8, .cls-9, .cls-10 {
        stroke-width: 0px;
      }

      .cls-2 {
        fill: #666;
      }

      .cls-11 {
        fill: none;
        stroke: #f2f2f2;
        stroke-width: 100px;
      }

      .cls-4 {
        fill: #b3b3b3;
      }

      .cls-5 {
        fill: #ccc;
      }

      .cls-6 {
        fill: #828282;
      }

      .cls-7 {
        fill: #212121;
      }

      .cls-8 {
        fill: #4a4a4a;
      }

      .cls-9 {
        fill: #080808;
      }

      .cls-10 {
        fill: #adadad;
      }
    </style>
  </defs>
  <g id="Counter">
    <g id="counter_chronometer">
      <g>
        <circle class="cls-5" cx="604.76" cy="766.89" r="502.22"/>
        <path class="cls-4" d="m604.76,286.67c64.84,0,127.73,12.69,186.92,37.73,57.18,24.19,108.54,58.81,152.65,102.92,44.11,44.11,78.74,95.47,102.92,152.65,25.04,59.19,37.73,122.08,37.73,186.92s-12.69,127.73-37.73,186.92c-24.19,57.18-58.81,108.54-102.92,152.65-44.11,44.11-95.47,78.74-152.65,102.92-59.19,25.04-122.08,37.73-186.92,37.73s-127.73-12.69-186.92-37.73c-57.18-24.19-108.54-58.81-152.65-102.92-44.11-44.11-78.74-95.47-102.92-152.65-25.04-59.19-37.73-122.08-37.73-186.92s12.69-127.73,37.73-186.92c24.19-57.18,58.81-108.54,102.92-152.65,44.11-44.11,95.47-78.74,152.65-102.92,59.19-25.04,122.08-37.73,186.92-37.73m0-22c-277.37,0-502.22,224.85-502.22,502.22s224.85,502.22,502.22,502.22,502.22-224.85,502.22-502.22-224.85-502.22-502.22-502.22h0Z"/>
      </g>
      <g>
        <g>
          <path class="cls-2" d="m555.85,180.09v-52.59c0-3.96-3.21-7.17-7.17-7.17h-24c-3.96,0-7.17-3.21-7.17-7.17V29.67c0-3.96,3.21-7.17,7.17-7.17h160.17c3.96,0,7.17,3.21,7.17,7.17v83.48c0,3.96-3.21,7.17-7.17,7.17h-24c-3.96,0-7.17,3.21-7.17,7.17v52.59c0,3.69,2.79,6.79,6.47,7.14,295.6,27.89,526.88,276.77,526.88,579.66,0,321.57-260.69,582.26-582.26,582.26S22.5,1088.47,22.5,766.89c0-302.9,231.28-551.77,526.88-579.66,3.67-.35,6.47-3.45,6.47-7.14Z"/>
          <path class="cls-3" d="m604.76,1371.65c-81.63,0-160.83-15.99-235.41-47.53-72.02-30.46-136.69-74.06-192.22-129.6-55.53-55.53-99.14-120.21-129.6-192.22C15.99,927.73,0,848.52,0,766.89c0-151.51,56.29-296.46,158.49-408.15,98.38-107.51,231.04-175.5,374.86-192.44v-23.48h-8.67c-16.36,0-29.67-13.31-29.67-29.67V29.67c0-16.36,13.31-29.67,29.67-29.67h160.17c16.36,0,29.67,13.31,29.67,29.67v83.48c0,16.36-13.31,29.67-29.67,29.67h-8.67v23.48c143.81,16.93,276.47,84.92,374.86,192.44,102.21,111.69,158.49,256.64,158.49,408.15,0,81.63-15.99,160.83-47.53,235.41-30.46,72.02-74.06,136.69-129.6,192.22-55.53,55.53-120.21,99.13-192.22,129.6-74.57,31.54-153.77,47.53-235.41,47.53ZM540,97.83h8.67c16.36,0,29.67,13.31,29.67,29.67v52.59c0,15.39-11.54,28.09-26.85,29.54C262.75,236.87,45,476.44,45,766.89c0,308.65,251.11,559.76,559.76,559.76s559.76-251.11,559.76-559.76c0-290.45-217.75-530.02-506.5-557.26-15.31-1.45-26.85-14.14-26.85-29.54v-52.59c0-16.36,13.31-29.67,29.67-29.67h8.67v-52.83h-129.52v52.83Z"/>
        </g>
        <g>
          <path class="cls-11" d="m555.85,180.09v-52.59c0-3.96-3.21-7.17-7.17-7.17h-24c-3.96,0-7.17-3.21-7.17-7.17V29.67c0-3.96,3.21-7.17,7.17-7.17h160.17c3.96,0,7.17,3.21,7.17,7.17v83.48c0,3.96-3.21,7.17-7.17,7.17h-24c-3.96,0-7.17,3.21-7.17,7.17v52.59c0,3.69,2.79,6.79,6.47,7.14,295.6,27.89,526.88,276.77,526.88,579.66,0,321.57-260.69,582.26-582.26,582.26S22.5,1088.47,22.5,766.89c0-302.9,231.28-551.77,526.88-579.66,3.67-.35,6.47-3.45,6.47-7.14Z"/>
          <path class="cls-11" d="m604.76,1371.65c-81.63,0-160.83-15.99-235.41-47.53-72.02-30.46-136.69-74.06-192.22-129.6-55.53-55.53-99.14-120.21-129.6-192.22C15.99,927.73,0,848.52,0,766.89c0-151.51,56.29-296.46,158.49-408.15,98.38-107.51,231.04-175.5,374.86-192.44v-23.48h-8.67c-16.36,0-29.67-13.31-29.67-29.67V29.67c0-16.36,13.31-29.67,29.67-29.67h160.17c16.36,0,29.67,13.31,29.67,29.67v83.48c0,16.36-13.31,29.67-29.67,29.67h-8.67v23.48c143.81,16.93,276.47,84.92,374.86,192.44,102.21,111.69,158.49,256.64,158.49,408.15,0,81.63-15.99,160.83-47.53,235.41-30.46,72.02-74.06,136.69-129.6,192.22-55.53,55.53-120.21,99.13-192.22,129.6-74.57,31.54-153.77,47.53-235.41,47.53ZM540,97.83h8.67c16.36,0,29.67,13.31,29.67,29.67v52.59c0,15.39-11.54,28.09-26.85,29.54C262.75,236.87,45,476.44,45,766.89c0,308.65,251.11,559.76,559.76,559.76s559.76-251.11,559.76-559.76c0-290.45-217.75-530.02-506.5-557.26-15.31-1.45-26.85-14.14-26.85-29.54v-52.59c0-16.36,13.31-29.67,29.67-29.67h8.67v-52.83h-129.52v52.83Z"/>
        </g>
      </g>
      <g>
        <path class="cls-2" d="m555.85,180.09v-52.59c0-3.96-3.21-7.17-7.17-7.17h-24c-3.96,0-7.17-3.21-7.17-7.17V29.67c0-3.96,3.21-7.17,7.17-7.17h160.17c3.96,0,7.17,3.21,7.17,7.17v83.48c0,3.96-3.21,7.17-7.17,7.17h-24c-3.96,0-7.17,3.21-7.17,7.17v52.59c0,3.69,2.79,6.79,6.47,7.14,295.6,27.89,526.88,276.77,526.88,579.66,0,321.57-260.69,582.26-582.26,582.26S22.5,1088.47,22.5,766.89c0-302.9,231.28-551.77,526.88-579.66,3.67-.35,6.47-3.45,6.47-7.14Z"/>
        <path class="cls-3" d="m604.76,1371.65c-81.63,0-160.83-15.99-235.41-47.53-72.02-30.46-136.69-74.06-192.22-129.6-55.53-55.53-99.14-120.21-129.6-192.22C15.99,927.73,0,848.52,0,766.89c0-151.51,56.29-296.46,158.49-408.15,98.38-107.51,231.04-175.5,374.86-192.44v-23.48h-8.67c-16.36,0-29.67-13.31-29.67-29.67V29.67c0-16.36,13.31-29.67,29.67-29.67h160.17c16.36,0,29.67,13.31,29.67,29.67v83.48c0,16.36-13.31,29.67-29.67,29.67h-8.67v23.48c143.81,16.93,276.47,84.92,374.86,192.44,102.21,111.69,158.49,256.64,158.49,408.15,0,81.63-15.99,160.83-47.53,235.41-30.46,72.02-74.06,136.69-129.6,192.22-55.53,55.53-120.21,99.13-192.22,129.6-74.57,31.54-153.77,47.53-235.41,47.53ZM540,97.83h8.67c16.36,0,29.67,13.31,29.67,29.67v52.59c0,15.39-11.54,28.09-26.85,29.54C262.75,236.87,45,476.44,45,766.89c0,308.65,251.11,559.76,559.76,559.76s559.76-251.11,559.76-559.76c0-290.45-217.75-530.02-506.5-557.26-15.31-1.45-26.85-14.14-26.85-29.54v-52.59c0-16.36,13.31-29.67,29.67-29.67h8.67v-52.83h-129.52v52.83Z"/>
      </g>
      <g>
        <path class="cls-5" d="m1127.72,766.89c0,288.82-234.14,522.96-522.96,522.96S81.8,1055.71,81.8,766.89s210.76-498.83,479.03-521.14c14.48-1.2,29.14-1.82,43.93-1.82,14.8,0,29.45.61,43.93,1.82,268.26,22.31,479.03,247.11,479.03,521.14Z"/>
        <path class="cls-10" d="m103.8,790.89c0-274.03,210.76-498.83,479.03-521.14,14.48-1.2,29.14-1.82,43.93-1.82s29.45.61,43.93,1.82c129.23,10.75,245.11,68.49,330.52,156.08-86.95-100.98-211.82-168.38-352.52-180.08-14.48-1.2-29.14-1.82-43.93-1.82s-29.45.61-43.93,1.82c-268.26,22.31-479.03,247.11-479.03,521.14,0,142.07,56.66,270.91,148.61,365.16-78.9-91.58-126.61-210.8-126.61-341.16Z"/>
      </g>
      <rect class="cls-7" x="398.1" y="468.58" width="411.65" height="46.96" rx="23.48" ry="23.48" transform="translate(113.98 1097.71) rotate(-90.2)"/>
      <path class="cls-9" d="m626.76,309.63c-.03-9.03-5.16-16.85-12.65-20.75,1.68,3.22,2.64,6.87,2.65,10.75l1.28,364.69c.05,12.97-10.43,23.51-23.4,23.56h0c-3.94.01-7.65-.95-10.91-2.65,3.93,7.54,11.82,12.68,20.91,12.65h0c12.97-.05,23.44-10.59,23.4-23.56l-1.28-364.69Z"/>
      <g id="clock_stick">
        <rect class="cls-8" x="637.34" y="882.19" width="415.51" height="52.9" rx="25.08" ry="25.08" transform="translate(559.97 -299.05) rotate(29.64)"/>
        <rect class="cls-2" x="636.98" y="880.44" width="411.65" height="46.96" rx="23.48" ry="23.48" transform="translate(557.34 -298.54) rotate(29.64)"/>
        <path class="cls-8" d="m650.95,771.89c0,23.3-18.89,42.19-42.19,42.19s-42.19-18.89-42.19-42.19,17-40.24,38.65-42.04c1.17-.1,2.35-.15,3.54-.15s2.38.05,3.54.15c21.64,1.8,38.65,19.94,38.65,42.04Z"/>
        <path class="cls-2" d="m646.95,766.89c0,23.3-18.89,42.19-42.19,42.19s-42.19-18.89-42.19-42.19,17-40.24,38.65-42.04c1.17-.1,2.35-.15,3.54-.15s2.38.05,3.54.15c21.64,1.8,38.65,19.94,38.65,42.04Z"/>
      </g>
      <g id="clock_timer">
        <g>
          <rect id="clock_timer-2" data-name="clock_timer" class="cls-1" x="423.41" y="960.76" width="362.7" height="203.48" rx="27" ry="27"/>
          <path id="clock_timer-3" data-name="clock_timer" class="cls-2" d="m759.11,960.76c14.91,0,27,12.09,27,27v149.48c0,14.91-12.09,27-27,27h-308.7c-14.91,0-27-12.09-27-27v-149.48c0-14.91,12.09-27,27-27h308.7m0-16h-308.7c-23.71,0-43,19.29-43,43v149.48c0,23.71,19.29,43,43,43h308.7c23.71,0,43-19.29,43-43v-149.48c0-23.71-19.29-43-43-43h0Z"/>
        </g>
        <path class="cls-6" d="m438.17,1161.24c-1.84-3.65-2.88-7.76-2.88-12.12v-149.48c0-14.91,12.09-27,27-27h308.7c4.36,0,8.48,1.04,12.12,2.88-4.44-8.82-13.57-14.88-24.12-14.88h-308.7c-14.91,0-27,12.09-27,27v149.48c0,10.55,6.06,19.68,14.88,24.12Z"/>
      </g>
    </g>
  </g>
</svg>