<?xml version="1.0" encoding="UTF-8"?>
<svg id="Layer_2" data-name="Layer 2" xmlns="http://www.w3.org/2000/svg" viewBox="0 0 487.88 75.84">
  <defs>
    <style>
      .cls-1 {
        fill: #e6e6e6;
      }

      .cls-1, .cls-2 {
        stroke-width: 0px;
      }
    </style>
  </defs>
  <g id="Stack">
    <g id="stack_rectangle">
      <rect id="stack_rectangle-2" data-name="stack_rectangle" class="cls-1" x="8.92" y="8.92" width="470.03" height="57.99" rx="11.43" ry="11.43"/>
      <path id="stack_rectangle-3" data-name="stack_rectangle" class="cls-2" d="m467.53,8.92c6.31,0,11.43,5.12,11.43,11.43v35.13c0,6.31-5.12,11.43-11.43,11.43H20.35c-6.31,0-11.43-5.12-11.43-11.43V20.35c0-6.31,5.12-11.43,11.43-11.43h447.17m0-8.92H20.35C9.13,0,0,9.13,0,20.35v35.13c0,11.22,9.13,20.35,20.35,20.35h447.17c11.22,0,20.35-9.13,20.35-20.35V20.35c0-11.22-9.13-20.35-20.35-20.35h0Z"/>
    </g>
  </g>
</svg>