<?xml version="1.0" encoding="UTF-8"?>
<svg id="Layer_2" data-name="Layer 2" xmlns="http://www.w3.org/2000/svg" viewBox="0 0 1440.87 555.13">
  <defs>
    <style>
      .cls-1 {
        fill: #e6e6e6;
      }

      .cls-1, .cls-2, .cls-3, .cls-4 {
        stroke-width: 0px;
      }

      .cls-3 {
        fill: #fff;
      }

      .cls-4 {
        fill: #f2f2f2;
      }
    </style>
  </defs>
  <g id="Stack">
    <g id="stack_floor">
      <g>
        <path class="cls-4" d="m1416.87,519.91c0,6.2-5.02,11.22-11.22,11.22H35.22c-6.2,0-11.22-5.02-11.22-11.22V35.22c0-6.2,5.02-11.22,11.22-11.22h1370.43c6.2,0,11.22,5.02,11.22,11.22v484.7Z"/>
        <path class="cls-3" d="m1405.65,24c6.2,0,11.22,5.02,11.22,11.22v484.7c0,6.2-5.02,11.22-11.22,11.22H35.22c-6.2,0-11.22-5.02-11.22-11.22V35.22c0-6.2,5.02-11.22,11.22-11.22h1370.43m0-24H35.22C15.8,0,0,15.8,0,35.22v484.7c0,19.42,15.8,35.22,35.22,35.22h1370.43c19.42,0,35.22-15.8,35.22-35.22V35.22c0-19.42-15.8-35.22-35.22-35.22h0Z"/>
      </g>
      <g>
        <path class="cls-1" d="m1416.87,519.91c0,6.2-5.02,11.22-11.22,11.22H35.22c-6.2,0-11.22-5.02-11.22-11.22V35.22c0-6.2,5.02-11.22,11.22-11.22h1370.43c6.2,0,11.22,5.02,11.22,11.22v484.7Z"/>
        <path class="cls-2" d="m1386.87,54v447.13H54V54h1332.87m18.78-30H35.22c-6.2,0-11.22,5.02-11.22,11.22v484.7c0,6.2,5.02,11.22,11.22,11.22h1370.43c6.2,0,11.22-5.02,11.22-11.22V35.22c0-6.2-5.02-11.22-11.22-11.22h0Z"/>
      </g>
    </g>
  </g>
</svg>