<?xml version="1.0" encoding="UTF-8"?>
<svg id="Layer_2" data-name="Layer 2" xmlns="http://www.w3.org/2000/svg" viewBox="0 0 448.89 406.78">
  <defs>
    <style>
      .cls-1, .cls-2 {
        stroke-width: 0px;
      }

      .cls-2 {
        fill: #f2f2f2;
      }
    </style>
  </defs>
  <g id="Stack">
    <g id="stack_bob">
      <g>
        <ellipse class="cls-2" cx="224.45" cy="203.39" rx="198.84" ry="177.78"/>
        <path class="cls-1" d="m224.45,25.61c109.82,0,198.84,79.6,198.84,177.78s-89.02,177.78-198.84,177.78S25.61,301.58,25.61,203.39,114.63,25.61,224.45,25.61m0-25.61c-59.42,0-115.41,20.81-157.67,58.59-20.82,18.62-37.21,40.37-48.69,64.65C6.08,148.61,0,175.57,0,203.39s6.08,54.78,18.09,80.15c11.49,24.28,27.87,46.03,48.69,64.65,42.26,37.78,98.25,58.59,157.67,58.59s115.41-20.81,157.67-58.59c20.82-18.62,37.21-40.37,48.69-64.65,12-25.37,18.09-52.33,18.09-80.15s-6.08-54.78-18.09-80.15c-11.49-24.28-27.87-46.03-48.69-64.65C339.86,20.81,283.87,0,224.45,0h0Z"/>
      </g>
      <path class="cls-1" d="m292.63,100.28c0,8.23,8.69,14.63,18.29,14.63,9.6,0,16.46-4.57,16.46-12.8,0-12.44-8.69-20.12-18.29-20.12-9.6,0-16.46,8.69-16.46,18.29Z"/>
      <path class="cls-1" d="m113.12,109.41c1.4,8.11,11.06,12.94,20.52,11.3,9.46-1.64,15.44-7.31,14.04-15.42-2.12-12.26-12-18.34-21.45-16.71-9.46,1.64-14.74,11.37-13.1,20.83Z"/>
      <path class="cls-1" d="m209.01,126.95c-22.39,0-35.85-10-36.77-10.71-2.41-1.84-2.86-5.29-1.02-7.69,1.84-2.4,5.27-2.86,7.67-1.03,1.37,1.03,32.76,23.71,81.35-9.92,2.49-1.72,5.91-1.1,7.63,1.39,1.73,2.49,1.1,5.91-1.39,7.63-22.58,15.63-42.12,20.33-57.48,20.33Z"/>
    </g>
  </g>
</svg>