<?xml version="1.0" encoding="UTF-8"?>
<svg id="Layer_2" data-name="Layer 2" xmlns="http://www.w3.org/2000/svg" viewBox="0 0 1079.74 753.83">
  <defs>
    <style>
      .cls-1, .cls-2, .cls-3 {
        stroke-width: 0px;
      }

      .cls-2 {
        fill: #ccc;
      }

      .cls-3 {
        fill: #fff;
      }
    </style>
  </defs>
  <g id="Stack">
    <g id="stack_floor">
      <g>
        <path class="cls-3" d="m1058.73,753.83c0-.23,0-.46,0-.7v-492.26c0-132.48-107.39-239.87-239.87-239.87H260.87c-132.48,0-239.87,107.39-239.87,239.87v492.26c0,.23,0,.46,0,.7h1037.72Z"/>
        <path class="cls-1" d="m21.01,753.83c0-.23,0-.46,0-.7v-492.26c0-132.48,107.39-239.87,239.87-239.87h558c132.48,0,239.87,107.39,239.87,239.87v492.26c0,.23,0,.46,0,.7h21c0-.23,0-.46,0-.7v-492.26c0-35.21-6.9-69.37-20.51-101.55-13.14-31.07-31.95-58.96-55.9-82.91-23.95-23.95-51.85-42.76-82.91-55.9C888.24,6.9,854.08,0,818.87,0H260.87c-35.21,0-69.37,6.9-101.55,20.51-31.07,13.14-58.96,31.95-82.91,55.9s-42.76,51.85-55.9,82.91C6.9,191.5,0,225.66,0,260.87v492.26c0,.23,0,.46,0,.7h21Z"/>
        <path class="cls-2" d="m1018.74,260.87v492.26c0,.23,0,.46,0,.7h40c0-.23,0-.46,0-.7v-492.26c0-132.48-107.39-239.87-239.87-239.87h-40c132.48,0,239.87,107.39,239.87,239.87Z"/>
      </g>
    </g>
  </g>
</svg>