<?xml version="1.0" encoding="UTF-8"?>
<svg id="Layer_2" data-name="Layer 2" xmlns="http://www.w3.org/2000/svg" viewBox="0 0 1290.99 2369.83">
  <defs>
    <style>
      .cls-1 {
        fill: #e6e6e6;
      }

      .cls-1, .cls-2, .cls-3 {
        stroke-width: 0px;
      }

      .cls-3 {
        fill: #f5f5f5;
      }
    </style>
  </defs>
  <g id="Stack">
    <g id="stack_canvas">
      <g id="stack_canvas-2" data-name="stack_canvas">
        <path class="cls-3" d="m94.54,17.25h1101.91c42.66,0,77.29,34.63,77.29,77.29v2180.76c0,42.66-34.63,77.29-77.29,77.29H94.54c-42.66,0-77.29-34.63-77.29-77.29V94.54c0-42.66,34.63-77.29,77.29-77.29Z"/>
        <path class="cls-2" d="m1196.45,34.49c33.16,0,60.04,26.88,60.04,60.04v2180.76c0,33.16-26.88,60.04-60.04,60.04H94.54c-33.16,0-60.04-26.88-60.04-60.04V94.54c0-33.16,26.88-60.04,60.04-60.04h1101.91m0-34.49H94.54C42.41,0,0,42.41,0,94.54v2180.76c0,52.13,42.41,94.54,94.54,94.54h1101.91c52.13,0,94.54-42.41,94.54-94.54V94.54c0-52.13-42.41-94.54-94.54-94.54h0Z"/>
      </g>
      <path id="stack_canvas-3" data-name="stack_canvas" class="cls-1" d="m1196.45,84.45c5.56,0,10.09,4.53,10.09,10.09v2180.76c0,5.56-4.53,10.09-10.09,10.09H94.54c-5.56,0-10.09-4.53-10.09-10.09V94.54c0-5.56,4.53-10.09,10.09-10.09h1101.91m0-49.96H94.54c-33.16,0-60.04,26.88-60.04,60.04v2180.76c0,33.16,26.88,60.04,60.04,60.04h1101.91c33.16,0,60.04-26.88,60.04-60.04V94.54c0-33.16-26.88-60.04-60.04-60.04h0Z"/>
    </g>
  </g>
</svg>