<?xml version="1.0" encoding="UTF-8"?>
<svg id="Layer_2" data-name="Layer 2" xmlns="http://www.w3.org/2000/svg" xmlns:xlink="http://www.w3.org/1999/xlink" viewBox="0 0 355.67 325.27">
  <defs>
    <style>
      .cls-1, .cls-2, .cls-3 {
        stroke-width: 0px;
      }

      .cls-4 {
        filter: url(#drop-shadow-1);
      }

      .cls-2 {
        fill: #ccc;
      }

      .cls-3 {
        fill: #f2f2f2;
      }
    </style>
    <filter id="drop-shadow-1" filterUnits="userSpaceOnUse">
      <feOffset dx="9.24" dy="9.24"/>
      <feGaussianBlur result="blur" stdDeviation="13.2"/>
      <feFlood flood-color="#000" flood-opacity="1"/>
      <feComposite in2="blur" operator="in"/>
      <feComposite in="SourceGraphic"/>
    </filter>
  </defs>
  <g id="Alien">
    <g id="Bob">
      <g class="cls-4">
        <g>
          <ellipse class="cls-3" cx="177.83" cy="162.63" rx="160.67" ry="145.47"/>
          <path class="cls-3" d="m177.83,34.32c79.26,0,143.51,57.45,143.51,128.31s-64.25,128.31-143.51,128.31S34.32,233.5,34.32,162.63,98.57,34.32,177.83,34.32m0-34.32c-46.78,0-90.95,16.45-124.35,46.32-16.62,14.86-29.71,32.25-38.9,51.69C4.9,118.46,0,140.2,0,162.63s4.9,44.18,14.57,64.62c9.2,19.45,22.29,36.84,38.9,51.69,33.41,29.87,77.57,46.32,124.35,46.32s90.95-16.45,124.35-46.32c16.62-14.86,29.71-32.25,38.9-51.69,9.67-20.44,14.57-42.18,14.57-64.62s-4.9-44.18-14.57-64.62c-9.2-19.45-22.29-36.84-38.9-51.69C268.78,16.45,224.62,0,177.83,0h0Z"/>
        </g>
        <path class="cls-2" d="m177.83,34.32c79.26,0,143.51,57.45,143.51,128.31s-64.25,128.31-143.51,128.31S34.32,233.5,34.32,162.63,98.57,34.32,177.83,34.32m0-18.48c-42.88,0-83.3,15.02-113.8,42.29-15.03,13.44-26.85,29.14-35.14,46.66-8.66,18.31-13.05,37.77-13.05,57.85s4.39,39.54,13.05,57.85c8.29,17.52,20.11,33.22,35.14,46.66,30.5,27.27,70.91,42.29,113.8,42.29s83.3-15.02,113.8-42.29c15.03-13.44,26.85-29.14,35.14-46.66,8.66-18.31,13.05-37.77,13.05-57.85s-4.39-39.54-13.05-57.85c-8.29-17.52-20.11-33.22-35.14-46.66-30.5-27.27-70.91-42.29-113.8-42.29h0Z"/>
      </g>
      <g>
        <ellipse class="cls-3" cx="177.83" cy="162.63" rx="143.51" ry="128.31"/>
        <path class="cls-1" d="m177.83,34.32c79.26,0,143.51,57.45,143.51,128.31s-64.25,128.31-143.51,128.31S34.32,233.5,34.32,162.63,98.57,34.32,177.83,34.32m0-18.48c-42.88,0-83.3,15.02-113.8,42.29-15.03,13.44-26.85,29.14-35.14,46.66-8.66,18.31-13.05,37.77-13.05,57.85s4.39,39.54,13.05,57.85c8.29,17.52,20.11,33.22,35.14,46.66,30.5,27.27,70.91,42.29,113.8,42.29s83.3-15.02,113.8-42.29c15.03-13.44,26.85-29.14,35.14-46.66,8.66-18.31,13.05-37.77,13.05-57.85s-4.39-39.54-13.05-57.85c-8.29-17.52-20.11-33.22-35.14-46.66-30.5-27.27-70.91-42.29-113.8-42.29h0Z"/>
      </g>
      <path class="cls-1" d="m227.04,88.21c0,5.94,6.27,10.56,13.2,10.56,6.93,0,11.88-3.3,11.88-9.24,0-8.98-6.27-14.52-13.2-14.52-6.93,0-11.88,6.27-11.88,13.2Z"/>
      <path class="cls-1" d="m97.49,94.81c1.01,5.85,7.98,9.34,14.81,8.16,6.82-1.18,11.14-5.28,10.13-11.13-1.53-8.85-8.66-13.24-15.48-12.06-6.82,1.18-10.64,8.21-9.46,15.03Z"/>
      <path class="cls-1" d="m166.69,107.46c-16.16,0-25.88-7.22-26.54-7.73-1.74-1.33-2.06-3.82-.73-5.55,1.33-1.73,3.8-2.06,5.54-.74.99.74,23.64,17.11,58.71-7.16,1.8-1.24,4.27-.8,5.51,1,1.25,1.8.8,4.27-1,5.51-16.29,11.28-30.4,14.67-41.48,14.67Z"/>
    </g>
  </g>
</svg>