<?xml version="1.0" encoding="UTF-8"?>
<svg id="Layer_2" data-name="Layer 2" xmlns="http://www.w3.org/2000/svg" viewBox="0 0 565.55 214.57">
  <defs>
    <style>
      .cls-1 {
        fill: #999;
      }

      .cls-1, .cls-2, .cls-3, .cls-4, .cls-5, .cls-6, .cls-7, .cls-8, .cls-9 {
        stroke-width: 0px;
      }

      .cls-3 {
        fill: #ffc859;
      }

      .cls-4 {
        fill: #b3b3b3;
      }

      .cls-5 {
        fill: #ccc;
      }

      .cls-6 {
        fill: #3b944c;
      }

      .cls-7 {
        fill: #4aba5f;
      }

      .cls-8 {
        fill: #51c96a;
      }

      .cls-9 {
        fill: #f2f2f2;
      }
    </style>
  </defs>
  <g id="Sore_Sign">
    <g id="score_sign_click">
      <g>
        <rect class="cls-4" x="97.75" y="43.98" width="21.49" height="217" transform="translate(-43.98 260.98) rotate(-90)"/>
        <path class="cls-9" d="m0,141.74h217v21.49H0v-21.49m0,30.74h232.67v-39.98H0"/>
      </g>
      <g>
        <rect class="cls-4" x="97.75" y="-36.36" width="21.49" height="217" transform="translate(36.36 180.64) rotate(-90)"/>
        <path class="cls-9" d="m0,61.39h217v21.49H0v-21.49m0,30.74h232.67v-39.98H0"/>
      </g>
      <rect class="cls-1" x="156.42" y="61.39" width="9.22" height="21.49"/>
      <rect class="cls-1" x="156.42" y="141.74" width="9.22" height="21.49"/>
      <g>
        <path class="cls-5" d="m513.06,176.91H218.12c-8.19,0-14.83-6.64-14.83-14.83V52.49c0-8.19,6.64-14.83,14.83-14.83h294.94c8.19,0,14.83,6.64,14.83,14.83v109.59c0,8.19-6.64,14.83-14.83,14.83Z"/>
        <path class="cls-9" d="m513.06,37.65c8.19,0,14.83,6.64,14.83,14.83v109.59c0,8.19-6.64,14.83-14.83,14.83H218.12c-8.19,0-14.83-6.64-14.83-14.83V52.49c0-8.19,6.64-14.83,14.83-14.83h294.94m0-37.65H218.12c-7.07,0-13.95,1.39-20.44,4.14-6.25,2.65-11.86,6.42-16.67,11.23s-8.59,10.42-11.23,16.67c-2.75,6.5-4.14,13.37-4.14,20.44v109.59c0,7.07,1.39,13.95,4.14,20.44,2.65,6.25,6.42,11.86,11.23,16.67s10.42,8.59,16.67,11.23c6.5,2.75,13.37,4.14,20.44,4.14h294.94c7.07,0,13.95-1.39,20.44-4.14,6.25-2.65,11.86-6.42,16.67-11.23s8.59-10.42,11.23-16.67c2.75-6.5,4.14-13.37,4.14-20.44V52.49c0-7.07-1.39-13.95-4.14-20.44-2.65-6.25-6.42-11.86-11.23-16.67s-10.42-8.59-16.67-11.23c-6.5-2.75-13.37-4.14-20.44-4.14h0Z"/>
      </g>
      <g>
        <rect class="cls-5" x="203.29" y="37.65" width="324.61" height="139.26" rx="14.83" ry="14.83"/>
        <path class="cls-2" d="m513.06,37.65c8.19,0,14.83,6.64,14.83,14.83v109.59c0,8.19-6.64,14.83-14.83,14.83H218.12c-8.19,0-14.83-6.64-14.83-14.83V52.49c0-8.19,6.64-14.83,14.83-14.83h294.94m0-25.97H218.12c-5.5,0-10.84,1.08-15.89,3.22-4.86,2.06-9.22,4.99-12.96,8.73-3.74,3.74-6.68,8.1-8.73,12.96-2.13,5.05-3.22,10.39-3.22,15.89v109.59c0,5.5,1.08,10.84,3.22,15.89,2.06,4.86,4.99,9.22,8.73,12.96,3.74,3.74,8.1,6.68,12.96,8.73,5.05,2.13,10.39,3.22,15.89,3.22h294.94c5.5,0,10.84-1.08,15.89-3.22,4.86-2.06,9.22-4.99,12.96-8.73,3.74-3.74,6.68-8.1,8.73-12.96,2.13-5.05,3.22-10.39,3.22-15.89V52.49c0-5.5-1.08-10.84-3.22-15.89-2.06-4.86-4.99-9.22-8.73-12.96-3.74-3.74-8.1-6.68-12.96-8.73-5.05-2.13-10.39-3.22-15.89-3.22h0Z"/>
      </g>
      <g>
        <rect class="cls-8" x="209.13" y="41.87" width="312.92" height="130.82" rx="14.12" ry="14.12"/>
        <path class="cls-5" d="m507.94,41.87c7.8,0,14.12,6.32,14.12,14.12v102.59c0,7.8-6.32,14.12-14.12,14.12H223.25c-7.8,0-14.12-6.32-14.12-14.12V55.99c0-7.8,6.32-14.12,14.12-14.12h284.69m0-15.75H223.25c-16.47,0-29.87,13.4-29.87,29.87v102.59c0,16.47,13.4,29.87,29.87,29.87h284.69c16.47,0,29.87-13.4,29.87-29.87V55.99c0-16.47-13.4-29.87-29.87-29.87h0Z"/>
      </g>
      <path class="cls-7" d="m215.62,165.07V62.48c0-7.8,6.32-14.12,14.12-14.12h284.69c2.22,0,4.32.52,6.19,1.43-2.29-4.69-7.11-7.92-12.69-7.92H223.25c-7.8,0-14.12,6.32-14.12,14.12v102.59c0,5.57,3.23,10.39,7.92,12.69-.91-1.87-1.43-3.97-1.43-6.19Z"/>
      <g id="Crown">
        <path class="cls-6" d="m420.06,99.5c.02.29,0,.58-.08.88l-6.28,25.94c-.32,1.31-1.45,2.23-2.76,2.23l-37.7.2h-37.72c-1.31,0-2.45-.92-2.77-2.24l-6.28-26.03c-.07-.3-.09-.6-.08-.9-2.43-.79-4.2-3.14-4.2-5.9,0-3.41,2.69-6.19,6-6.19s6,2.78,6,6.19c0,1.92-.85,3.64-2.19,4.78l7.87,8.18c1.99,2.07,4.75,3.25,7.57,3.25,3.34,0,6.52-1.64,8.52-4.38l12.93-17.68c-1.09-1.12-1.76-2.67-1.76-4.37,0-3.41,2.69-6.19,6-6.19s6,2.78,6,6.19c0,1.66-.64,3.16-1.67,4.27,0,0,0,0,.01.01l12.84,17.73c2,2.77,5.2,4.42,8.54,4.42,2.85,0,5.53-1.14,7.54-3.22l7.92-8.17c-1.36-1.14-2.24-2.87-2.24-4.82,0-3.41,2.69-6.19,6-6.19s6,2.78,6,6.19c0,2.69-1.68,4.98-4.01,5.83Zm-6.97,38.48c0-1.63-1.28-2.95-2.86-2.95h-73.89c-1.58,0-2.86,1.32-2.86,2.95v7.07c0,1.63,1.28,2.95,2.86,2.95h73.89c1.58,0,2.86-1.32,2.86-2.95v-7.07Z"/>
        <g>
          <path class="cls-3" d="m416.51,94.37c.02.29,0,.58-.08.88l-6.28,25.94c-.32,1.31-1.45,2.23-2.76,2.23l-37.7.2h-37.72c-1.31,0-2.45-.92-2.77-2.24l-6.28-26.03c-.07-.3-.09-.6-.08-.9-2.43-.79-4.2-3.14-4.2-5.9,0-3.41,2.69-6.19,6-6.19s6,2.78,6,6.19c0,1.92-.85,3.64-2.19,4.78l7.87,8.18c1.99,2.07,4.75,3.25,7.57,3.25,3.34,0,6.52-1.64,8.52-4.38l12.93-17.68c-1.09-1.12-1.76-2.67-1.76-4.37,0-3.41,2.69-6.19,6-6.19s6,2.78,6,6.19c0,1.66-.64,3.16-1.67,4.27,0,0,0,0,.01.01l12.84,17.73c2,2.77,5.2,4.42,8.54,4.42,2.85,0,5.53-1.14,7.54-3.22l7.92-8.17c-1.36-1.14-2.24-2.87-2.24-4.82,0-3.41,2.69-6.19,6-6.19s6,2.78,6,6.19c0,2.69-1.68,4.98-4.01,5.83Zm-6.97,38.48c0-1.63-1.28-2.95-2.86-2.95h-73.89c-1.58,0-2.86,1.32-2.86,2.95v7.07c0,1.63,1.28,2.95,2.86,2.95h73.89c1.58,0,2.86-1.32,2.86-2.95v-7.07Z"/>
          <path class="cls-2" d="m406.68,144.37h-73.89c-2.4,0-4.36-2-4.36-4.45v-7.07c0-2.45,1.95-4.45,4.36-4.45h73.89c2.4,0,4.36,2,4.36,4.45v7.07c0,2.45-1.95,4.45-4.36,4.45Zm-73.89-12.97c-.75,0-1.36.65-1.36,1.45v7.07c0,.8.61,1.45,1.36,1.45h73.89c.75,0,1.36-.65,1.36-1.45v-7.07c0-.8-.61-1.45-1.36-1.45h-73.89Zm-.83-6.29c-2.01,0-3.75-1.39-4.23-3.38l-6.28-26.03c-.02-.07-.03-.14-.05-.21-2.59-1.26-4.27-3.93-4.27-6.94,0-4.24,3.36-7.69,7.5-7.69s7.5,3.45,7.5,7.69c0,1.75-.58,3.42-1.62,4.77l6.88,7.15c1.71,1.77,4.07,2.79,6.49,2.79,2.86,0,5.59-1.41,7.31-3.76l12.25-16.74c-.89-1.29-1.37-2.82-1.37-4.42,0-4.24,3.36-7.69,7.5-7.69s7.5,3.45,7.5,7.69c0,1.55-.45,3.04-1.29,4.3l12.19,16.83c1.72,2.38,4.46,3.8,7.33,3.8,2.44,0,4.73-.98,6.46-2.77l6.91-7.13c-1.07-1.35-1.66-3.04-1.66-4.81,0-4.24,3.36-7.69,7.5-7.69s7.5,3.45,7.5,7.69c0,2.9-1.6,5.53-4.08,6.83-.01.08-.03.15-.05.22l-6.28,25.94c-.48,1.98-2.21,3.37-4.21,3.38l-37.7.2h-37.73Zm-7.33-41.26c-2.48,0-4.5,2.1-4.5,4.69,0,2.06,1.27,3.86,3.16,4.48l1.1.36-.07,1.16c0,.16,0,.32.04.46l6.28,26.03c.15.64.69,1.09,1.31,1.09h37.7l37.71-.2c.61,0,1.15-.45,1.31-1.09l6.28-25.94c.03-.14.04-.28.04-.44l-.06-1.11,1.04-.38c1.81-.66,3.02-2.44,3.02-4.42,0-2.59-2.02-4.69-4.5-4.69s-4.5,2.1-4.5,4.69c0,1.43.62,2.77,1.7,3.66l1.24,1.03-9.04,9.33c-2.3,2.37-5.36,3.68-8.62,3.68-3.83,0-7.48-1.88-9.76-5.04l-13.6-18.7.87-.94c.82-.88,1.27-2.04,1.27-3.25,0-2.59-2.02-4.69-4.5-4.69s-4.5,2.1-4.5,4.69c0,1.26.47,2.44,1.34,3.33l.88.91-13.68,18.7c-2.29,3.12-5.92,4.99-9.74,4.99-3.23,0-6.38-1.35-8.65-3.71l-8.97-9.33,1.22-1.03c1.06-.9,1.66-2.22,1.66-3.64,0-2.59-2.02-4.69-4.5-4.69Z"/>
        </g>
      </g>
    </g>
  </g>
</svg>