<?xml version="1.0" encoding="UTF-8"?>
<svg id="Layer_2" data-name="Layer 2" xmlns="http://www.w3.org/2000/svg" viewBox="0 0 565.55 214.57">
  <defs>
    <style>
      .cls-1 {
        fill: #999;
      }

      .cls-1, .cls-2, .cls-3, .cls-4, .cls-5, .cls-6, .cls-7 {
        stroke-width: 0px;
      }

      .cls-3 {
        fill: #b3b3b3;
      }

      .cls-4 {
        fill: #ccc;
      }

      .cls-5 {
        fill: #83b88e;
      }

      .cls-6 {
        fill: #72a87c;
      }

      .cls-7 {
        fill: #f2f2f2;
      }
    </style>
  </defs>
  <g id="Sore_Sign">
    <g id="score_sign_idle">
      <g id="Sticks">
        <g>
          <rect class="cls-3" x="97.75" y="43.98" width="21.49" height="217" transform="translate(-43.98 260.98) rotate(-90)"/>
          <path class="cls-7" d="m0,141.74h217v21.49H0v-21.49m0,30.74h232.67v-39.98H0"/>
        </g>
        <g>
          <rect class="cls-3" x="97.75" y="-36.36" width="21.49" height="217" transform="translate(36.36 180.64) rotate(-90)"/>
          <path class="cls-7" d="m0,61.39h217v21.49H0v-21.49m0,30.74h232.67v-39.98H0"/>
        </g>
        <rect class="cls-1" x="156.42" y="61.39" width="9.22" height="21.49"/>
        <rect class="cls-1" x="156.42" y="141.74" width="9.22" height="21.49"/>
      </g>
      <g id="Sign">
        <g>
          <path class="cls-4" d="m513.06,176.91H218.12c-8.19,0-14.83-6.64-14.83-14.83V52.49c0-8.19,6.64-14.83,14.83-14.83h294.94c8.19,0,14.83,6.64,14.83,14.83v109.59c0,8.19-6.64,14.83-14.83,14.83Z"/>
          <path class="cls-7" d="m513.06,37.65c8.19,0,14.83,6.64,14.83,14.83v109.59c0,8.19-6.64,14.83-14.83,14.83H218.12c-8.19,0-14.83-6.64-14.83-14.83V52.49c0-8.19,6.64-14.83,14.83-14.83h294.94m0-37.65H218.12c-7.07,0-13.95,1.39-20.44,4.14-6.25,2.65-11.86,6.42-16.67,11.23s-8.59,10.42-11.23,16.67c-2.75,6.5-4.14,13.37-4.14,20.44v109.59c0,7.07,1.39,13.95,4.14,20.44,2.65,6.25,6.42,11.86,11.23,16.67s10.42,8.59,16.67,11.23c6.5,2.75,13.37,4.14,20.44,4.14h294.94c7.07,0,13.95-1.39,20.44-4.14,6.25-2.65,11.86-6.42,16.67-11.23s8.59-10.42,11.23-16.67c2.75-6.5,4.14-13.37,4.14-20.44V52.49c0-7.07-1.39-13.95-4.14-20.44-2.65-6.25-6.42-11.86-11.23-16.67s-10.42-8.59-16.67-11.23c-6.5-2.75-13.37-4.14-20.44-4.14h0Z"/>
        </g>
        <g>
          <rect class="cls-4" x="203.29" y="37.65" width="324.61" height="139.26" rx="14.83" ry="14.83"/>
          <path class="cls-2" d="m513.06,37.65c8.19,0,14.83,6.64,14.83,14.83v109.59c0,8.19-6.64,14.83-14.83,14.83H218.12c-8.19,0-14.83-6.64-14.83-14.83V52.49c0-8.19,6.64-14.83,14.83-14.83h294.94m0-25.97H218.12c-5.5,0-10.84,1.08-15.89,3.22-4.86,2.06-9.22,4.99-12.96,8.73-3.74,3.74-6.68,8.1-8.73,12.96-2.13,5.05-3.22,10.39-3.22,15.89v109.59c0,5.5,1.08,10.84,3.22,15.89,2.06,4.86,4.99,9.22,8.73,12.96,3.74,3.74,8.1,6.68,12.96,8.73,5.05,2.13,10.39,3.22,15.89,3.22h294.94c5.5,0,10.84-1.08,15.89-3.22,4.86-2.06,9.22-4.99,12.96-8.73,3.74-3.74,6.68-8.1,8.73-12.96,2.13-5.05,3.22-10.39,3.22-15.89V52.49c0-5.5-1.08-10.84-3.22-15.89-2.06-4.86-4.99-9.22-8.73-12.96-3.74-3.74-8.1-6.68-12.96-8.73-5.05-2.13-10.39-3.22-15.89-3.22h0Z"/>
        </g>
        <g>
          <rect class="cls-5" x="209.13" y="41.87" width="312.92" height="130.82" rx="14.12" ry="14.12"/>
          <path class="cls-4" d="m507.94,41.87c7.8,0,14.12,6.32,14.12,14.12v102.59c0,7.8-6.32,14.12-14.12,14.12H223.25c-7.8,0-14.12-6.32-14.12-14.12V55.99c0-7.8,6.32-14.12,14.12-14.12h284.69m0-15.75H223.25c-16.47,0-29.87,13.4-29.87,29.87v102.59c0,16.47,13.4,29.87,29.87,29.87h284.69c16.47,0,29.87-13.4,29.87-29.87V55.99c0-16.47-13.4-29.87-29.87-29.87h0Z"/>
        </g>
        <path class="cls-6" d="m215.62,165.07V62.48c0-7.8,6.32-14.12,14.12-14.12h284.69c2.22,0,4.32.52,6.19,1.43-2.29-4.69-7.11-7.92-12.69-7.92H223.25c-7.8,0-14.12,6.32-14.12,14.12v102.59c0,5.57,3.23,10.39,7.92,12.69-.91-1.87-1.43-3.97-1.43-6.19Z"/>
      </g>
    </g>
  </g>
</svg>