<?xml version="1.0" encoding="UTF-8"?>
<svg id="Layer_2" data-name="Layer 2" xmlns="http://www.w3.org/2000/svg" viewBox="0 0 156.14 156.14">
  <defs>
    <style>
      .cls-1, .cls-2, .cls-3 {
        stroke-width: 0px;
      }

      .cls-2 {
        fill: #a37000;
      }

      .cls-3 {
        fill: #fcc751;
      }
    </style>
  </defs>
  <g id="Shop">
    <g id="Games">
      <g id="Player_Coins" data-name="Player Coins">
        <g id="Coins">
          <g>
            <circle class="cls-3" cx="78.07" cy="78.07" r="70.26" transform="translate(-23.93 35.82) rotate(-22.5)"/>
            <path class="cls-1" d="m78.07,15.61c34.44,0,62.46,28.02,62.46,62.46s-28.02,62.46-62.46,62.46S15.61,112.51,15.61,78.07,43.63,15.61,78.07,15.61m0-15.61h0C34.95,0,0,34.95,0,78.07h0c0,43.12,34.95,78.07,78.07,78.07h0c43.12,0,78.07-34.95,78.07-78.07h0C156.14,34.95,121.19,0,78.07,0h0Z"/>
          </g>
          <path class="cls-2" d="m51.62,104.14v-59.22c0-4.36,3.53-7.89,7.89-7.89h16.68c9.3,0,16.56,1.73,21.76,5.18s7.8,8.59,7.8,15.43c0,3.57-.82,6.74-2.47,9.5-1.57,2.63-3.98,4.65-7.23,6.05-.16.07-.14.28.03.32,4.2,1,7.33,2.95,9.39,5.86,2.15,3.02,3.22,6.51,3.22,10.46,0,7.31-2.46,12.84-7.37,16.58s-11.95,5.61-21.12,5.61h-20.7c-4.36,0-7.89-3.53-7.89-7.89Zm17.41-38.04c0,1.22.99,2.2,2.2,2.2h4.65c4.19,0,7.31-.73,9.37-2.19s3.09-3.63,3.09-6.52c0-3.19-1-5.52-2.99-6.98-1.99-1.46-5.05-2.19-9.17-2.19h-4.96c-1.22,0-2.2.99-2.2,2.2v13.47Zm0,15.94v14.4c0,1.22.99,2.2,2.2,2.2h8.97c3.71,0,6.49-.73,8.34-2.19s2.78-3.7,2.78-6.72c0-3.19-.82-5.61-2.45-7.26s-4.32-2.52-8.06-2.63h-9.59c-1.22,0-2.2.99-2.2,2.2Z"/>
        </g>
      </g>
    </g>
  </g>
</svg>