<?xml version="1.0" encoding="UTF-8"?>
<svg id="Layer_2" data-name="Layer 2" xmlns="http://www.w3.org/2000/svg" viewBox="0 0 356 356">
  <defs>
    <style>
      .cls-1, .cls-2, .cls-3 {
        stroke-width: 0px;
      }

      .cls-2 {
        fill: #90e5bb;
      }

      .cls-3 {
        fill: #f2f2f2;
      }
    </style>
  </defs>
  <g id="Shop">
    <g id="Games">
      <g id="Shop-2" data-name="Shop">
        <g id="Unlocks">
          <g id="Base">
            <g id="Cosmetics">
              <g id="Bob_Skin_01">
                <g>
                  <rect class="cls-3" x="25.73" y="25.73" width="304.55" height="304.55" rx="39.3" ry="39.3"/>
                  <path class="cls-1" d="m290.97,33.45c17.41,0,31.58,14.17,31.58,31.58v225.94c0,17.41-14.17,31.58-31.58,31.58H65.03c-17.41,0-31.58-14.17-31.58-31.58V65.03c0-17.41,14.17-31.58,31.58-31.58h225.94m0-15.45H65.03c-25.97,0-47.03,21.06-47.03,47.03v225.94c0,25.97,21.06,47.03,47.03,47.03h225.94c25.97,0,47.03-21.06,47.03-47.03V65.03c0-25.97-21.06-47.03-47.03-47.03h0Z"/>
                  <path class="cls-2" d="m290.97,18c25.97,0,47.03,21.06,47.03,47.03v225.94c0,25.97-21.06,47.03-47.03,47.03H65.03c-25.97,0-47.03-21.06-47.03-47.03V65.03c0-25.97,21.06-47.03,47.03-47.03h225.94m0-18H65.03C29.17,0,0,29.17,0,65.03v225.94c0,35.86,29.17,65.03,65.03,65.03h225.94c35.86,0,65.03-29.17,65.03-65.03V65.03c0-35.86-29.17-65.03-65.03-65.03h0Z"/>
                </g>
              </g>
            </g>
          </g>
        </g>
      </g>
    </g>
  </g>
</svg>