<?xml version="1.0" encoding="UTF-8"?>
<svg id="Layer_2" data-name="Layer 2" xmlns="http://www.w3.org/2000/svg" viewBox="0 0 356 356">
  <defs>
    <style>
      .cls-1, .cls-2, .cls-3 {
        stroke-width: 0px;
      }

      .cls-2 {
        fill: #a2b4db;
      }

      .cls-3 {
        fill: #f2f2f2;
      }
    </style>
  </defs>
  <g id="Shop">
    <g id="Games">
      <g id="Shop-2" data-name="Shop">
        <g id="Unlocks">
          <g id="Base">
            <g id="Cosmetics">
              <g id="Bob_Skin_02">
                <g>
                  <path class="cls-3" d="m65.03,25.73h225.94c21.69,0,39.3,17.61,39.3,39.3v225.94c0,21.69-17.61,39.3-39.3,39.3H65.03c-21.69,0-39.3-17.61-39.3-39.3V65.03c0-21.69,17.61-39.3,39.3-39.3Z"/>
                  <path class="cls-1" d="m290.97,33.45c17.41,0,31.58,14.17,31.58,31.58v225.94c0,17.41-14.17,31.58-31.58,31.58H65.03c-17.41,0-31.58-14.17-31.58-31.58V65.03c0-17.41,14.17-31.58,31.58-31.58h225.94m0-15.45H65.03c-25.97,0-47.03,21.06-47.03,47.03v225.94c0,25.97,21.06,47.03,47.03,47.03h225.94c25.97,0,47.03-21.06,47.03-47.03V65.03c0-25.97-21.06-47.03-47.03-47.03h0Z"/>
                  <path class="cls-2" d="m290.97,18c25.97,0,47.03,21.06,47.03,47.03v225.94c0,25.97-21.06,47.03-47.03,47.03H65.03c-25.97,0-47.03-21.06-47.03-47.03V65.03c0-25.97,21.06-47.03,47.03-47.03h225.94m0-18H65.03C29.17,0,0,29.17,0,65.03v225.94c0,35.86,29.17,65.03,65.03,65.03h225.94c35.86,0,65.03-29.17,65.03-65.03V65.03c0-35.86-29.17-65.03-65.03-65.03h0Z"/>
                </g>
              </g>
            </g>
          </g>
        </g>
      </g>
    </g>
  </g>
</svg>