<?xml version="1.0" encoding="UTF-8"?>
<svg id="Layer_2" data-name="Layer 2" xmlns="http://www.w3.org/2000/svg" viewBox="0 0 445.5 213.27">
  <defs>
    <style>
      .cls-1 {
        fill: #f8fc9f;
      }

      .cls-1, .cls-2, .cls-3 {
        stroke-width: 0px;
      }

      .cls-4 {
        fill: #a9b019;
        stroke: #000;
        stroke-miterlimit: 10;
        stroke-width: 8.57px;
      }

      .cls-3 {
        fill: #fcc751;
      }
    </style>
  </defs>
  <g id="Shop">
    <g id="Games">
      <g id="Pop_Up">
        <g id="Layer_135" data-name="Layer 135">
          <g>
            <path class="cls-3" d="m62.44,16.35h329.31c25.43,0,46.07,20.64,46.07,46.07v97.1c0,25.43-20.64,46.07-46.07,46.07H62.44c-25.43,0-46.07-20.64-46.07-46.07V62.41c0-25.43,20.64-46.07,46.07-46.07Z"/>
            <path class="cls-2" d="m391.75,24.03c21.2,0,38.39,17.19,38.39,38.39v97.1c0,21.2-17.19,38.39-38.39,38.39H62.44c-21.2,0-38.39-17.19-38.39-38.39V62.41c0-21.2,17.19-38.39,38.39-38.39h329.31m0-15.36H62.44c-29.64,0-53.75,24.11-53.75,53.75v97.1c0,29.64,24.11,53.75,53.75,53.75h329.31c29.64,0,53.75-24.11,53.75-53.75V62.41c0-29.64-24.11-53.75-53.75-53.75h0Z"/>
            <path class="cls-2" d="m391.75,24.03c21.2,0,38.39,17.19,38.39,38.39v97.1c0,21.2-17.19,38.39-38.39,38.39H62.44c-21.2,0-38.39-17.19-38.39-38.39V62.41c0-21.2,17.19-38.39,38.39-38.39h329.31m0-15.36H62.44c-29.64,0-53.75,24.11-53.75,53.75v97.1c0,29.64,24.11,53.75,53.75,53.75h329.31c29.64,0,53.75-24.11,53.75-53.75V62.41c0-29.64-24.11-53.75-53.75-53.75h0Z"/>
          </g>
          <g>
            <path class="cls-3" d="m53.75,7.68h329.31c25.43,0,46.07,20.64,46.07,46.07v97.1c0,25.43-20.64,46.07-46.07,46.07H53.75c-25.43,0-46.07-20.64-46.07-46.07V53.75C7.68,28.32,28.32,7.68,53.75,7.68Z"/>
            <path class="cls-2" d="m383.06,15.36c21.2,0,38.39,17.19,38.39,38.39v97.1c0,21.2-17.19,38.39-38.39,38.39H53.75c-21.2,0-38.39-17.19-38.39-38.39V53.75c0-21.2,17.19-38.39,38.39-38.39h329.31m0-15.36H53.75C24.11,0,0,24.11,0,53.75v97.1c0,29.64,24.11,53.75,53.75,53.75h329.31c29.64,0,53.75-24.11,53.75-53.75V53.75c0-29.64-24.11-53.75-53.75-53.75h0Z"/>
            <path class="cls-2" d="m383.06,15.36c21.2,0,38.39,17.19,38.39,38.39v97.1c0,21.2-17.19,38.39-38.39,38.39H53.75c-21.2,0-38.39-17.19-38.39-38.39V53.75c0-21.2,17.19-38.39,38.39-38.39h329.31m0-15.36H53.75C24.11,0,0,24.11,0,53.75v97.1c0,29.64,24.11,53.75,53.75,53.75h329.31c29.64,0,53.75-24.11,53.75-53.75V53.75c0-29.64-24.11-53.75-53.75-53.75h0Z"/>
          </g>
          <g>
            <path class="cls-1" d="m79.98,38.38h59.88c17.86,0,32.35,14.5,32.35,32.35v59.88c0,17.86-14.5,32.35-32.35,32.35h-59.88c-17.86,0-32.35-14.5-32.35-32.35v-59.88c0-17.86,14.5-32.35,32.35-32.35Z"/>
            <path class="cls-2" d="m139.86,45.3c14.02,0,25.43,11.41,25.43,25.43v59.88c0,14.02-11.41,25.43-25.43,25.43h-59.88c-14.02,0-25.43-11.41-25.43-25.43v-59.88c0-14.02,11.41-25.43,25.43-25.43h59.88m0-13.84h-59.88c-21.69,0-39.27,17.58-39.27,39.27v59.88c0,21.69,17.58,39.27,39.27,39.27h59.88c21.69,0,39.27-17.58,39.27-39.27v-59.88c0-21.69-17.58-39.27-39.27-39.27h0Z"/>
          </g>
          <path class="cls-4" d="m88.42,118.89v-42.02c0-5.38,5.69-8.83,10.42-6.33l39.71,21.01c5.06,2.68,5.06,9.97,0,12.65l-39.71,21.01c-4.73,2.5-10.42-.95-10.42-6.33Z"/>
        </g>
      </g>
    </g>
  </g>
</svg>