<?xml version="1.0" encoding="UTF-8"?>
<svg id="Layer_2" data-name="Layer 2" xmlns="http://www.w3.org/2000/svg" viewBox="0 0 315.95 140.01">
  <defs>
    <style>
      .cls-1 {
        fill: #f8fc9f;
      }

      .cls-1, .cls-2, .cls-3, .cls-4 {
        stroke-width: 0px;
      }

      .cls-5 {
        fill: #a9b019;
        stroke: #000;
        stroke-miterlimit: 10;
        stroke-width: 5.59px;
      }

      .cls-3 {
        fill: #fff;
      }

      .cls-4 {
        fill: #fcc751;
      }
    </style>
  </defs>
  <g id="Shop">
    <g id="Games">
      <g id="Player_Coins" data-name="Player Coins">
        <g id="AD">
          <g id="Layer_107" data-name="Layer 107">
            <g>
              <path class="cls-4" d="m42.8,10.88h236.54c17.32,0,31.38,14.06,31.38,31.38v61.13c0,17.32-14.06,31.38-31.38,31.38H42.8c-17.32,0-31.38-14.06-31.38-31.38v-61.13c0-17.32,14.06-31.38,31.38-31.38Z"/>
              <path class="cls-2" d="m279.34,16.12c14.44,0,26.15,11.71,26.15,26.15v61.13c0,14.44-11.71,26.15-26.15,26.15H42.8c-14.44,0-26.15-11.71-26.15-26.15v-61.13c0-14.44,11.71-26.15,26.15-26.15h236.54m0-10.47H42.8C22.61,5.65,6.18,22.08,6.18,42.27v61.13c0,20.19,16.42,36.61,36.61,36.61h236.54c20.19,0,36.61-16.42,36.61-36.61v-61.13c0-20.19-16.42-36.61-36.61-36.61h0Z"/>
              <path class="cls-2" d="m279.34,16.12c14.44,0,26.15,11.71,26.15,26.15v61.13c0,14.44-11.71,26.15-26.15,26.15H42.8c-14.44,0-26.15-11.71-26.15-26.15v-61.13c0-14.44,11.71-26.15,26.15-26.15h236.54m0-10.47H42.8C22.61,5.65,6.18,22.08,6.18,42.27v61.13c0,20.19,16.42,36.61,36.61,36.61h236.54c20.19,0,36.61-16.42,36.61-36.61v-61.13c0-20.19-16.42-36.61-36.61-36.61h0Z"/>
            </g>
            <g>
              <rect class="cls-4" x="5.23" y="5.23" width="299.3" height="123.9" rx="31.38" ry="31.38"/>
              <path class="cls-2" d="m273.15,10.47c14.44,0,26.15,11.71,26.15,26.15v61.13c0,14.44-11.71,26.15-26.15,26.15H36.61c-14.44,0-26.15-11.71-26.15-26.15v-61.13c0-14.44,11.71-26.15,26.15-26.15h236.54m0-10.47H36.61C16.42,0,0,16.42,0,36.61v61.13c0,20.19,16.42,36.61,36.61,36.61h236.54c20.19,0,36.61-16.42,36.61-36.61v-61.13c0-20.19-16.42-36.61-36.61-36.61h0Z"/>
              <path class="cls-2" d="m273.15,10.47c14.44,0,26.15,11.71,26.15,26.15v61.13c0,14.44-11.71,26.15-26.15,26.15H36.61c-14.44,0-26.15-11.71-26.15-26.15v-61.13c0-14.44,11.71-26.15,26.15-26.15h236.54m0-10.47H36.61C16.42,0,0,16.42,0,36.61v61.13c0,20.19,16.42,36.61,36.61,36.61h236.54c20.19,0,36.61-16.42,36.61-36.61v-61.13c0-20.19-16.42-36.61-36.61-36.61h0Z"/>
            </g>
            <g>
              <g>
                <path class="cls-3" d="m144.29,93.44c-2.5,0-4.53-2.03-4.53-4.53v-13.04h-10.84c-2.5,0-4.53-2.03-4.53-4.53v-9.93c0-2.5,2.03-4.53,4.53-4.53h10.84v-12.54c0-2.5,2.03-4.53,4.53-4.53h11.09c2.5,0,4.53,2.03,4.53,4.53v12.54h10.79c2.5,0,4.53,2.03,4.53,4.53v9.93c0,2.5-2.03,4.53-4.53,4.53h-10.79v13.04c0,2.5-2.03,4.53-4.53,4.53h-11.09Z"/>
                <path class="cls-2" d="m155.38,42.82c.84,0,1.53.68,1.53,1.53v14.01c0,.84.68,1.53,1.53,1.53h12.26c.84,0,1.53.68,1.53,1.53v9.93c0,.84-.68,1.53-1.53,1.53h-12.26c-.84,0-1.53.68-1.53,1.53v14.51c0,.84-.68,1.53-1.53,1.53h-11.09c-.84,0-1.53-.68-1.53-1.53v-14.51c0-.84-.68-1.53-1.53-1.53h-12.31c-.84,0-1.53-.68-1.53-1.53v-9.93c0-.84.68-1.53,1.53-1.53h12.31c.84,0,1.53-.68,1.53-1.53v-14.01c0-.84.68-1.53,1.53-1.53h11.09m0-6h-11.09c-4.15,0-7.53,3.38-7.53,7.53v9.54h-7.84c-4.15,0-7.53,3.38-7.53,7.53v9.93c0,4.15,3.38,7.53,7.53,7.53h7.84v10.04c0,4.15,3.38,7.53,7.53,7.53h11.09c4.15,0,7.53-3.38,7.53-7.53v-10.04h7.79c4.15,0,7.53-3.38,7.53-7.53v-9.93c0-4.15-3.38-7.53-7.53-7.53h-7.79v-9.54c0-4.15-3.38-7.53-7.53-7.53h0Z"/>
              </g>
              <g>
                <path class="cls-3" d="m180.58,100c-2.5,0-4.53-2.03-4.53-4.53v-7.76c0-1.13.42-2.21,1.18-3.05l19.73-21.67c2.49-2.83,4.35-5.38,5.49-7.55,1.01-1.92,1.54-3.6,1.54-4.85,0-1.86-.37-3.28-1.09-4.22-.2-.26-.81-1.05-3.1-1.05-1.37,0-2.27.47-3.02,1.57-.79,1.18-1.26,2.7-1.4,4.53-.17,2.34-2.15,4.18-4.51,4.18h-11.57c-1.36,0-2.64-.6-3.51-1.66-.86-1.05-1.2-2.42-.94-3.75,1.02-5.09,2.95-11.88,6.35-15.34,4.7-4.78,10.95-7.21,18.58-7.21s14.14,2.04,18.59,6.05c4.53,4.1,6.83,9.73,6.83,16.76,0,4.72-1.26,8.98-3.75,12.66-2.26,3.34-6.21,8.06-12.09,14.43l-3.98,4.77h17.58c2.5,0,4.53,2.03,4.53,4.53v8.62c0,2.5-2.03,4.53-4.53,4.53h-42.4Z"/>
                <path class="cls-2" d="m199.81,30.65c7.16,0,12.68,1.76,16.58,5.28,3.89,3.52,5.84,8.36,5.84,14.53,0,4.13-1.08,7.79-3.23,10.98s-6.11,7.9-11.86,14.13l-7.95,9.52.09.22h23.72c.84,0,1.53.68,1.53,1.53v8.62c0,.84-.68,1.53-1.53,1.53h-42.4c-.84,0-1.53-.68-1.53-1.53v-7.76c0-.38.14-.75.4-1.03l19.73-21.66c2.7-3.05,4.67-5.78,5.93-8.18,1.26-2.4,1.89-4.48,1.89-6.24,0-2.54-.57-4.56-1.71-6.04-1.14-1.48-2.96-2.22-5.48-2.22-2.37,0-4.2.97-5.5,2.9-1.09,1.62-1.73,3.62-1.9,5.99-.06.79-.72,1.4-1.52,1.4h-11.57c-.96,0-1.69-.88-1.5-1.82.68-3.4,2.44-10.67,5.55-13.83,4.13-4.21,9.61-6.31,16.44-6.31m0-6c-8.47,0-15.44,2.73-20.72,8.11-3.92,3.99-6.06,11.37-7.16,16.86-.44,2.22.12,4.49,1.56,6.24,1.44,1.75,3.56,2.76,5.83,2.76h11.57c3.92,0,7.21-3.06,7.5-6.96.1-1.31.4-2.34.89-3.08.1-.15.17-.21.19-.23,0,0,0,0,0,0,.01,0,.13-.02.34-.02.42,0,.68.04.84.07.18.38.35,1.11.35,2.2,0,.27-.09,1.34-1.2,3.45-1.02,1.95-2.74,4.29-5.09,6.96l-19.69,21.63c-1.27,1.39-1.96,3.19-1.96,5.07v7.76c0,4.15,3.38,7.53,7.53,7.53h42.4c4.15,0,7.53-3.38,7.53-7.53v-8.62c0-4.15-3.38-7.53-7.53-7.53h-11.15c5.85-6.35,9.81-11.1,12.12-14.52,2.83-4.18,4.26-9.01,4.26-14.34,0-7.91-2.63-14.29-7.82-18.98-5.01-4.53-11.94-6.83-20.6-6.83h0Z"/>
              </g>
              <g>
                <path class="cls-3" d="m254.48,100.94c-7.72,0-14.03-2.55-18.76-7.57-4.69-4.97-7.06-11.84-7.06-20.41v-17.34c0-8.57,2.36-15.43,7.01-20.4,4.7-5.03,11-7.58,18.72-7.58s13.95,2.55,18.71,7.59c4.72,4.99,7.11,11.85,7.11,20.39v17.34c0,8.57-2.38,15.44-7.06,20.41-4.73,5.02-11.01,7.57-18.67,7.57Zm-.09-55.61c-1.39,0-2.31.52-3.08,1.74-1.01,1.6-1.52,4.13-1.52,7.52v19.32c0,3.42.53,6.06,1.53,7.61.78,1.22,1.72,1.74,3.16,1.74s2.29-.52,3.07-1.74c1-1.56,1.53-4.19,1.53-7.61v-19.32c0-3.37-.52-5.89-1.56-7.48-.81-1.25-1.75-1.78-3.12-1.78Z"/>
                <path class="cls-2" d="m254.39,30.65c6.83,0,12.34,2.22,16.53,6.65,4.19,4.43,6.29,10.54,6.29,18.33v17.34c0,7.82-2.08,13.93-6.24,18.35-4.16,4.42-9.66,6.63-16.49,6.63s-12.41-2.21-16.58-6.63c-4.16-4.42-6.24-10.53-6.24-18.35v-17.34c0-7.82,2.07-13.93,6.2-18.35,4.13-4.42,9.64-6.63,16.53-6.63m.09,55.61c2.4,0,4.26-1.04,5.59-3.12,1.33-2.08,2-5.16,2-9.23v-19.32c0-3.98-.68-7.02-2.04-9.12-1.36-2.1-3.24-3.14-5.64-3.14s-4.3,1.05-5.62,3.14c-1.32,2.1-1.98,5.14-1.98,9.12v19.32c0,4.07.67,7.15,2,9.23,1.33,2.08,3.23,3.12,5.68,3.12m-.09-61.61c-8.58,0-15.62,2.87-20.91,8.53-5.19,5.55-7.82,13.1-7.82,22.45v17.34c0,9.36,2.65,16.92,7.88,22.47,5.32,5.65,12.37,8.51,20.94,8.51s15.53-2.86,20.85-8.51c5.23-5.55,7.88-13.11,7.88-22.47v-17.34c0-9.33-2.67-16.89-7.93-22.45-5.35-5.66-12.38-8.53-20.89-8.53h0Zm-.28,23.7s.11-.02.28-.02c.2,0,.28.03.29.03,0,0,.12.08.32.39.32.49,1.07,2.06,1.07,5.85v19.32c0,3.93-.74,5.5-1.05,6-.14.21-.24.31-.27.34,0,0,0,0,0,0-.01,0-.1.02-.27.02-.27,0-.37-.04-.38-.04,0,0-.1-.07-.25-.31-.32-.5-1.05-2.07-1.05-6v-19.32c0-3.83.74-5.42,1.06-5.93.12-.2.22-.29.25-.32,0,0,0,0,0,0h0Z"/>
              </g>
            </g>
          </g>
          <g>
            <rect class="cls-1" x="31.51" y="25.48" width="81.27" height="81.27" rx="21.11" ry="21.11"/>
            <path class="cls-2" d="m91.68,29.99c9.15,0,16.59,7.44,16.59,16.59v39.06c0,9.15-7.44,16.59-16.59,16.59h-39.06c-9.15,0-16.59-7.44-16.59-16.59v-39.06c0-9.15,7.44-16.59,16.59-16.59h39.06m0-9.03h-39.06c-14.15,0-25.62,11.47-25.62,25.62v39.06c0,14.15,11.47,25.62,25.62,25.62h39.06c14.15,0,25.62-11.47,25.62-25.62v-39.06c0-14.15-11.47-25.62-25.62-25.62h0Z"/>
          </g>
          <path class="cls-5" d="m58.12,78v-27.41c0-3.51,3.71-5.76,6.8-4.13l25.91,13.71c3.3,1.75,3.3,6.5,0,8.25l-25.91,13.71c-3.09,1.63-6.8-.62-6.8-4.13Z"/>
        </g>
      </g>
    </g>
  </g>
</svg>