<?xml version="1.0" encoding="UTF-8"?>
<svg id="Layer_2" data-name="Layer 2" xmlns="http://www.w3.org/2000/svg" viewBox="0 0 1256.23 1728.66">
  <defs>
    <style>
      .cls-1, .cls-2, .cls-3 {
        stroke-width: 0px;
      }

      .cls-2 {
        fill: #fff;
      }

      .cls-3 {
        fill: #fff8ea;
      }
    </style>
  </defs>
  <g id="Shop">
    <g id="Games">
      <g id="Pop_Up">
        <g>
          <rect class="cls-3" x="36" y="36" width="1184.23" height="1656.66" rx="79.44" ry="79.44"/>
          <path class="cls-1" d="m1140.79,48c37.19,0,67.44,30.25,67.44,67.44v1497.78c0,37.19-30.25,67.44-67.44,67.44H115.44c-37.19,0-67.44-30.25-67.44-67.44V115.44c0-37.19,30.25-67.44,67.44-67.44h1025.35m0-24H115.44c-50.5,0-91.44,40.94-91.44,91.44v1497.78c0,50.5,40.94,91.44,91.44,91.44h1025.35c50.5,0,91.44-40.94,91.44-91.44V115.44c0-50.5-40.94-91.44-91.44-91.44h0Z"/>
          <path class="cls-2" d="m1140.79,24c50.5,0,91.44,40.94,91.44,91.44v1497.78c0,50.5-40.94,91.44-91.44,91.44H115.44c-50.5,0-91.44-40.94-91.44-91.44V115.44c0-50.5,40.94-91.44,91.44-91.44h1025.35m0-24H115.44c-30.84,0-59.82,12.01-81.63,33.81C12.01,55.62,0,84.6,0,115.44v1497.78c0,30.83,12.01,59.82,33.81,81.63,21.8,21.8,50.79,33.81,81.63,33.81h1025.35c30.83,0,59.82-12.01,81.63-33.81,21.8-21.8,33.81-50.79,33.81-81.63V115.44c0-30.84-12.01-59.82-33.81-81.63-21.8-21.8-50.79-33.81-81.63-33.81h0Z"/>
        </g>
      </g>
    </g>
  </g>
</svg>