<?xml version="1.0" encoding="UTF-8"?>
<svg id="Layer_2" data-name="Layer 2" xmlns="http://www.w3.org/2000/svg" viewBox="0 0 211.79 211.79">
  <defs>
    <style>
      .cls-1, .cls-2 {
        stroke-width: 0px;
      }

      .cls-2, .cls-3 {
        fill: #ff5c5c;
      }

      .cls-3 {
        stroke: #000;
        stroke-linecap: round;
        stroke-miterlimit: 10;
        stroke-width: 27.35px;
      }
    </style>
  </defs>
  <g id="Shop">
    <g id="Games">
      <g id="Pop_Up">
        <g id="Cross">
          <g>
            <rect class="cls-2" x="19.9" y="19.9" width="181.99" height="181.99" rx="30.4" ry="30.4"/>
            <path class="cls-1" d="m171.49,29.81c11.3,0,20.5,9.2,20.5,20.5v121.18c0,11.3-9.2,20.5-20.5,20.5H50.31c-11.3,0-20.5-9.2-20.5-20.5V50.31c0-11.3,9.2-20.5,20.5-20.5h121.18m0-19.81H50.31c-22.26,0-40.31,18.05-40.31,40.31v121.18c0,22.26,18.05,40.31,40.31,40.31h121.18c22.26,0,40.31-18.05,40.31-40.31V50.31c0-22.26-18.05-40.31-40.31-40.31h0Z"/>
          </g>
          <g>
            <rect class="cls-2" x="9.9" y="9.9" width="181.99" height="181.99" rx="30.4" ry="30.4"/>
            <path class="cls-1" d="m161.49,19.81c11.3,0,20.5,9.2,20.5,20.5v121.18c0,11.3-9.2,20.5-20.5,20.5H40.31c-11.3,0-20.5-9.2-20.5-20.5V40.31c0-11.3,9.2-20.5,20.5-20.5h121.18m0-19.81H40.31C18.05,0,0,18.05,0,40.31v121.18c0,22.26,18.05,40.31,40.31,40.31h121.18c22.26,0,40.31-18.05,40.31-40.31V40.31c0-22.26-18.05-40.31-40.31-40.31h0Z"/>
          </g>
          <line class="cls-3" x1="59.69" y1="138.52" x2="139.73" y2="58.48"/>
          <line class="cls-3" x1="61.3" y1="61.1" x2="139.85" y2="139.65"/>
        </g>
      </g>
    </g>
  </g>
</svg>