<?xml version="1.0" encoding="UTF-8"?>
<svg id="Layer_2" data-name="Layer 2" xmlns="http://www.w3.org/2000/svg" viewBox="0 0 356 356">
  <defs>
    <style>
      .cls-1, .cls-2, .cls-3 {
        stroke-width: 0px;
      }

      .cls-2 {
        fill: #7a7a7a;
      }

      .cls-3 {
        fill: #3d3d3d;
      }
    </style>
  </defs>
  <g id="Shop">
    <g id="Games">
      <g id="Shop-2" data-name="Shop">
        <g id="Unlocks">
          <g id="Base">
            <g id="Locked">
              <g id="Squares">
                <g id="SQ_02">
                  <g>
                    <path class="cls-3" d="m64.43,25.73h227.14c21.36,0,38.7,17.34,38.7,38.7v227.14c0,21.36-17.34,38.7-38.7,38.7H64.43c-21.36,0-38.7-17.34-38.7-38.7V64.43c0-21.36,17.34-38.7,38.7-38.7Z"/>
                    <path class="cls-1" d="m291.57,33.45c17.08,0,30.98,13.9,30.98,30.98v227.14c0,17.08-13.9,30.98-30.98,30.98H64.43c-17.08,0-30.98-13.9-30.98-30.98V64.43c0-17.08,13.9-30.98,30.98-30.98h227.14m0-15.45H64.43c-25.64,0-46.43,20.79-46.43,46.43v227.14c0,25.64,20.79,46.43,46.43,46.43h227.14c25.64,0,46.43-20.79,46.43-46.43V64.43c0-25.64-20.79-46.43-46.43-46.43h0Z"/>
                    <path class="cls-2" d="m291.57,18c25.64,0,46.43,20.79,46.43,46.43v227.14c0,25.64-20.79,46.43-46.43,46.43H64.43c-25.64,0-46.43-20.79-46.43-46.43V64.43c0-25.64,20.79-46.43,46.43-46.43h227.14m0-18H64.43C28.9,0,0,28.9,0,64.43v227.14c0,35.53,28.9,64.43,64.43,64.43h227.14c35.53,0,64.43-28.9,64.43-64.43V64.43c0-35.53-28.9-64.43-64.43-64.43h0Z"/>
                  </g>
                </g>
              </g>
            </g>
          </g>
        </g>
      </g>
    </g>
  </g>
</svg>