<?xml version="1.0" encoding="UTF-8"?>
<svg id="Layer_2" data-name="Layer 2" xmlns="http://www.w3.org/2000/svg" viewBox="0 0 106.16 106.16">
  <defs>
    <style>
      .cls-1, .cls-2 {
        stroke-width: 0px;
      }

      .cls-2 {
        fill: #9ff3fc;
      }

      .cls-3 {
        fill: #fff;
        stroke: #000;
        stroke-miterlimit: 10;
        stroke-width: 3.47px;
      }
    </style>
  </defs>
  <g id="Shop">
    <g id="Games">
      <g id="Shop-2" data-name="Shop">
        <g id="Unlocks">
          <g id="Objectives">
            <g id="OBJ_1">
              <g>
                <path class="cls-2" d="m30.12,5.31h45.92c13.69,0,24.81,11.12,24.81,24.81v45.92c0,13.69-11.12,24.81-24.81,24.81H30.12c-13.69,0-24.81-11.12-24.81-24.81V30.12c0-13.69,11.12-24.81,24.81-24.81Z"/>
                <path class="cls-1" d="m76.04,10.62c10.75,0,19.5,8.75,19.5,19.5v45.92c0,10.75-8.75,19.5-19.5,19.5H30.12c-10.75,0-19.5-8.75-19.5-19.5V30.12c0-10.75,8.75-19.5,19.5-19.5h45.92m0-10.62H30.12C13.48,0,0,13.48,0,30.12v45.92c0,16.63,13.48,30.12,30.12,30.12h45.92c16.63,0,30.12-13.48,30.12-30.12V30.12c0-16.63-13.48-30.12-30.12-30.12h0Z"/>
              </g>
              <path class="cls-3" d="m58.1,34.92h-9.16c-1.12,0-2.03-.91-2.03-2.03v-7.38c0-1.12.91-2.03,2.03-2.03h9.16c1.12,0,2.03.91,2.03,2.03v7.38c0,1.12-.91,2.03-2.03,2.03Zm0,49.37h-9.16c-1.12,0-2.03-.91-2.03-2.03v-38.12c0-1.12.91-2.03,2.03-2.03h9.16c1.12,0,2.03.91,2.03,2.03v38.12c0,1.12-.91,2.03-2.03,2.03Z"/>
            </g>
          </g>
        </g>
      </g>
    </g>
  </g>
</svg>