<?xml version="1.0" encoding="UTF-8"?>
<svg id="Layer_2" data-name="Layer 2" xmlns="http://www.w3.org/2000/svg" viewBox="0 0 88.56 138.62">
  <defs>
    <style>
      .cls-1 {
        fill: #fff;
        stroke-width: 0px;
      }
    </style>
  </defs>
  <g id="Shop">
    <g id="Games">
      <g id="Shop-2" data-name="Shop">
        <g id="Unlocks">
          <g id="Base">
            <g id="Locked">
              <g id="Squares">
                <g id="SQ_02">
                  <path class="cls-1" d="m45.43.02c-11.95-.38-23.53,4.22-31.96,12.71C4.73,20.88-.16,32.34,0,44.3c0,5.32,4.31,9.63,9.63,9.63s9.63-4.31,9.63-9.63c-.01-6.83,2.77-13.37,7.7-18.1,4.78-4.76,11.36-7.28,18.1-6.93,13.82.27,24.8,11.7,24.53,25.52-.24,11.96-8.9,22.07-20.68,24.15-8.29,1.34-14.35,8.54-14.25,16.94v12.32c0,5.32,4.31,9.63,9.63,9.63s9.63-4.31,9.63-9.63v-10.78c20.56-4.72,35-23.19,34.65-44.28C87.58,19.75,68.83,1,45.43.02Z"/>
                  <circle class="cls-1" cx="44.28" cy="129" r="9.63"/>
                </g>
              </g>
            </g>
          </g>
        </g>
      </g>
    </g>
  </g>
</svg>