<?xml version="1.0" encoding="UTF-8"?>
<svg id="Layer_2" data-name="Layer 2" xmlns="http://www.w3.org/2000/svg" viewBox="0 0 106.16 106.16">
  <defs>
    <style>
      .cls-1 {
        fill: #a1e89b;
      }

      .cls-1, .cls-2 {
        stroke-width: 0px;
      }

      .cls-3 {
        fill: none;
        stroke: #000;
        stroke-linecap: round;
        stroke-miterlimit: 10;
        stroke-width: 10.62px;
      }
    </style>
  </defs>
  <g id="Shop">
    <g id="Games">
      <g id="Shop-2" data-name="Shop">
        <g id="Unlocks">
          <g id="Base">
            <g id="Selected">
              <g>
                <rect class="cls-1" x="5.31" y="5.31" width="95.54" height="95.54" rx="24.81" ry="24.81"/>
                <path class="cls-2" d="m76.04,10.62c10.75,0,19.5,8.75,19.5,19.5v45.92c0,10.75-8.75,19.5-19.5,19.5H30.12c-10.75,0-19.5-8.75-19.5-19.5V30.12c0-10.75,8.75-19.5,19.5-19.5h45.92m0-10.62H30.12C13.48,0,0,13.48,0,30.12v45.92c0,16.63,13.48,30.12,30.12,30.12h45.92c16.63,0,30.12-13.48,30.12-30.12V30.12c0-16.63-13.48-30.12-30.12-30.12h0Z"/>
              </g>
              <path class="cls-3" d="m26.07,57.07l16.74,14.35c.12.11.31.1.42-.02l36.86-36.86"/>
            </g>
          </g>
        </g>
      </g>
    </g>
  </g>
</svg>