<?xml version="1.0" encoding="UTF-8"?>
<svg id="Layer_2" data-name="Layer 2" xmlns="http://www.w3.org/2000/svg" viewBox="0 0 747.93 241.14">
  <defs>
    <style>
      .cls-1, .cls-2, .cls-3, .cls-4 {
        stroke-width: 0px;
      }

      .cls-2 {
        fill: #fffebd;
      }

      .cls-3 {
        fill: #fff;
      }

      .cls-4 {
        fill: #fcc751;
      }
    </style>
  </defs>
  <g id="Shop">
    <g id="Games">
      <g id="Player_Coins" data-name="Player Coins">
        <g id="Spinning_Wheel" data-name="Spinning Wheel">
          <g>
            <path class="cls-4" d="m71.8,232.65c-28.66,0-51.98-23.32-51.98-51.98v-108.87c0-28.66,23.32-51.98,51.98-51.98h615.66c28.66,0,51.98,23.32,51.98,51.98v108.87c0,28.66-23.32,51.98-51.98,51.98H71.8Z"/>
            <path class="cls-1" d="m687.46,28.3c23.99,0,43.5,19.52,43.5,43.5v108.87c0,11.62-4.53,22.54-12.74,30.76-8.22,8.22-19.14,12.74-30.76,12.74H71.8c-23.99,0-43.5-19.52-43.5-43.5v-108.87c0-23.99,19.52-43.5,43.5-43.5h615.66m0-16.96H71.8c-33.39,0-60.47,27.07-60.47,60.47v108.87c0,33.39,27.07,60.47,60.47,60.47h615.66c33.39,0,60.47-27.07,60.47-60.47v-108.87c0-33.39-27.07-60.47-60.47-60.47h0Z"/>
          </g>
          <g>
            <path class="cls-4" d="m60.47,221.32c-28.66,0-51.98-23.32-51.98-51.98V60.47c0-28.66,23.32-51.98,51.98-51.98h615.66c28.67,0,51.99,23.32,51.99,51.98v108.87c0,28.66-23.32,51.98-51.99,51.98H60.47Z"/>
            <path class="cls-1" d="m676.12,16.96c23.99,0,43.5,19.52,43.5,43.5v108.87c0,11.62-4.53,22.54-12.74,30.76-8.22,8.22-19.14,12.74-30.76,12.74H60.47c-23.99,0-43.5-19.52-43.5-43.5V60.47c0-23.99,19.52-43.5,43.5-43.5h615.66m0-16.96H60.47C27.07,0,0,27.07,0,60.47v108.87c0,33.39,27.07,60.47,60.47,60.47h615.66c33.39,0,60.47-27.07,60.47-60.47V60.47c0-33.39-27.07-60.47-60.47-60.47h0Z"/>
          </g>
          <g id="Wheel">
            <g>
              <circle class="cls-4" cx="125.39" cy="115.08" r="72.24" transform="translate(-15.42 210.67) rotate(-76.72)"/>
              <path class="cls-1" d="m125.39,49.19c36.39,0,65.88,29.5,65.88,65.88s-29.5,65.88-65.88,65.88-65.88-29.5-65.88-65.88,29.5-65.88,65.88-65.88m0-12.71c-43.34,0-78.6,35.26-78.6,78.6s35.26,78.6,78.6,78.6,78.6-35.26,78.6-78.6-35.26-78.6-78.6-78.6h0Z"/>
            </g>
            <g>
              <g>
                <path class="cls-2" d="m100.71,50.38c7.93-3.03,16.24-4.57,24.72-4.57s17.53,1.69,25.79,5.01l-25.73,60.75-24.78-61.19Z"/>
                <path class="cls-1" d="m125.43,47.08c8.26,0,16.36,1.49,24.1,4.45l-24.01,56.7-23.13-57.12c7.42-2.68,15.16-4.03,23.04-4.03m0-2.55c-9.11,0-18.06,1.77-26.38,5.13l26.42,65.24,27.43-64.77c-8.97-3.8-18.3-5.6-27.47-5.6h0Z"/>
              </g>
              <g>
                <path class="cls-4" d="m153.57,51.82c16.03,7.13,28.56,19.83,35.46,35.97l-61.19,24.78,25.73-60.75Z"/>
                <path class="cls-1" d="m154.23,53.52c14.78,6.91,26.4,18.7,33.1,33.57l-57.12,23.13,24.01-56.7m-1.34-3.39l-27.43,64.77,65.24-26.42c-6.79-16.68-19.92-30.77-37.81-38.35h0Z"/>
              </g>
              <g>
                <path class="cls-2" d="m128.8,114.93l61.2-24.78c6.34,16.4,6.24,34.26-.28,50.58l-60.91-25.8Z"/>
                <path class="cls-1" d="m189.26,91.82c5.6,15.35,5.51,31.93-.26,47.22l-56.87-24.08,57.13-23.13m1.45-3.34l-65.24,26.42,64.94,27.5c7.54-17.93,7.11-37.22.3-53.92h0Z"/>
              </g>
              <g>
                <path class="cls-2" d="m60.69,139.76c-6.29-16.45-6.1-34.36.52-50.68l60.92,25.8-61.44,24.88Z"/>
                <path class="cls-1" d="m61.91,90.76l56.88,24.09-57.37,23.23c-5.56-15.41-5.39-32.03.49-47.32m-1.39-3.36c-.03.06-.05.11-.08.17-7.58,17.89-7.2,37.15-.48,53.85l65.49-26.52h0s-64.94-27.5-64.94-27.5h0Z"/>
              </g>
              <g>
                <path class="cls-4" d="m62.21,86.73c7.19-16.04,19.95-28.54,36.13-35.4l24.78,61.2-60.91-25.8Z"/>
                <path class="cls-1" d="m97.65,53.02l23.13,57.13-56.87-24.08c6.96-14.78,18.81-26.39,33.73-33.04m1.39-3.36c-16.73,6.74-30.89,19.85-38.52,37.74l64.94,27.5-26.42-65.24h0Z"/>
              </g>
              <g>
                <path class="cls-2" d="m125.35,184.34c-8.86,0-17.53-1.69-25.79-5.01l25.88-61.1,24.88,61.45c-8.01,3.09-16.4,4.66-24.97,4.66h0Z"/>
                <path class="cls-1" d="m125.41,121.57l23.24,57.38c-7.49,2.74-15.32,4.12-23.29,4.12s-16.36-1.49-24.1-4.45l24.16-57.05m.05-6.67h0s-27.58,65.12-27.58,65.12c8.97,3.8,18.3,5.6,27.47,5.6s18.24-1.81,26.63-5.23l-26.52-65.49h0Z"/>
              </g>
              <g>
                <path class="cls-4" d="m127.8,117.28l60.92,25.8c-7.14,16.14-19.86,28.71-36.04,35.64l-24.88-61.44Z"/>
                <path class="cls-1" d="m130.14,119.65l56.88,24.09c-6.9,14.86-18.72,26.55-33.65,33.28l-23.23-57.37m-4.68-4.75l26.52,65.49c16.68-6.79,30.77-19.92,38.35-37.81.02-.06.05-.12.07-.18l-64.94-27.5h0Z"/>
              </g>
              <g>
                <path class="cls-4" d="m97.21,178.34c-16.12-7.17-28.68-19.96-35.57-36.21l61.45-24.88-25.88,61.1Z"/>
                <path class="cls-1" d="m120.71,119.58l-24.16,57.05c-14.87-6.95-26.53-18.82-33.21-33.82l57.38-23.24m4.75-4.68l-65.49,26.52c6.76,16.78,19.93,30.98,37.91,38.6l27.58-65.12h0Z"/>
              </g>
            </g>
            <g>
              <path class="cls-4" d="m125.39,130.75c-8.64,0-15.67-7.03-15.67-15.67,0-7.09,9.87-22.19,12.89-26.65.63-.93,1.67-1.47,2.78-1.47s2.15.55,2.78,1.48c3.02,4.45,12.89,19.55,12.89,26.64,0,8.64-7.03,15.67-15.67,15.67Z"/>
              <path class="cls-1" d="m125.39,90.14c.06,0,.11.03.15.08,1.4,2.06,12.34,18.4,12.34,24.86,0,6.9-5.59,12.49-12.49,12.49s-12.49-5.59-12.49-12.49c0-6.46,10.95-22.8,12.34-24.86.04-.05.09-.08.15-.08m0-6.36c-2.17,0-4.19,1.07-5.41,2.87-5.02,7.4-13.44,20.93-13.44,28.43,0,10.39,8.45,18.85,18.85,18.85s18.85-8.45,18.85-18.85c0-7.5-8.42-21.03-13.44-28.43-1.22-1.79-3.24-2.87-5.41-2.87h0Z"/>
            </g>
          </g>
          <g>
            <g>
              <path class="cls-3" d="m253.91,154.82c-2.61,0-4.73-2.12-4.73-4.73v-49h-12.25c-2.61,0-4.73-2.12-4.73-4.73v-8.23c0-2.61,2.12-4.73,4.73-4.73h46.01c2.61,0,4.73,2.12,4.73,4.73v8.23c0,2.61-2.12,4.73-4.73,4.73h-12.57v49c0,2.61-2.12,4.73-4.73,4.73h-11.73Z"/>
              <path class="cls-1" d="m282.93,86.42c.95,0,1.73.77,1.73,1.73v8.23c0,.95-.77,1.73-1.73,1.73h-13.84c-.95,0-1.73.77-1.73,1.73v50.28c0,.95-.77,1.73-1.73,1.73h-11.73c-.95,0-1.73-.77-1.73-1.73v-50.28c0-.95-.77-1.73-1.73-1.73h-13.53c-.95,0-1.73-.77-1.73-1.73v-8.23c0-.95.77-1.73,1.73-1.73h46.01m0-6h-46.01c-4.26,0-7.73,3.47-7.73,7.73v8.23c0,4.26,3.47,7.73,7.73,7.73h9.26v46c0,4.26,3.47,7.73,7.73,7.73h11.73c4.26,0,7.73-3.47,7.73-7.73v-46h9.57c4.26,0,7.73-3.47,7.73-7.73v-8.23c0-4.26-3.47-7.73-7.73-7.73h0Z"/>
            </g>
            <g>
              <path class="cls-3" d="m327.39,154.82c-1.37,0-2.66-.58-3.56-1.6-1.23-1.4-2.05-3.37-2.43-5.84-.38-2.48-.57-4.85-.57-7.06v-3.95c0-2.31-.52-3.95-1.59-5.02s-2.78-1.59-5.11-1.59h-5.13v20.34c0,2.61-2.12,4.73-4.73,4.73h-11.73c-2.61,0-4.73-2.12-4.73-4.73v-61.96c0-2.61,2.12-4.73,4.73-4.73h21.05c8.23,0,14.92,1.99,19.87,5.9,5.17,4.09,7.79,9.71,7.79,16.73,0,4.02-1.09,7.55-3.25,10.49-1.01,1.38-2.26,2.64-3.72,3.77,1.89,1.2,3.42,2.68,4.57,4.41,2.07,3.14,3.13,7.03,3.13,11.56v4.13c0,1.47.23,3.21.69,5.16.33,1.44.86,2.46,1.51,2.94l1.22.9v5.41h-17.99Zm-13.71-42.75c2.3,0,4-.46,5.05-1.36.59-.51,1.38-1.45,1.38-3.72,0-1.87-.51-3.24-1.6-4.31-1.09-1.07-2.7-1.59-4.93-1.59h-4.59v10.98h4.68Z"/>
              <path class="cls-1" d="m313.59,86.42c7.58,0,13.58,1.75,18.01,5.26,4.43,3.5,6.65,8.3,6.65,14.38,0,3.38-.89,6.29-2.67,8.71-1.18,1.61-2.74,3.02-4.66,4.23-1.14.72-.98,2.4.22,2.99,2.27,1.11,4,2.57,5.2,4.39,1.75,2.65,2.63,5.95,2.63,9.91v4.13c0,1.71.25,3.65.76,5.84.51,2.19,1.39,3.74,2.65,4.67v.9h-14.99c-.5,0-.98-.21-1.3-.58-.85-.97-1.42-2.41-1.72-4.31-.36-2.34-.54-4.54-.54-6.6v-3.95c0-3.11-.82-5.5-2.47-7.14-1.65-1.65-4.06-2.47-7.23-2.47h-6.41c-.95,0-1.73.77-1.73,1.73v21.62c0,.95-.77,1.73-1.73,1.73h-11.73c-.95,0-1.73-.77-1.73-1.73v-61.96c0-.95.77-1.73,1.73-1.73h21.05m-5.87,28.66h5.96c3.05,0,5.39-.7,7.01-2.09,1.62-1.39,2.43-3.39,2.43-6s-.83-4.81-2.49-6.45c-1.66-1.63-4.01-2.45-7.03-2.45h-5.87c-.95,0-1.73.77-1.73,1.73v13.53c0,.95.77,1.73,1.73,1.73m5.87-34.66h-21.05c-4.26,0-7.73,3.47-7.73,7.73v61.96c0,4.26,3.47,7.73,7.73,7.73h11.73c4.26,0,7.73-3.47,7.73-7.73v-17.34h2.13c1.45,0,2.54.26,2.99.71.62.62.71,2.08.71,2.9v3.95c0,2.36.2,4.89.61,7.52.47,3.05,1.53,5.53,3.14,7.37,1.46,1.66,3.58,2.62,5.81,2.62h20.99v-9.93l-2.35-1.73c-.07-.11-.27-.46-.46-1.27-.4-1.73-.61-3.24-.61-4.48v-4.13c0-5.13-1.22-9.58-3.62-13.21-.7-1.06-1.52-2.04-2.44-2.93.54-.58,1.04-1.19,1.51-1.82,2.55-3.47,3.84-7.6,3.84-12.27,0-7.87-3.09-14.46-8.93-19.08-5.5-4.35-12.81-6.55-21.73-6.55h0Zm-1.59,23.68h1.59c.95,0,2.21.13,2.83.73.23.22.7.68.7,2.16,0,.43-.04,1.2-.34,1.45-.36.31-1.36.64-3.09.64h-1.68v-4.98h0Z"/>
            </g>
            <g>
              <path class="cls-3" d="m365.45,154.82c-2.61,0-4.73-2.12-4.73-4.73v-21.21l-20.17-38.56c-.77-1.48-.72-3.21.15-4.64.86-1.43,2.38-2.28,4.04-2.28h12.48c1.85,0,3.54,1.09,4.3,2.77l9.93,21.85,9.97-21.86c.77-1.68,2.45-2.76,4.3-2.76h12.48c1.67,0,3.18.85,4.04,2.28.86,1.43.92,3.16.14,4.64l-20.53,39.23v20.54c0,2.61-2.12,4.73-4.73,4.73h-11.69Z"/>
              <path class="cls-1" d="m398.2,86.42c1.3,0,2.13,1.38,1.53,2.53l-20.67,39.51c-.13.25-.2.52-.2.8v20.85c0,.95-.77,1.73-1.73,1.73h-11.69c-.95,0-1.73-.77-1.73-1.73v-21.52c0-.28-.07-.55-.2-.8l-20.31-38.83c-.6-1.15.23-2.53,1.53-2.53h12.48c.68,0,1.29.4,1.57,1.01l12.52,27.56h.27l12.57-27.56c.28-.61.89-1.01,1.57-1.01h12.48m0-6h-12.48c-3.02,0-5.78,1.77-7.03,4.52l-7.23,15.86-7.2-15.85c-1.25-2.75-4.01-4.53-7.03-4.53h-12.48c-2.73,0-5.2,1.39-6.61,3.72-1.41,2.33-1.5,5.17-.24,7.58l19.83,37.9v20.47c0,4.26,3.47,7.73,7.73,7.73h11.69c4.26,0,7.73-3.47,7.73-7.73v-19.8l20.19-38.57c1.26-2.42,1.18-5.25-.24-7.58s-3.88-3.72-6.61-3.72h0Z"/>
            </g>
            <g>
              <path class="cls-3" d="m430.68,154.82c-2.61,0-4.73-2.12-4.73-4.73v-61.96c0-2.61,2.12-4.73,4.73-4.73h11.73c2.61,0,4.73,2.12,4.73,4.73v49h23.35c2.61,0,4.73,2.12,4.73,4.73v8.23c0,2.61-2.12,4.73-4.73,4.73h-39.81Z"/>
              <path class="cls-1" d="m442.41,86.42c.95,0,1.73.77,1.73,1.73v50.28c0,.95.77,1.73,1.73,1.73h24.63c.95,0,1.73.77,1.73,1.73v8.23c0,.95-.77,1.73-1.73,1.73h-39.81c-.95,0-1.73-.77-1.73-1.73v-61.96c0-.95.77-1.73,1.73-1.73h11.73m0-6h-11.73c-4.26,0-7.73,3.47-7.73,7.73v61.96c0,4.26,3.47,7.73,7.73,7.73h39.81c4.26,0,7.73-3.47,7.73-7.73v-8.23c0-4.26-3.47-7.73-7.73-7.73h-20.35v-46c0-4.26-3.47-7.73-7.73-7.73h0Z"/>
            </g>
            <g>
              <path class="cls-3" d="m505.95,155.77c-8.75,0-15.99-2.38-21.53-7.07-5.68-4.81-8.56-11.5-8.56-19.88v-40.68c0-2.61,2.12-4.73,4.73-4.73h11.78c2.61,0,4.73,2.12,4.73,4.73v40.68c0,3.19.76,5.56,2.25,7.03,1.53,1.5,3.69,2.24,6.61,2.24s5-.72,6.48-2.2c1.46-1.46,2.2-3.84,2.2-7.07v-40.68c0-2.61,2.12-4.73,4.73-4.73h11.78c2.61,0,4.73,2.12,4.73,4.73v40.68c0,8.37-2.86,15.06-8.51,19.87-5.51,4.69-12.71,7.07-21.4,7.07Z"/>
              <path class="cls-1" d="m531.13,86.42c.95,0,1.73.77,1.73,1.73v40.68c0,7.49-2.49,13.35-7.46,17.59-4.97,4.24-11.46,6.36-19.45,6.36s-14.58-2.12-19.59-6.36c-5-4.24-7.5-10.1-7.5-17.59v-40.68c0-.95.77-1.73,1.73-1.73h11.78c.95,0,1.73.77,1.73,1.73v40.68c0,4.04,1.05,7.1,3.14,9.16,2.1,2.07,5,3.1,8.71,3.1s6.55-1.03,8.6-3.08c2.05-2.05,3.08-5.11,3.08-9.19v-40.68c0-.95.77-1.73,1.73-1.73h11.78m0-6h-11.78c-4.26,0-7.73,3.47-7.73,7.73v40.68c0,1.65-.23,3.85-1.32,4.94-.33.33-1.32,1.32-4.36,1.32s-4.16-1.03-4.5-1.37c-1.12-1.11-1.36-3.27-1.36-4.89v-40.68c0-4.26-3.47-7.73-7.73-7.73h-11.78c-4.26,0-7.73,3.47-7.73,7.73v40.68c0,9.3,3.24,16.76,9.62,22.17,6.09,5.16,13.98,7.78,23.46,7.78s17.28-2.62,23.34-7.79c6.35-5.41,9.56-12.86,9.56-22.15v-40.68c0-4.26-3.47-7.73-7.73-7.73h0Z"/>
            </g>
            <g>
              <path class="cls-3" d="m568.52,155.77c-8.88,0-16.15-2.79-21.6-8.3-5.45-5.5-8.21-12.74-8.21-21.52v-13.66c0-8.72,2.66-15.94,7.9-21.45,5.28-5.55,12.31-8.37,20.88-8.37s16.12,2.19,21.19,6.51c5.23,4.45,7.81,10.91,7.68,19.18v.68s-1.28,2.54-1.28,2.54h-14.97c-2.48,0-4.55-1.95-4.71-4.44-.16-2.38-.73-4.14-1.66-5.09-1.1-1.12-3.26-1.71-6.26-1.71-2.4,0-4.1.88-5.37,2.77-1.48,2.23-2.24,5.35-2.24,9.27v13.75c0,3.91.82,7.02,2.43,9.24,1.44,1.98,3.41,2.9,6.2,2.9,2.56,0,4.34-.54,5.28-1.6.59-.67,1.33-2.12,1.52-5.25.14-2.51,2.21-4.47,4.71-4.47h15.27l.92,2.76v.46c.14,8.34-2.32,14.81-7.31,19.25-4.87,4.33-11.73,6.53-20.39,6.53Z"/>
              <path class="cls-1" d="m567.49,85.47c8.29,0,14.71,1.93,19.25,5.79,4.54,3.86,6.75,9.48,6.63,16.85l-.13.27h-13.11c-.91,0-1.66-.72-1.72-1.63-.21-3.17-1.04-5.5-2.51-6.99-1.71-1.74-4.51-2.61-8.4-2.61-3.41,0-6.04,1.37-7.86,4.11-1.83,2.74-2.74,6.39-2.74,10.94v13.75c0,4.58,1,8.25,3.01,11.01,2.01,2.76,4.88,4.13,8.62,4.13,3.47,0,5.98-.87,7.52-2.61,1.33-1.49,2.08-3.85,2.27-7.07.05-.92.8-1.64,1.72-1.64h13.11l.09.27c.12,7.46-1.98,13.11-6.31,16.96-4.33,3.85-10.46,5.77-18.4,5.77s-14.58-2.47-19.47-7.41c-4.9-4.94-7.34-11.41-7.34-19.41v-13.66c0-7.97,2.36-14.43,7.08-19.38,4.72-4.96,10.95-7.43,18.71-7.43m0-6c-9.43,0-17.18,3.13-23.06,9.3-5.79,6.09-8.73,14-8.73,23.52v13.66c0,9.6,3.06,17.55,9.08,23.63,6.04,6.1,14.03,9.19,23.74,9.19s16.94-2.45,22.38-7.29c5.67-5.04,8.47-12.29,8.32-21.54v-.92s-.31-.88-.31-.88l-.09-.27-1.37-4.1h-17.43c-4.09,0-7.47,3.21-7.71,7.3-.15,2.67-.76,3.43-.76,3.43-.15.16-.98.59-3.04.59-2.25,0-3.15-.8-3.77-1.66-1.24-1.7-1.86-4.21-1.86-7.48v-13.75c0-3.33.58-5.89,1.73-7.61.61-.91,1.27-1.44,2.87-1.44,3.29,0,4.09.78,4.12.81.02.03.64.68.8,3.18.27,4.06,3.65,7.24,7.71,7.24h16.82l1.66-3.32.13-.27.61-1.22.02-1.36c.15-9.21-2.79-16.45-8.74-21.51-5.63-4.8-13.42-7.23-23.14-7.23h0Z"/>
            </g>
            <g>
              <path class="cls-3" d="m637.08,154.82c-1.69,0-3.26-.91-4.1-2.37l-13.17-22.96v20.61c0,2.61-2.12,4.73-4.73,4.73h-11.73c-2.61,0-4.73-2.12-4.73-4.73v-61.96c0-2.61,2.12-4.73,4.73-4.73h11.73c2.61,0,4.73,2.12,4.73,4.73v18.13l11.83-20.49c.84-1.46,2.41-2.36,4.09-2.36h14.8c1.76,0,3.37.97,4.19,2.53s.7,3.43-.3,4.88l-17.58,25.41,19.62,31.35c.91,1.46.96,3.29.13,4.8s-2.42,2.44-4.13,2.44h-15.38Z"/>
              <path class="cls-1" d="m650.54,86.42c1.39,0,2.21,1.56,1.42,2.71l-18.06,26.1c-.39.57-.41,1.31-.04,1.9l20.07,32.06c.72,1.15-.11,2.64-1.46,2.64h-15.38c-.62,0-1.19-.33-1.5-.87l-14.05-24.5c-.31-.54-.88-.87-1.5-.87h-1.5c-.95,0-1.73.77-1.73,1.73v22.78c0,.95-.77,1.73-1.73,1.73h-11.73c-.95,0-1.73-.77-1.73-1.73v-61.96c0-.95.77-1.73,1.73-1.73h11.73c.95,0,1.73.77,1.73,1.73v22.15c0,.95.77,1.73,1.73,1.73h.42c.62,0,1.19-.33,1.49-.86l13.78-23.88c.31-.53.88-.86,1.49-.86h14.8m0-6h-14.8c-2.75,0-5.32,1.48-6.69,3.86l-6.23,10.79v-6.93c0-4.26-3.47-7.73-7.73-7.73h-11.73c-4.26,0-7.73,3.47-7.73,7.73v61.96c0,4.26,3.47,7.73,7.73,7.73h11.73c4.26,0,7.73-3.47,7.73-7.73v-9.35l7.57,13.2c1.37,2.39,3.94,3.88,6.7,3.88h15.38c2.81,0,5.4-1.53,6.76-3.98,1.36-2.46,1.28-5.46-.21-7.84l-18.58-29.68,16.45-23.78c1.64-2.37,1.83-5.43.49-7.98-1.34-2.55-3.96-4.14-6.84-4.14h0Z"/>
            </g>
            <g>
              <path class="cls-3" d="m675.28,154.82c-2.61,0-4.73-2.12-4.73-4.73v-9.26c0-2.61,2.12-4.73,4.73-4.73h11.78c2.61,0,4.72,2.12,4.72,4.73v9.26c0,2.61-2.12,4.73-4.72,4.73h-11.78Zm0-23.18c-2.61,0-4.73-2.12-4.73-4.73v-38.78c0-2.61,2.12-4.73,4.73-4.73h11.78c2.61,0,4.72,2.12,4.72,4.73v38.78c0,2.61-2.12,4.73-4.72,4.73h-11.78Z"/>
              <path class="cls-1" d="m687.06,86.42c.95,0,1.73.77,1.73,1.73v38.78c0,.95-.77,1.73-1.73,1.73h-11.78c-.95,0-1.73-.77-1.73-1.73v-38.78c0-.95.77-1.73,1.73-1.73h11.78m0,52.69c.95,0,1.73.77,1.73,1.73v9.26c0,.95-.77,1.73-1.73,1.73h-11.78c-.95,0-1.73-.77-1.73-1.73v-9.26c0-.95.77-1.73,1.73-1.73h11.78m0-58.69h-11.78c-4.26,0-7.73,3.47-7.73,7.73v38.78c0,3.06,1.79,5.71,4.37,6.96-2.58,1.25-4.37,3.9-4.37,6.96v9.26c0,4.26,3.47,7.73,7.73,7.73h11.78c4.26,0,7.73-3.47,7.73-7.73v-9.26c0-3.06-1.79-5.71-4.37-6.96,2.58-1.25,4.37-3.9,4.37-6.96v-38.78c0-4.26-3.47-7.73-7.73-7.73h0Z"/>
            </g>
          </g>
        </g>
      </g>
    </g>
  </g>
</svg>