<?xml version="1.0" encoding="UTF-8"?>
<svg id="Layer_2" data-name="Layer 2" xmlns="http://www.w3.org/2000/svg" xmlns:xlink="http://www.w3.org/1999/xlink" viewBox="0 0 946.83 552.04">
  <defs>
    <style>
      .cls-1 {
        stroke-width: 0px;
      }

      .cls-2 {
        filter: url(#drop-shadow-1);
      }
    </style>
    <filter id="drop-shadow-1" filterUnits="userSpaceOnUse">
      <feOffset dx="11.03" dy="11.03"/>
      <feGaussianBlur result="blur" stdDeviation="9.45"/>
      <feFlood flood-color="#000" flood-opacity="1"/>
      <feComposite in2="blur" operator="in"/>
      <feComposite in="SourceGraphic"/>
    </filter>
  </defs>
  <g id="Logo">
    <g id="Logo-2" data-name="Logo">
      <g id="loading_screen_text" class="cls-2">
        <path class="cls-1" d="m94.91,120.4c61.54,0,93.18,28.43,93.18,78.18h0c0,5.4-5.67,9.77-12.65,9.77h-34.51c-6.99,0-12.65-4.38-12.65-9.77v-3.11c0-22.21-11.5-30.65-31.64-30.65s-31.63,8.44-31.63,30.65c0,63.97,123.66,75.96,123.66,164.8,0,49.75-32.21,78.18-94.33,78.18S0,410.03,0,360.28v-9.33c0-5.4,5.67-9.77,12.65-9.77h34.51c6.99,0,12.65,4.38,12.65,9.77v12.44c0,22.21,12.65,30.21,32.79,30.21s32.79-8,32.79-30.21c0-63.97-123.66-75.96-123.66-164.8,0-49.75,31.63-78.18,93.18-78.18Z"/>
        <path class="cls-1" d="m272.63,0c6.99,0,12.65,5.37,12.65,12v334.85c0,27.27,12.65,37.09,32.79,37.09s32.79-9.82,32.79-37.09V12c0-6.63,5.67-12,12.65-12h34.51c6.99,0,12.65,5.37,12.65,12v331.03c0,61.09-32.21,96-94.33,96s-94.33-34.91-94.33-96V12c0-6.63,5.67-12,12.65-12h37.96Z"/>
        <path class="cls-1" d="m466.46,217.17h37.96c6.99,0,12.65,5.67,12.65,12.65v309.56c0,6.99-5.67,12.65-12.65,12.65h-37.96c-6.99,0-12.65-5.67-12.65-12.65V229.83c0-6.99,5.67-12.65,12.65-12.65Z"/>
        <path class="cls-1" d="m750.59,220.56v52.34c0,64.42-31.06,99.51-94.33,99.51h-17.25c-6.99,0-12.65,5.67-12.65,12.65v154.33c0,6.99-5.67,12.65-12.65,12.65h-37.96c-6.99,0-12.65-5.67-12.65-12.65V133.7c0-6.99,5.67-12.65,12.65-12.65h80.53c63.27,0,94.33,35.09,94.33,99.51Zm-124.24-29.33v111.01c0,6.99,5.67,12.65,12.65,12.65h17.25c20.13,0,31.06-9.2,31.06-37.96v-60.39c0-28.76-10.93-37.96-31.06-37.96h-17.25c-6.99,0-12.65,5.67-12.65,12.65Z"/>
        <path class="cls-1" d="m858.96,252.94h71.99c8.52,0,15.43,4.43,15.43,9.88v25.16c0,5.46-6.91,9.88-15.43,9.88h-71.99c-8.52,0-15.43,4.43-15.43,9.88v72.33c0,5.46,6.91,9.88,15.43,9.88h72.44c8.52,0,15.43,4.43,15.43,9.88v25.16c0,5.46-6.91,9.88-15.43,9.88h-128.45c-8.52,0-15.43-4.43-15.43-9.88V130.29c0-5.46,6.91-9.88,15.43-9.88h128.45c8.52,0,15.43,4.43,15.43,9.88v25.16c0,5.46-6.91,9.88-15.43,9.88h-72.44c-8.52,0-15.43,4.43-15.43,9.88v67.84c0,5.46,6.91,9.88,15.43,9.88Z"/>
      </g>
    </g>
  </g>
</svg>