<?xml version="1.0" encoding="UTF-8"?>
<svg id="Layer_2" data-name="Layer 2" xmlns="http://www.w3.org/2000/svg" viewBox="0 0 96.77 88.51">
  <defs>
    <style>
      .cls-1, .cls-2, .cls-3 {
        stroke-width: 0px;
      }

      .cls-2 {
        fill: #ccc;
      }

      .cls-3 {
        fill: #f2f2f2;
      }
    </style>
  </defs>
  <g id="Logo">
    <g id="Logo-2" data-name="Logo">
      <g id="loading_screen_bob">
        <g>
          <ellipse class="cls-3" cx="48.38" cy="44.26" rx="43.67" ry="39.55"/>
          <path class="cls-1" d="m48.38,9.42c21.52,0,38.96,15.6,38.96,34.84s-17.44,34.84-38.96,34.84S9.42,63.5,9.42,44.26,26.86,9.42,48.38,9.42m0-9.42C21.7,0,0,19.85,0,44.26s21.7,44.26,48.38,44.26,48.38-19.85,48.38-44.26S75.06,0,48.38,0h0Z"/>
        </g>
        <path class="cls-1" d="m61.74,24.05c0,1.61,1.7,2.87,3.58,2.87s3.23-.9,3.23-2.51c0-2.44-1.7-3.94-3.58-3.94-1.88,0-3.23,1.7-3.23,3.58Z"/>
        <path class="cls-1" d="m26.57,25.84c.27,1.59,2.17,2.53,4.02,2.21s3.03-1.43,2.75-3.02c-.42-2.4-2.35-3.59-4.2-3.27s-2.89,2.23-2.57,4.08Z"/>
        <path class="cls-1" d="m45.36,29.28c-4.39,0-7.03-1.96-7.21-2.1-.47-.36-.56-1.04-.2-1.51.36-.47,1.03-.56,1.5-.2.27.2,6.42,4.65,15.94-1.94.49-.34,1.16-.22,1.5.27.34.49.22,1.16-.27,1.5-4.42,3.06-8.25,3.98-11.26,3.98Z"/>
        <path class="cls-2" d="m78.51,22.17c2.46,4.57,3.83,9.68,3.83,15.09,0,19.24-17.44,34.84-38.96,34.84-12.14,0-22.98-4.97-30.13-12.75,6.29,11.68,19.66,19.75,35.13,19.75,21.52,0,38.96-15.6,38.96-34.84,0-8.38-3.31-16.08-8.83-22.09Z"/>
      </g>
    </g>
  </g>
</svg>