<?xml version="1.0" encoding="UTF-8"?>
<svg id="Layer_2" data-name="Layer 2" xmlns="http://www.w3.org/2000/svg" viewBox="0 0 914.67 836.5">
  <defs>
    <style>
      .cls-1, .cls-2, .cls-3 {
        stroke-width: 0px;
      }

      .cls-2 {
        fill: #ccc;
      }

      .cls-3 {
        fill: #f2f2f2;
      }
    </style>
  </defs>
  <g id="Cookie">
    <g id="bob_idle">
      <g>
        <g>
          <ellipse class="cls-3" cx="457.34" cy="418.25" rx="369.07" ry="329.99"/>
          <path class="cls-3" d="m457.34,88.26c203.83,0,369.07,147.74,369.07,329.99s-165.24,329.99-369.07,329.99S88.26,600.49,88.26,418.25,253.5,88.26,457.34,88.26m0-88.26c-60.53,0-119.37,10.64-174.88,31.64-54.14,20.48-102.9,49.91-144.92,87.48-42.73,38.21-76.39,82.93-100.05,132.94C12.61,304.63,0,360.55,0,418.25s12.61,113.62,37.48,166.19c23.66,50.01,57.32,94.74,100.05,132.94,42.02,37.57,90.78,67,144.92,87.48,55.51,20.99,114.35,31.64,174.88,31.64s119.37-10.64,174.88-31.64c54.14-20.48,102.9-49.91,144.92-87.48,42.73-38.21,76.39-82.93,100.05-132.94,24.87-52.57,37.48-108.49,37.48-166.19s-12.61-113.62-37.48-166.19c-23.66-50.01-57.32-94.74-100.05-132.94-42.02-37.57-90.78-67-144.92-87.48C576.7,10.64,517.86,0,457.34,0h0Z"/>
        </g>
        <path class="cls-2" d="m457.34,88.26c203.83,0,369.07,147.74,369.07,329.99s-165.24,329.99-369.07,329.99S88.26,600.49,88.26,418.25,253.5,88.26,457.34,88.26m0-47.53c-110.29,0-214.22,38.62-292.65,108.75-38.65,34.56-69.06,74.93-90.38,120-22.27,47.09-33.57,97.14-33.57,148.77s11.29,101.68,33.57,148.77c21.32,45.06,51.73,85.44,90.38,120,78.43,70.13,182.37,108.75,292.65,108.75s214.22-38.62,292.65-108.75c38.65-34.56,69.06-74.93,90.38-120,22.27-47.09,33.57-97.14,33.57-148.77s-11.29-101.68-33.57-148.77c-21.32-45.06-51.73-85.44-90.38-120-78.43-70.13-182.37-108.75-292.65-108.75h0Z"/>
      </g>
      <g>
        <ellipse class="cls-3" cx="457.34" cy="418.25" rx="369.07" ry="329.99"/>
        <path class="cls-1" d="m457.34,88.26c203.83,0,369.07,147.74,369.07,329.99s-165.24,329.99-369.07,329.99S88.26,600.49,88.26,418.25,253.5,88.26,457.34,88.26m0-47.53c-110.29,0-214.22,38.62-292.65,108.75-38.65,34.56-69.06,74.93-90.38,120-22.27,47.09-33.57,97.14-33.57,148.77s11.29,101.68,33.57,148.77c21.32,45.06,51.73,85.44,90.38,120,78.43,70.13,182.37,108.75,292.65,108.75s214.22-38.62,292.65-108.75c38.65-34.56,69.06-74.93,90.38-120,22.27-47.09,33.57-97.14,33.57-148.77s-11.29-101.68-33.57-148.77c-21.32-45.06-51.73-85.44-90.38-120-78.43-70.13-182.37-108.75-292.65-108.75h0Z"/>
      </g>
      <path class="cls-1" d="m583.89,226.86c0,15.28,16.14,27.16,33.95,27.16,17.81,0,30.55-8.49,30.55-23.76,0-23.09-16.14-37.34-33.95-37.34-17.81,0-30.55,16.14-30.55,33.95Z"/>
      <path class="cls-1" d="m250.71,243.82c2.6,15.05,20.53,24.01,38.08,20.97,17.55-3.04,28.66-13.57,26.06-28.62-3.93-22.75-22.26-34.05-39.81-31.01-17.55,3.04-27.36,21.11-24.32,38.66Z"/>
      <path class="cls-1" d="m428.69,276.36c-41.55,0-66.54-18.56-68.26-19.87-4.46-3.42-5.31-9.82-1.88-14.28,3.41-4.45,9.78-5.31,14.24-1.91,2.54,1.91,60.8,44,150.99-18.42,4.62-3.2,10.97-2.05,14.17,2.58,3.2,4.62,2.05,10.97-2.58,14.17-41.9,29-78.19,37.73-106.68,37.73Z"/>
    </g>
  </g>
</svg>