<?xml version="1.0" encoding="UTF-8"?>
<svg id="Layer_2" data-name="Layer 2" xmlns="http://www.w3.org/2000/svg" viewBox="0 0 1232 1003">
  <defs>
    <style>
      .cls-1 {
        fill: #999;
      }

      .cls-1, .cls-2, .cls-3, .cls-4, .cls-5, .cls-6, .cls-7, .cls-8 {
        stroke-width: 0px;
      }

      .cls-2 {
        fill: #9dbfa4;
      }

      .cls-4 {
        fill: #b3b3b3;
      }

      .cls-5 {
        fill: #ccc;
      }

      .cls-6 {
        fill: #83b88e;
      }

      .cls-7 {
        fill: #88a88f;
      }

      .cls-8 {
        fill: #f2f2f2;
      }
    </style>
  </defs>
  <g id="Cookie">
    <g id="Sign">
      <g>
        <path class="cls-5" d="m1070.3,887H161.7c-25.24,0-45.7-20.46-45.7-45.7v-337.61c0-25.24,20.46-45.7,45.7-45.7h908.61c25.24,0,45.7,20.46,45.7,45.7v337.61c0,25.24-20.46,45.7-45.7,45.7Z"/>
        <path class="cls-8" d="m1070.3,458c25.24,0,45.7,20.46,45.7,45.7v337.61c0,25.24-20.46,45.7-45.7,45.7H161.7c-25.24,0-45.7-20.46-45.7-45.7v-337.61c0-25.24,20.46-45.7,45.7-45.7h908.61m0-116H161.7c-21.78,0-42.97,4.29-62.97,12.75-19.27,8.15-36.55,19.79-51.36,34.61s-26.46,32.09-34.61,51.36c-8.46,20.01-12.75,41.2-12.75,62.98v337.61c0,21.78,4.29,42.97,12.75,62.98,8.15,19.27,19.79,36.55,34.61,51.36s32.09,26.45,51.36,34.6c20.01,8.46,41.2,12.75,62.97,12.75h908.61c21.78,0,42.97-4.29,62.97-12.75,19.27-8.15,36.55-19.79,51.36-34.6s26.46-32.09,34.6-51.36c8.46-20.01,12.75-41.2,12.75-62.98v-337.61c0-21.78-4.29-42.97-12.75-62.98-8.15-19.27-19.79-36.55-34.6-51.36s-32.09-26.46-51.36-34.61c-20.01-8.46-41.2-12.75-62.97-12.75h0Z"/>
      </g>
      <g>
        <rect class="cls-4" x="224" width="93" height="554"/>
        <path class="cls-8" d="m317,0v554h-93V0h93m-133,0v594h173V0"/>
      </g>
      <g>
        <rect class="cls-4" x="925" width="93" height="554"/>
        <path class="cls-8" d="m1018,0v554h-93V0h93m-133,0v594h173V0"/>
      </g>
      <g>
        <rect class="cls-5" x="116" y="458" width="1000" height="429" rx="45.7" ry="45.7"/>
        <path class="cls-3" d="m1070.3,458c25.24,0,45.7,20.46,45.7,45.7v337.61c0,25.24-20.46,45.7-45.7,45.7H161.7c-25.24,0-45.7-20.46-45.7-45.7v-337.61c0-25.24,20.46-45.7,45.7-45.7h908.61m0-80H161.7c-16.93,0-33.4,3.33-48.95,9.91-14.98,6.34-28.41,15.39-39.93,26.9-11.52,11.52-20.57,24.95-26.9,39.93-6.58,15.55-9.91,32.02-9.91,48.95v337.61c0,16.93,3.33,33.4,9.91,48.95,6.34,14.98,15.39,28.41,26.9,39.93,11.52,11.52,24.95,20.57,39.93,26.9,15.55,6.58,32.02,9.91,48.95,9.91h908.61c16.93,0,33.4-3.33,48.95-9.91,14.98-6.34,28.41-15.39,39.93-26.9,11.52-11.52,20.57-24.95,26.9-39.93,6.58-15.55,9.91-32.02,9.91-48.95v-337.61c0-16.93-3.33-33.4-9.91-48.95-6.34-14.98-15.39-28.41-26.9-39.93-11.52-11.52-24.95-20.57-39.93-26.9-15.55-6.58-32.02-9.91-48.95-9.91h0Z"/>
      </g>
      <g>
        <rect class="cls-6" x="134" y="471" width="964" height="403" rx="43.48" ry="43.48"/>
        <path class="cls-5" d="m1054.52,471c24.02,0,43.48,19.47,43.48,43.48v316.03c0,24.02-19.47,43.48-43.48,43.48H177.48c-24.02,0-43.48-19.47-43.48-43.48v-316.03c0-24.02,19.47-43.48,43.48-43.48h877.03m0-48.53H177.48c-50.74,0-92.02,41.28-92.02,92.02v316.03c0,50.74,41.28,92.02,92.02,92.02h877.03c50.74,0,92.02-41.28,92.02-92.02v-316.03c0-50.74-41.28-92.02-92.02-92.02h0Z"/>
      </g>
      <polygon class="cls-1" points="317 335 224 378 224 378 317 378 317 335"/>
      <polygon class="cls-1" points="1018 335 925 378 925 378 1018 378 1018 335"/>
      <g>
        <rect class="cls-2" x="134" y="471" width="964" height="403" rx="43.48" ry="43.48"/>
        <path class="cls-7" d="m1054.52,471c24.02,0,43.48,19.47,43.48,43.48v316.03c0,24.02-19.47,43.48-43.48,43.48H177.48c-24.02,0-43.48-19.47-43.48-43.48v-316.03c0-24.02,19.47-43.48,43.48-43.48h877.03m0-12H177.48c-30.59,0-55.48,24.89-55.48,55.48v316.03c0,30.59,24.89,55.48,55.48,55.48h877.03c30.59,0,55.48-24.89,55.48-55.48v-316.03c0-30.59-24.89-55.48-55.48-55.48h0Z"/>
      </g>
    </g>
  </g>
</svg>