<?xml version="1.0" encoding="UTF-8"?>
<svg id="Layer_2" data-name="Layer 2" xmlns="http://www.w3.org/2000/svg" viewBox="0 0 908.22 830.59">
  <defs>
    <style>
      .cls-1, .cls-2, .cls-3 {
        stroke-width: 0px;
      }

      .cls-2 {
        fill: #ccc;
      }

      .cls-3 {
        fill: #f2f2f2;
      }
    </style>
  </defs>
  <g id="Cookie">
    <g id="bob_idle">
      <g>
        <ellipse class="cls-3" cx="454.11" cy="415.3" rx="366.47" ry="327.66"/>
        <path class="cls-3" d="m454.11,87.64c202.4,0,366.47,146.7,366.47,327.66s-164.07,327.66-366.47,327.66S87.64,596.26,87.64,415.3,251.71,87.64,454.11,87.64m0-87.64c-60.1,0-118.52,10.57-173.65,31.42-53.76,20.33-102.18,49.56-143.9,86.86-42.43,37.94-75.85,82.35-99.35,132.01C12.52,302.48,0,358,0,415.3s12.52,112.81,37.22,165.02c23.49,49.66,56.92,94.07,99.35,132.01,41.72,37.31,90.14,66.53,143.9,86.86,55.12,20.85,113.54,31.42,173.65,31.42s118.52-10.57,173.65-31.42c53.76-20.33,102.18-49.55,143.9-86.86,42.43-37.94,75.85-82.35,99.35-132.01,24.69-52.2,37.22-107.72,37.22-165.02s-12.52-112.81-37.22-165.02c-23.49-49.66-56.92-94.07-99.35-132.01-41.72-37.3-90.14-66.53-143.9-86.86C572.63,10.57,514.21,0,454.11,0h0Z"/>
      </g>
      <g>
        <ellipse class="cls-3" cx="454.11" cy="415.3" rx="366.25" ry="327.46"/>
        <path class="cls-1" d="m454.11,87.84c202.27,0,366.25,146.61,366.25,327.46s-163.97,327.46-366.25,327.46S87.86,596.15,87.86,415.3,251.84,87.84,454.11,87.84m0-47.16c-109.44,0-212.58,38.32-290.41,107.91-38.36,34.29-68.53,74.36-89.69,119.08-22.1,46.72-33.31,96.39-33.31,147.63s11.21,100.9,33.31,147.63c21.15,44.72,51.33,84.78,89.69,119.08,77.83,69.59,180.97,107.91,290.41,107.91s212.58-38.32,290.41-107.91c38.36-34.29,68.53-74.36,89.69-119.08,22.1-46.72,33.31-96.39,33.31-147.63s-11.21-100.9-33.31-147.63c-21.15-44.72-51.33-84.78-89.69-119.08-77.83-69.59-180.97-107.91-290.41-107.91h0Z"/>
      </g>
      <g>
        <ellipse class="cls-3" cx="454.11" cy="415.3" rx="366.25" ry="327.46"/>
        <path class="cls-1" d="m454.11,87.84c202.27,0,366.25,146.61,366.25,327.46s-163.97,327.46-366.25,327.46S87.86,596.15,87.86,415.3,251.84,87.84,454.11,87.84m0-42.91c-54.65,0-107.72,9.59-157.74,28.51-48.57,18.37-92.25,44.72-129.84,78.32-37.93,33.91-67.77,73.52-88.68,117.72-21.83,46.15-32.9,95.21-32.9,145.81s11.07,99.66,32.9,145.81c20.91,44.2,50.75,83.81,88.68,117.72,37.59,33.6,81.27,59.96,129.84,78.32,50.02,18.92,103.09,28.51,157.74,28.51s107.72-9.59,157.74-28.51c48.57-18.37,92.25-44.72,129.84-78.32,37.93-33.91,67.77-73.52,88.68-117.72,21.83-46.15,32.9-95.21,32.9-145.81s-11.07-99.66-32.9-145.81c-20.91-44.2-50.75-83.81-88.68-117.72-37.59-33.6-81.27-59.96-129.84-78.32-50.02-18.92-103.09-28.51-157.74-28.51h0Z"/>
      </g>
      <path class="cls-1" d="m579.69,225.37c0,15.16,16.01,26.95,33.69,26.95,17.67,0,30.32-8.42,30.32-23.58,0-22.91-16.01-37.06-33.69-37.06-17.67,0-30.32,16.01-30.32,33.69Z"/>
      <path class="cls-1" d="m249.06,242.2c2.58,14.94,20.37,23.83,37.79,20.81,17.42-3.01,28.44-13.47,25.86-28.4-3.9-22.57-22.09-33.78-39.51-30.77-17.42,3.01-27.15,20.95-24.13,38.36Z"/>
      <path class="cls-1" d="m425.68,274.5c-41.23,0-66.03-18.42-67.73-19.72-4.43-3.4-5.27-9.74-1.87-14.17,3.39-4.42,9.71-5.26,14.14-1.9,2.52,1.89,60.34,43.67,149.83-18.28,4.59-3.17,10.89-2.03,14.06,2.56,3.18,4.59,2.03,10.88-2.56,14.06-41.58,28.78-77.59,37.44-105.87,37.44Z"/>
      <path class="cls-2" d="m737.31,207.68c23.1,42.91,36.04,91.01,36.04,141.82,0,180.85-163.97,327.46-366.25,327.46-114.12,0-216.04-46.68-283.2-119.84,59.12,109.83,184.76,185.63,330.2,185.63,202.27,0,366.25-146.61,366.25-327.46,0-78.81-31.16-151.11-83.04-207.62Z"/>
    </g>
  </g>
</svg>