<?xml version="1.0" encoding="UTF-8"?>
<svg id="Layer_2" data-name="Layer 2" xmlns="http://www.w3.org/2000/svg" xmlns:xlink="http://www.w3.org/1999/xlink" viewBox="0 0 345.27 350.31">
  <defs>
    <style>
      .cls-1 {
        fill: #a67f4a;
      }

      .cls-1, .cls-2, .cls-3, .cls-4, .cls-5 {
        stroke-width: 0px;
      }

      .cls-2 {
        fill: #dbad6b;
      }

      .cls-6 {
        filter: url(#drop-shadow-1);
      }

      .cls-4 {
        fill: #ccc;
      }

      .cls-5 {
        fill: #f2f2f2;
      }
    </style>
    <filter id="drop-shadow-1" filterUnits="userSpaceOnUse">
      <feOffset dx="7" dy="7"/>
      <feGaussianBlur result="blur" stdDeviation="10"/>
      <feFlood flood-color="#000" flood-opacity="1"/>
      <feComposite in2="blur" operator="in"/>
      <feComposite in="SourceGraphic"/>
    </filter>
  </defs>
  <g id="Alien">
    <g id="Layer_15" data-name="Layer 15">
      <g class="cls-6">
        <g>
          <path class="cls-4" d="m146.91,331.31c-23.29,0-53.72-7.26-65.47-23.21-4.87-6.61-7.53-12.66-9.87-17.99-3.74-8.52-6-13.66-15.55-18.47-18.57-9.35-21.12-31.45-22.99-47.58-.61-5.3-1.19-10.31-2.18-14-1.36-5.06-3.22-10.53-5.02-15.82-4.28-12.56-7.98-23.41-6.49-31.84,1.36-7.72,7.74-17.36,16.56-30.71,4.41-6.67,8.98-13.57,13.17-20.69,5.94-10.07,8.33-20.47,10.44-29.65,1.86-8.1,3.62-15.76,7.56-21.9,8.57-13.37,22.55-17.23,34.89-20.65l1.6-.44c4.82-1.34,9.6-1.67,14.22-1.99,9.5-.66,13.62-1.34,16.13-5.5,4.53-7.51,9.21-11.87,19.69-11.87,3.62,0,8.04.48,14.02,1.25,5.29.68,9.05,3.94,12.36,6.81,3.03,2.63,5.65,4.9,9.05,5.26.56.06,1.16.09,1.78.09,3.59,0,7.61-.98,11.85-2.01,4.66-1.13,9.47-2.3,14.38-2.3,1.19,0,2.36.07,3.48.21,2.31.29,7.71.97,35.52,16.4,25.13,13.94,28.5,17.16,28.8,17.48,1.93,2.06,2.75,4.52,4.94,11.09,2.36,7.06,5.92,17.73,10.26,25.01,2.01,3.37,4.05,5.03,6.88,7.33,5.56,4.52,12.47,10.15,17.3,27.73,4.25,15.47,1.05,27.47-1.52,37.12-1.66,6.22-2.97,11.14-1.78,15.09,1.64,5.46,9.4,33.37,1.17,46.52-3.42,5.46-8.79,7.74-13.53,9.75-4.58,1.94-8.54,3.62-11.58,7.94-2.04,2.9-2.05,4.9-2.06,8.89-.03,6.1-.06,14.46-8.41,25.38-7.5,9.81-13.68,12.18-19.88,13.91-3.13.88-4.19,1.17-6.41,4.29l-.1.14c-8.47,11.86-15.79,22.09-37.5,22.1-.78,0-1.58-.01-2.41-.04-3.88-.12-7.29-.18-10.41-.18-15.68,0-28.42,1.49-43.97,5.13-5.48,1.28-11.84,1.93-18.9,1.93Z"/>
          <path class="cls-4" d="m153.6,28c3.09,0,7.18.44,12.86,1.18,6.11.79,10.8,10.94,21.6,12.1.91.1,1.82.14,2.73.14,9.05,0,18.31-4.31,26.24-4.31.8,0,1.59.04,2.36.14,9.18,1.15,57.25,29.37,58.87,31.1,1.62,1.73,6.48,21.89,14.04,34.56,7.56,12.67,16.74,9.22,23.22,32.83,6.48,23.61-7.56,38.01-3.24,52.41,4.32,14.4,6.48,32.25,2.16,39.17-4.32,6.91-16.74,5.76-24.84,17.28-8.1,11.52,1.62,18.43-10.26,33.98s-17.82,6.34-26.46,18.43c-8.31,11.63-13.12,18.46-30.27,18.46-.69,0-1.4-.01-2.13-.03-3.66-.11-7.2-.18-10.69-.18-14.52,0-28.16,1.18-46.02,5.36-4.87,1.14-10.66,1.7-16.85,1.7-21.94,0-48.95-6.97-58.22-19.55-11.88-16.13-9.18-29.37-28.62-39.17-19.44-9.79-16.2-39.74-20.52-55.87-4.32-16.13-12.96-34.56-11.34-43.77,1.62-9.22,16.74-28.22,28.62-48.38,11.88-20.16,10.8-40.32,17.82-51.26,7.02-10.94,18.9-13.82,31.33-17.28,12.42-3.46,28.07,1.05,35.65-11.52,3.31-5.49,5.37-7.51,11.98-7.51m0-18h0c-15.51,0-22.55,8.18-27.38,16.2-1.51.67-6.03.98-9.06,1.19-4.83.34-10.31.71-16.01,2.3l-1.59.44c-13.2,3.65-29.63,8.2-40.06,24.46-4.79,7.46-6.72,15.86-8.76,24.74-2.06,8.96-4.19,18.22-9.42,27.1-4.08,6.91-8.57,13.71-12.92,20.29-9.43,14.25-16.24,24.55-17.92,34.11-1.88,10.71,2.16,22.57,6.84,36.3,1.75,5.15,3.57,10.47,4.85,15.24.82,3.05,1.36,7.74,1.93,12.7,1.98,17.14,4.98,43.05,27.88,54.58,6.66,3.35,7.85,6.05,11.36,14.05,2.41,5.48,5.4,12.3,10.87,19.71,15.63,21.21,53.06,26.87,72.71,26.87,7.76,0,14.81-.73,20.95-2.17,14.84-3.47,26.98-4.89,41.92-4.89,3.04,0,6.35.06,10.14.17.91.03,1.81.04,2.68.04,26.34,0,35.73-13.14,44.82-25.86l.1-.14c.16-.23.3-.4.4-.53.34-.1.76-.22,1.11-.32,7.09-1.98,15.43-5.11,24.61-17.12,10.18-13.32,10.23-24.27,10.26-30.81,0-1.19.01-2.82.13-3.28h0s.08-.16.3-.47c1.42-2.02,3.25-2.93,7.73-4.83,5.37-2.27,12.73-5.39,17.65-13.26,9.75-15.59,3.12-42.87-.18-53.88-.45-1.51.83-6.32,1.86-10.19,2.7-10.13,6.39-24,1.5-41.81-5.16-18.8-12.54-26.02-20.29-32.33-2.7-2.2-3.69-3.06-4.83-4.96-3.85-6.45-7.22-16.56-9.45-23.25-2.42-7.26-3.64-10.9-6.92-14.4-1.73-1.85-3.26-3.07-12.51-8.58-5.63-3.36-12.2-7.13-18.49-10.62-29.33-16.27-35.47-17.04-38.76-17.45-1.48-.19-3.03-.28-4.6-.28-5.99,0-11.58,1.36-16.51,2.56-3.71.9-7.21,1.75-9.72,1.75-.3,0-.58-.01-.82-.04-.74-.19-2.85-2.02-4.11-3.11-3.85-3.33-9.11-7.9-17.1-8.93-6.33-.82-11.07-1.32-15.17-1.32h0Z"/>
        </g>
        <path class="cls-5" d="m153.6,28c3.09,0,7.18.44,12.86,1.18,6.11.79,10.8,10.94,21.6,12.1.91.1,1.82.14,2.73.14,9.05,0,18.31-4.31,26.24-4.31.8,0,1.59.04,2.36.14,9.18,1.15,57.25,29.37,58.87,31.1,1.62,1.73,6.48,21.89,14.04,34.56,7.56,12.67,16.74,9.22,23.22,32.83,6.48,23.61-7.56,38.01-3.24,52.41,4.32,14.4,6.48,32.25,2.16,39.17-4.32,6.91-16.74,5.76-24.84,17.28-8.1,11.52,1.62,18.43-10.26,33.98-11.88,15.55-17.82,6.34-26.46,18.43-8.31,11.63-13.12,18.46-30.27,18.46-.69,0-1.4-.01-2.13-.03-3.66-.11-7.2-.18-10.69-.18-14.52,0-28.16,1.18-46.02,5.36-4.87,1.14-10.66,1.7-16.85,1.7-21.94,0-48.95-6.97-58.22-19.55-11.88-16.13-9.18-29.37-28.62-39.17-19.44-9.79-16.2-39.74-20.52-55.87-4.32-16.13-12.96-34.56-11.34-43.77,1.62-9.22,16.74-28.22,28.62-48.38,11.88-20.16,10.8-40.32,17.82-51.26,7.02-10.94,18.9-13.82,31.33-17.28,12.42-3.46,28.07,1.05,35.65-11.52,3.31-5.49,5.37-7.51,11.98-7.51m0-28h0c-8.97,0-16.48,2.14-22.95,6.53-4.65,3.16-7.93,6.93-10.48,10.6-1.23.11-2.61.21-3.7.28-5.04.35-11.32.78-17.99,2.64l-1.58.44c-14.06,3.89-33.31,9.22-45.81,28.7-5.73,8.92-7.94,18.57-10.09,27.9-1.98,8.6-3.84,16.72-8.29,24.26-3.94,6.69-8.37,13.38-12.65,19.85-10.1,15.26-17.39,26.29-19.43,37.9-2.33,13.23,2.31,26.85,7.22,41.26,1.7,4.99,3.46,10.16,4.65,14.61.63,2.34,1.15,6.88,1.66,11.26.98,8.51,2.21,19.1,5.72,29.3,5.31,15.39,14.59,26.52,27.59,33.07,3.39,1.7,3.45,1.74,6.71,9.15,2.47,5.62,5.85,13.31,11.97,21.62,16.83,22.84,54.02,30.94,80.76,30.94,8.52,0,16.34-.82,23.23-2.43,14.04-3.29,25.52-4.63,39.64-4.63,2.93,0,6.15.05,9.84.17,1.01.03,2.01.05,2.99.05,13.9,0,25.26-3.3,34.71-10.08,7.31-5.24,12.19-11.56,16.7-17.81,8.64-2.69,17.91-7.35,27.57-20,11.44-14.97,12.22-27.8,12.3-35.36.68-.3,1.42-.62,2.06-.89,5.85-2.48,15.64-6.62,22.23-17.17,5.34-8.54,7.41-19.57,6.34-33.73-.64-8.39-2.4-17.87-4.99-26.86.26-1.49.97-4.16,1.51-6.2,2.82-10.6,7.09-26.61,1.48-47.04-5.94-21.63-14.93-30.35-23.62-37.43-2.27-1.85-2.33-1.95-2.56-2.33-3.29-5.52-6.59-15.39-8.56-21.29-2.61-7.82-4.33-12.98-9.11-18.07-2.1-2.24-4.98-5.31-33.44-21.1-28.63-15.88-36.63-17.91-42.37-18.63-1.89-.24-3.86-.36-5.84-.36-7.19,0-13.67,1.58-18.88,2.84-1.63.4-3.66.89-5.24,1.19-.17-.15-.34-.29-.5-.43-4.26-3.69-11.39-9.88-22.37-11.3-6.72-.87-11.82-1.41-16.45-1.41h0Z"/>
      </g>
      <g>
        <path class="cls-2" d="m39.93,208.16c-4.32-16.13-12.96-34.56-11.34-43.77,1.62-9.22,16.74-28.22,28.62-48.38,11.88-20.16,10.8-40.32,17.82-51.26,7.02-10.94,18.9-13.82,31.33-17.28,12.42-3.46,28.07,1.05,35.65-11.52,4.86-8.06,7.02-8.64,24.84-6.34,6.11.79,10.8,10.94,21.6,12.1s22.14-5.18,31.33-4.03,57.25,29.37,58.87,31.1c1.62,1.73,6.48,21.89,14.04,34.56s16.74,9.22,23.22,32.83c6.48,23.61-7.56,38.01-3.24,52.41,4.32,14.4,6.48,32.25,2.16,39.17-4.32,6.91-16.74,5.76-24.84,17.28-8.1,11.52,1.62,18.43-10.26,33.98-11.88,15.55-17.82,6.34-26.46,18.43-8.64,12.1-13.5,19.01-32.41,18.43-18.9-.58-34.57,0-56.71,5.18-22.14,5.18-63.19-1.73-75.07-17.85-11.88-16.13-9.18-29.37-28.62-39.17-19.44-9.79-16.2-39.74-20.52-55.87Z"/>
        <path class="cls-3" d="m153.99,28.44c3.09,0,7.18.44,12.86,1.18,6.11.79,10.8,10.94,21.6,12.1.91.1,1.82.14,2.73.14,9.05,0,18.31-4.31,26.24-4.31.8,0,1.59.04,2.36.14,9.18,1.15,57.25,29.37,58.87,31.1,1.62,1.73,6.48,21.89,14.04,34.56,7.56,12.67,16.74,9.22,23.22,32.83,6.48,23.61-7.56,38.01-3.24,52.41,4.32,14.4,6.48,32.25,2.16,39.17-4.32,6.91-16.74,5.76-24.84,17.28-8.1,11.52,1.62,18.43-10.26,33.98-11.88,15.55-17.82,6.34-26.46,18.43-8.31,11.63-13.12,18.46-30.27,18.46-.69,0-1.4-.01-2.13-.03-3.66-.11-7.2-.18-10.69-.18-14.52,0-28.16,1.18-46.02,5.36-4.87,1.14-10.66,1.7-16.85,1.7-21.94,0-48.95-6.97-58.22-19.55-11.88-16.13-9.18-29.37-28.62-39.17-19.44-9.79-16.2-39.74-20.52-55.87-4.32-16.13-12.96-34.56-11.34-43.77,1.62-9.22,16.74-28.22,28.62-48.38,11.88-20.16,10.8-40.32,17.82-51.26,7.02-10.94,18.9-13.82,31.33-17.28,12.42-3.46,28.07,1.05,35.65-11.52,3.31-5.49,5.37-7.51,11.98-7.51m0-18v18V10.44h0c-15.51,0-22.55,8.18-27.38,16.2-1.51.67-6.03.98-9.06,1.19-4.83.33-10.31.71-16.01,2.3l-1.59.44c-13.2,3.65-29.63,8.2-40.06,24.46-4.79,7.46-6.72,15.86-8.76,24.74-2.06,8.96-4.19,18.22-9.42,27.1-4.08,6.91-8.57,13.71-12.92,20.29-9.43,14.25-16.24,24.55-17.92,34.11-1.88,10.71,2.16,22.57,6.84,36.3,1.75,5.15,3.57,10.47,4.85,15.24.82,3.05,1.36,7.74,1.93,12.7,1.98,17.14,4.98,43.05,27.88,54.58,6.66,3.35,7.85,6.05,11.36,14.05,2.41,5.48,5.4,12.3,10.87,19.71,15.63,21.21,53.06,26.87,72.71,26.87,7.76,0,14.81-.73,20.95-2.17,14.84-3.47,26.98-4.89,41.92-4.89,3.04,0,6.35.06,10.14.17.91.03,1.81.04,2.68.04,26.34,0,35.74-13.15,44.82-25.86l.1-.14c.16-.23.3-.4.4-.53.34-.1.76-.22,1.11-.32,7.09-1.98,15.43-5.11,24.61-17.12,10.18-13.32,10.23-24.27,10.26-30.81,0-1.19.01-2.82.13-3.28h0s.08-.16.3-.47c1.42-2.02,3.25-2.93,7.73-4.83,5.37-2.27,12.73-5.39,17.65-13.26,9.75-15.59,3.12-42.88-.18-53.88-.45-1.51.83-6.32,1.86-10.19,2.7-10.13,6.39-24,1.5-41.82-5.16-18.8-12.54-26.02-20.29-32.33-2.7-2.2-3.69-3.06-4.83-4.96-3.85-6.45-7.22-16.56-9.45-23.25-2.42-7.26-3.64-10.9-6.91-14.4-1.73-1.85-3.26-3.07-12.51-8.58-5.63-3.36-12.2-7.13-18.49-10.62-29.33-16.27-35.47-17.04-38.76-17.45-1.48-.19-3.03-.28-4.6-.28-5.99,0-11.58,1.36-16.51,2.56-3.71.9-7.21,1.75-9.72,1.75-.3,0-.58-.01-.82-.04-.74-.19-2.85-2.02-4.11-3.11-3.85-3.33-9.11-7.9-17.1-8.93-6.33-.82-11.07-1.32-15.17-1.32h0Z"/>
      </g>
      <path class="cls-1" d="m315.92,136.17c-5.58-20.32-13.15-20.6-19.97-28.35.36,1.12,1.15,2.26,1.07,3.58-1.46,23.49,4.8,33.97,7.72,40.19,3.24,6.91.54,18.43-3.78,25.34-2.37,3.79,11.61,23.58,6.48,33.98-.88,1.78-8.64,6.34-14.58,2.3-8.32-5.65-14.36,16.01-15.66,17.85-8.1,11.52-6.48,7.49-15.66,16.13-14.1,13.27-2.16,24.19-14.58,24.19-3.07,0-6.24-5.5-9.18-4.03-10.71,5.36-1.91,27.52-16.74,27.07-8.64-.26-23.81-4.22-35.65-8.64-10.8-4.03-12.96,1.73-19.44,9.22-5.4,6.24-13.5-12.1-19.98-19.01-10.35-11.04-66.74-37.66-61.57-16.7,2.7,10.94-1.19,16.3-4.22,27.52,2.22,5.06,4.61,10.53,8.92,16.37,11.88,16.13,52.93,23.04,75.07,17.85,22.14-5.18,37.81-5.76,56.71-5.18,18.9.58,23.76-6.34,32.41-18.43,8.64-12.1,14.58-2.88,26.46-18.43,11.88-15.55,2.16-22.46,10.26-33.98,8.1-11.52,20.52-10.37,24.84-17.28s2.16-24.77-2.16-39.17c-4.32-14.4,9.72-28.8,3.24-52.41Z"/>
      <path class="cls-3" d="m183.86,64.76c-5.65,5.8-17.86,1-23.44-3.1-1.99-1.45-3.98-3.44-5.69-5.21-2.91-3.12-5.53-5.29-9.05-7.36-3.5-2.14-7.53-4.05-11.56-6.54-1.55-.9-2.07-2.92-1.12-4.44.58-.94,1.6-1.48,2.63-1.51,7.51-.16,15.72,1.84,21.99,6.44,3.86,2.65,6.95,7.15,9.9,10.32,2.62,2.7,6.23,5.51,9.51,7.51,1.52.86,3.07,1.68,4.81,1.81.08.03.23-.02.18.09,1.32-1.18,3.13.78,1.83,2h0Z"/>
      <path class="cls-3" d="m181.68,76.79c1.88.13,3.91.24,5.78.26,3.95,0,8.5-.04,11.83-1.71,2.78-2.99,4.55-7.44,6.42-11.29,1.76-3.89,3.47-7.98,5.23-11.97,1.49-3.57,6.83-2.37,6.66,1.47-.38,7.06-1.54,13.88-3.65,20.65-1.71,5.6-4.83,11.87-10.67,14.25-7.68,3.41-15.37,3.49-23.39,2.6-9.31-1.62-7.61-14.98,1.79-14.27h0Z"/>
      <path class="cls-3" d="m229.71,140.82c-3.13,4.46-5.11,10.12-5.17,15.52.04,10.04,4.68,20.35,9.68,29.1,0,0,.52.86.52.86l.03.05c-.07-.19-.23-.41-.37-.58-.14-.19-.3-.37-.47-.5-.59-.52-.81-.51-.68-.53,5.89-.04,12.39-3,17.25-6.2.39-.27.78-.58,1.15-.87.11-.06.22-.04.36-.2,3.16-5.02-1.76-17.82-4.73-22.84-.37-.62-.74-1.19-1.03-1.6,0,0,0-.02,0-.02,0,0-.02-.04,0-.03.7.54,1.72.74,2.57.47.31-.11.43-.15.67-.32.13-.12.07-.07.05-.07-.21.17-.65.72-1.02,1.25-1.39,1.97-3.35,5.55-4.63,7.72-1.27,2.01-2.55,4.59-4.77,6.08-3.61,2.03-6.87-.74-7.88-4.07-.33-.96-.57-1.77-.74-2.83-.28-1.62.81-3.16,2.43-3.44,1.62-.28,3.16.81,3.44,2.43.04.99.64,2.83.87,3.01-.11-.11-.38-.17-.55-.2-.09,0-.17.02-.25.01-.04,0-.03.02-.1.04-.08.02-.15.06-.21.1-.02-.01-.05.04.01-.03,3.56-4.38,4.85-10.22,8.47-14.78,1.88-2.18,4.8-2.32,6.81-.15,2.47,2.62,4.23,5.38,6.13,8.34,3.59,5.94,7.05,12.32,7.39,19.58.2,3.32-.9,7.83-3.48,10.64-4.4,5.02-10.21,8.32-16.37,10.31-7.17,2.13-17.41,3.73-22.16-4.04-5.67-11.63-9.58-25.02-6.51-37.98.9-3.4,2.37-6.62,4.36-9.37,1.99-2.78,4.32-5.11,7.24-6.94.63-.4,1.47-.2,1.86.43.34.54.23,1.18-.14,1.64h0Z"/>
      <path class="cls-3" d="m81.1,124.01c2.95-2.67,6.04-4.41,9.37-6.03,3.72-1.79,6.2-2.83,10.05-.11,2.28,1.3,3.46,3.96,2.81,6.41-1.84,7.23-10.53,6.59-16.27,5.36-1.97-.51-3.9-1.26-5.85-2.56-1.07-.69-1.12-2.3-.12-3.08h0Z"/>
      <path class="cls-3" d="m55.91,154.47l7.86-5.62c1.33-.95,3.18-.64,4.13.69.72,1,.72,2.3.11,3.29l-5.1,8.2c-1.43,2.29-4.44,3-6.74,1.57-2.95-1.74-3.06-6.21-.26-8.13h0Z"/>
      <path class="cls-3" d="m70.96,202.24c.33,6.14,1.82,13.67,7.28,17.11,1.8.63,3.2-.12,5.64-1.23,6.05-3.07,12.14-9.14,19.55-9.08-.97.06-2.07.71-2.45,1.65-.01.04-.02.02-.02.04-.01.02-.01.04,0,.06.05-.21.1-.44.11-.69.37-9.3-4.96-22.27.97-30.6.07.03,0,.07-.01.15-.02.06.02.09-.02.19-.02.35.06.76.21.85.03.05.06-.08-.15-.32-1.03-1.25-3.13-2.46-4.75-3.32-4.03-2.14-8.61-3.92-13.1-5.81-.78-.29-1.17-1.18-.84-1.95.24-.57.79-.91,1.37-.9,5.11.05,10.08.7,15.18,2.14,6.51,1.72,14.11,6.74,9.23,14.35-2.89,9.23,9.36,30.66-3.74,34.63-.7.19-1.46.22-2.18.24-2.52.5-4.81,2.37-7.48,4.04-4.96,3.16-9.35,6.66-16.22,6.9-3.83.12-7.64-1.74-10.36-4.37-6.63-6.45-8.71-15.74-8.35-24.57.57-6.72,10.21-6.21,10.16.49h0Z"/>
      <path class="cls-3" d="m74.26,288.92c1.07-1.46,1.77-2.09,2.18-2.64,1.57-2.01,2.17-4.36,2.82-7.11.77-3.86,1.48-7.8,1.28-11.86-.46-8.14-3.31-16.61-6.88-24.01-1.23-2.35,2.07-4.39,3.61-2.2,7.72,11.61,13.53,25.33,11.26,39.62-.45,3.69-1.35,8.03-3.58,11.43-.82,1.27-1.63,2.25-1.79,2.62-3.84,7.42-14.13.76-8.91-5.85h0Z"/>
      <path class="cls-3" d="m86.66,96.97c.56-2.26,2.48-3.82,4.4-4.84,4.61-2.63,11.72-2.36,16.06-2.73,5.31-.52,8.15-2.93,9.78-8.42,1.56-5.29,2.49-11.78,2.53-17.5,0-5.19-1.06-10.24-2.59-15.22-.41-1.45-.92-3.12-.88-4.65,0-2.99,2.42-5.41,5.41-5.41s5.41,2.42,5.41,5.41c.05-.28.05-.57,0-.85,0,0,.01,0,.01,0,0,0,.02.01.02.01,6.18,9.17,7.69,21.23,5.28,31.93-1.02,4.98-2.76,10.72-5.8,15.24-5.83,8.76-15.11,10.22-24.69,7.51-4.04-.85-8.88-2.06-12.48.27-.49,1.59-2.94.9-2.46-.74h0Z"/>
      <path class="cls-3" d="m147.59,271.32c3.7,6.47,9,16.09,16.25,18.54.51.1.63-.04.37-.05-.1,0-.19,0-.19-.02.02-.08.09-.14.22-.38,1.54-2.81,2.08-5.87,4.43-8.74,2.59-3.31,6.62-3.77,10.54-3.12,4.26.58,8.2,1.61,12.18,2.07,1.32.15,2.42.25,3.57.05-.27.12-.78.68-.85.92,1.83-5.95-.38-16.06-4.43-19.5-3.51-2.27-1.27-7.53,2.75-6.44,9.75,3.38,13.88,16.57,13.03,26-.53,6.7-4.96,10.5-11.55,10.46-6.32.06-12.19-2.3-18.13-3.17-.12-.01-.41-.03-.17-.03.22-.04.58-.15.75-.28.19-.16.19-.17.11-.13-.89.86-1.7,2.82-2.5,4.22-1.79,3.73-5.58,7.73-10.3,7.02-7.11-1.08-11.92-8.12-14.75-14.02-1.88-4.02-3.24-8.1-4.08-12.46-.15-.79.38-1.56,1.17-1.71.66-.12,1.3.22,1.59.8h0Z"/>
      <path class="cls-3" d="m222.89,292.06c-.07.06-.25.51-.3.62-.04.1-.04.1-.08.08-.15-.77-1.03-1.65-1.82-1.55-.05.05.28.03.58-.02,1.54-.41,3.14-1.06,4.36-2.12,2.65-2.18,3.91-6.16,4-9.57-.04-.85.64-1.59,1.51-1.56,2.1.14,1.49,3.28,1.6,4.68-.02,6.17-3.7,11.94-9.57,14.25-5.52,2.26-8.67-2.41-6.72-7.55,1.92-4.2,8.14-1.55,6.44,2.74h0Z"/>
      <path class="cls-3" d="m240.08,266.13c1.46.86,2.85,2.48,4.25,3.2.79-.14,1.58-.35,2.59-.64,0,0,2.32-.66,2.32-.66.32-.09.84-.28.97-.58.39-5.56-.63-11.91,1.27-17.59,1.9-6.71,7.51-14.16,15.53-13.04,5.93.64,9.68,4.16,15.28,3.7.67-.06,1.58-.24,2.24-.35,3.27-.52,6.55-1,9.89-1.26,3.95-.27,5.31,5.16,1.72,6.78-3.64,1.61-7.34,2.96-11.08,4.21-5.07,1.72-10.99.52-15.66-1.21-1.51-.49-2.81-.9-3.53-.94-.77-.04-.63-.04-1.05.16-2.71,2.23-3.93,5.51-4.84,9.13-1.08,4.27-.75,8.86-2.97,13.13-1.07,2.13-3.65,3.9-6.11,4.02-2.19.09-4.02.1-6.33-.24-.88-.14-2.11-.62-2.82-1.35-.87-.88-1.41-2.12-1.91-3.02-.36-.74-.78-1.45-1.18-2.19-.48-.88.59-1.84,1.4-1.28h0Z"/>
      <path class="cls-3" d="m296.89,148.42c1.99-.1,4.9-.5,7.34.06,6.09,1.51,6.46,8.45,6.01,13.1-.36,5.06-1.32,10.26-3.95,14.76-.43.75-1.18,1.95-1.54,2.68-.08.28-.02.35-.05.61.2,2.16,1.01,4.43,1.69,6.57.53,1.58,1.93,5.77,2.47,7.4,1.96,6.2,5.53,15.24-.83,20.29-2.53,1.91-5.4,3.74-8.81,3.61-3.45-.04-6.6-2.86-8.21-5.34-.57-.81-.38-1.94.44-2.51.6-.42,1.37-.43,1.96-.07,3.44,1.99,5.23,2.85,7.93-.37,0,0,.73-.84.73-.84,0,0,.38-.44.38-.44.07-.11.08-.17.13-.25.13-.16.04-.26.1-.35-.06-.1-.02-.12-.07-.23-.35-1.63-.92-2.99-1.76-4.94-1.69-3.78-3.73-8.12-5.26-11.95-2.42-5.87-4.44-12.52-.44-18.27,2.94-4.03,4.05-9.08,4.96-13.96,0,0,.14-.93.14-.93.01-.22.04-.47.07-.63.01-.02.05-.24.15,0,.03.03.06.06.1.08.04.01.08.12.14.17.2.16.45.37.69.4.21-.02-.03-.11-.11-.17-1.56-.63-3.72-.91-5.46-1.54-3.77-1.27-2.88-6.85,1.05-6.92h0Z"/>
      <path class="cls-3" d="m255.59,101.47c9.32,6.39,18.43,11.09,29.2,11.61.09-.02.21-.03.29-.04.13-.03-.25.17-.35.25-.4.31-.87.91-1.01,1.42-.21.75-.07.86-.08.63,0-.22-.09-.71-.28-1.25-.43-1.28-1.46-3.23-2.23-4.47-1.75-2.5-3.56-5.26-5.13-7.87-3.67-6.43-7.45-12.71-8.52-20.34-.16-1.55,1.96-2.16,2.66-.77,3.91,5.53,8.91,10.35,13.48,15.38,1.17,1.26,4.16,4.46,5.3,5.66.47.47,1.08,1.16,1.49,1.67,4.17,4.85,8.24,13.37,2.81,18.95-3.56,3.85-9.89,3.71-14.33,2.94-9.9-1.66-19.2-7.75-23.95-16.63-.94-1.73-1.65-3.5-2.13-5.54-.21-.9.35-1.8,1.25-2.01.57-.14,1.1.05,1.53.39h0Z"/>
      <path class="cls-3" d="m169.57,237.03c4.11-1.45,8.08-3.05,11.55-5.69,2.36-1.71,4.49-4,6.55-6.03.56-.52,1.42-1.54,2.02-1.95,0,0,5.39,1.4,5.39,1.4.72.18,1.14.95.91,1.66-.23.71-.48,1.47-.81,2.11-2.06,4.31-5.97,7.55-10.27,9.45-3.65,1.64-7.55,2.4-11.49,2.19-1.26-.04-2.52-.3-3.76-.53-.73-.15-1.19-.86-1.05-1.58.1-.52.49-.88.95-1.03h0Z"/>
      <path class="cls-3" d="m152.46,195.19c.24,2.94.25,6.7,2.42,8.12.39.16.59.01.96.2,3.02,1.18,5.92,1.48,8.26-.53,1.74-1.33,4.44-5.89,4.91-7.78.28-.68.15-1.11-.19-2.17-.87-2.06-2.4-4.22-3.51-6.52-2.12-4.16,2.47-8.74,6.59-6.69,6.81,2.96,12.71,9.29,12.07,17.37-.56,7.23-5.21,14.75-11.75,18.63-5.32,3.19-12.25,3.34-17.66.66-3.52-1.82-6.83-4.34-8.53-7.94-2.28-5.33-.48-10.65,2.75-14.86,1.3-1.62,3.83-.5,3.66,1.51h0Z"/>
      <path class="cls-3" d="m126.15,136.53c7.53,5.97,19.12,4.19,26.92.11,2.26-1.33,2.97-3.19,4.07-5.33,1.73-3.53,5.1-7.21,8.93-9.05.47-.29,1.24-.58,1.58-1.02,2.37-5.5-3.56-16.72-7.29-21.24-1.43-1.51-1.33-3.94.31-5.25,1.12-.9,2.62-1.01,3.83-.39,2.03,1.04,3.79,2.37,5.39,3.82,9.12,8,16.86,26.34,3.81,34.69-.89.5-2.14,1.16-2.94,1.77-.83.62-1.64,1.65-2.34,2.89-1.94,3.62-4.5,7.08-8.22,9.05-8.26,4.27-19.22,4.86-27.71.98-3.5-1.68-6.61-4.22-8.59-7.56-.3-.48-.52-.93-.8-1.56-.72-1.54,1.08-3.12,2.51-2.24,0,0,.55.33.55.33h0Z"/>
    </g>
  </g>
</svg>