<?xml version="1.0" encoding="UTF-8"?>
<svg id="Layer_2" data-name="Layer 2" xmlns="http://www.w3.org/2000/svg" viewBox="0 0 201.47 341.38">
  <defs>
    <style>
      .cls-1 {
        fill: #4d4d4d;
      }

      .cls-1, .cls-2, .cls-3, .cls-4, .cls-5, .cls-6, .cls-7, .cls-8, .cls-9 {
        stroke-width: 0px;
      }

      .cls-2 {
        fill: #e0383f;
      }

      .cls-3 {
        fill: #e6e6e6;
      }

      .cls-5 {
        fill: #333;
      }

      .cls-6 {
        fill: #ccc;
      }

      .cls-7 {
        fill: #8c2328;
      }

      .cls-8 {
        fill: #404040;
      }

      .cls-9 {
        fill: #f2f2f2;
      }
    </style>
  </defs>
  <g id="Alien">
    <g id="Ship">
      <g id="Layer_19" data-name="Layer 19">
        <g>
          <path class="cls-1" d="m187.12,258.97c-5.32-40.41-27.49-56.94-27.49-56.94h-.04c2.1-10.01,3.63-20.86,4.22-32.39,1.33-26-10.45-58.52-24.2-86.98C122.76,46.33,102.4,16.1,100.62,13.49c-.06-.09-.19-.09-.25,0-1.77,2.61-22.05,32.73-38.87,68.96-13.8,28.53-25.65,61.17-24.32,87.25.59,11.63,2.15,22.56,4.27,32.64-2.93,2.38-22.19,19.32-27.1,56.63-4.21,32.03,6.88,51.45,11.67,58.13.72,1,2.29.6,2.45-.62,1.64-12.88,9.16-59.65,31.97-60.01,4.76,9.39,8.35,14.61,8.35,14.61h9.61c2.71,20.72,22.1,56.87,22.1,56.87,0,0,19.55-36.22,22.24-56.94h9.47s3.57-5.19,8.31-14.54c23.21-.34,30.83,47.02,32.48,60,.16,1.22,1.73,1.63,2.45.62,4.79-6.68,15.88-26.11,11.67-58.13Z"/>
          <path class="cls-1" d="m100.5,339.01h-.01c-4.07,0-7.8-2.24-9.72-5.83-1.8-3.35-15.73-29.69-21.36-51.05h-.61c-3.64,0-7.05-1.79-9.11-4.79-.11-.15-1.78-2.61-4.32-7.02-6.67,6.8-13.09,25.3-15.92,47.55-.65,5.1-4.29,9.21-9.27,10.47-4.98,1.26-10.13-.63-13.12-4.81-5.67-7.92-18.35-30.2-13.64-66.01,4.19-31.86,18.07-50.62,26.04-59.02-1.71-9.42-2.82-18.89-3.3-28.25-1.23-24.04,7.31-55.18,25.37-92.55C68.6,40.93,88.96,10.62,91.23,7.28c2.04-3.04,5.5-4.9,9.23-4.91h.04c3.71,0,7.17,1.83,9.26,4.9,2.29,3.36,22.74,33.81,39.85,70.66,17.98,37.24,26.47,68.28,25.25,92.27-.47,9.24-1.56,18.6-3.23,27.9,7.93,8.24,22.21,27.13,26.46,59.43h0c4.71,35.81-7.97,58.09-13.64,66.01-2.99,4.18-8.14,6.06-13.12,4.8-4.99-1.26-8.62-5.37-9.27-10.47-2.88-22.67-9.46-41.35-16.26-47.86-2.62,4.58-4.36,7.12-4.47,7.28-2.06,3-5.47,4.79-9.11,4.79h-.47c-5.65,21.37-19.7,47.77-21.51,51.13-1.93,3.57-5.66,5.8-9.73,5.8Zm-25.56-78.98h3.45c5.55,0,10.24,4.11,10.96,9.62,1.15,8.77,6.15,21.77,11.18,33.07,5.07-11.32,10.11-24.35,11.25-33.12.72-5.51,5.41-9.63,10.96-9.63h3.31c1.26-2.16,2.85-5.02,4.61-8.49,1.86-3.66,5.59-5.99,9.69-6.05,10.39-.14,24.8,5.31,34.84,32.19.49,1.3.95,2.61,1.39,3.92.63-6.12.63-13.16-.42-21.13h0c-4.37-33.18-20.89-47.68-23.02-49.42-.78-.56-1.49-1.23-2.11-1.99-2.1-2.58-2.94-5.98-2.26-9.23,2.14-10.21,3.48-20.53,4-30.69,1.02-19.97-6.97-48.19-23.12-81.61l-.07-.16c-10.09-21.76-21.39-41.16-29.09-53.59-7.67,12.41-18.91,31.71-28.98,53.39-.02.05-.05.1-.07.16-16.22,33.54-24.25,61.86-23.23,81.88.52,10.23,1.88,20.64,4.05,30.93.85,4.05-.63,8.24-3.84,10.85-1.9,1.55-18.72,16.09-23.12,49.5-1.03,7.86-1.05,14.82-.45,20.88,6.33-18.84,17.1-35.58,35.4-35.87,4.24-.05,8.12,2.28,10.03,6.05,1.78,3.5,3.38,6.38,4.65,8.56ZM109.55,19.64s-.04.06-.07.1c.02-.03.05-.07.07-.1Z"/>
        </g>
        <g>
          <path class="cls-9" d="m187.12,258.97c-5.32-40.41-27.49-56.94-27.49-56.94h-.04c2.1-10.01,3.63-20.86,4.22-32.39,1.33-26-10.45-58.52-24.2-86.98C122.76,46.33,102.4,16.1,100.62,13.49c-.06-.09-.19-.09-.25,0-1.77,2.61-22.05,32.73-38.87,68.96-13.8,28.53-25.65,61.17-24.32,87.25.59,11.63,2.15,22.56,4.27,32.64-2.93,2.38-22.19,19.32-27.1,56.63-4.21,32.03,6.88,51.45,11.67,58.13.72,1,2.29.6,2.45-.62,1.64-12.88,9.16-59.65,31.97-60.01,4.76,9.39,8.35,14.61,8.35,14.61h9.61c2.71,20.72,22.1,56.87,22.1,56.87,0,0,19.55-36.22,22.24-56.94h9.47s3.57-5.19,8.31-14.54c23.21-.34,30.83,47.02,32.48,60,.16,1.22,1.73,1.63,2.45.62,4.79-6.68,15.88-26.11,11.67-58.13Z"/>
          <path class="cls-9" d="m100.5,341.38h-.02c-4.94,0-9.47-2.72-11.81-7.08-1.77-3.29-15.11-28.52-21.09-49.85-3.96-.36-7.58-2.46-9.85-5.77-.08-.12-1.08-1.58-2.68-4.22-4.9,7.03-10.5,21.99-13.27,43.71-.77,6.07-5.11,10.97-11.04,12.47-5.93,1.5-12.07-.75-15.63-5.72-5.83-8.14-18.89-31.05-14.06-67.69,4.13-31.39,17.55-50.4,25.85-59.45-1.61-9.13-2.66-18.31-3.12-27.38-1.25-24.44,7.37-55.96,25.59-93.68C66.54,39.76,86.99,9.3,89.27,5.95c2.47-3.68,6.66-5.93,11.18-5.95h.05c4.49,0,8.68,2.22,11.22,5.93,2.3,3.38,22.85,33.97,40.03,70.98,18.15,37.6,26.72,69.02,25.47,93.41-.46,8.96-1.48,18.02-3.06,27.03,8.31,8.95,22.09,28.11,26.27,59.87h0c4.82,36.65-8.23,59.55-14.07,67.7-3.56,4.97-9.7,7.22-15.63,5.72-5.94-1.5-10.27-6.4-11.04-12.47-2.82-22.18-8.58-37.26-13.55-44.1-1.71,2.85-2.79,4.43-2.88,4.55-2.25,3.27-5.81,5.36-9.71,5.75-6,21.36-19.47,46.66-21.25,49.96-2.34,4.34-6.88,7.05-11.81,7.05Zm-24.19-83.71h2.08c6.74,0,12.43,5,13.31,11.68.96,7.3,4.68,17.67,8.84,27.47,4.19-9.83,7.95-20.22,8.9-27.52.87-6.69,6.57-11.69,13.31-11.69h1.95c1.11-1.95,2.43-4.36,3.87-7.2,2.25-4.44,6.79-7.27,11.77-7.34.15,0,.31,0,.46,0,10.11,0,23.64,4.95,33.81,26.94-.1-2.93-.35-6.02-.78-9.28h0c-4.22-32.08-20.04-46.14-22.13-47.86-.92-.67-1.76-1.46-2.49-2.37-2.55-3.14-3.57-7.26-2.74-11.21,2.11-10.09,3.44-20.29,3.95-30.33,1-19.58-6.91-47.4-22.88-80.46-.03-.06-.06-.13-.09-.19-9.19-19.82-19.39-37.67-26.93-50.04-7.54,12.39-17.76,30.29-26.84,49.84-.03.06-.06.13-.09.19-16.05,33.19-24,61.1-23,80.73.52,10.11,1.86,20.39,4,30.56,1.04,4.92-.76,10-4.66,13.18-1.83,1.49-17.99,15.47-22.26,47.97-.42,3.19-.67,6.23-.77,9.11,6.93-14.88,17.43-26.52,33.34-26.77,5.15-.08,9.86,2.77,12.18,7.35,1.45,2.86,2.78,5.3,3.9,7.26ZM111.52,20.96s-.04.06-.08.11c.03-.04.05-.07.08-.11Z"/>
        </g>
      </g>
      <g>
        <path class="cls-2" d="m41.84,202.03s-22.17,16.53-27.49,56.94c-4.21,32.03,6.88,51.45,11.67,58.13.72,1,2.29.6,2.45-.62,1.66-13.08,9.39-61.1,33.03-59.99h78.47c23.64-1.11,31.37,46.91,33.03,59.99.16,1.22,1.73,1.63,2.45.62,4.79-6.68,15.88-26.11,11.67-58.13-5.32-40.41-27.49-56.94-27.49-56.94"/>
        <path class="cls-7" d="m187.12,258.97c-3.28-24.89-12.94-40.71-19.89-49.2,3.41,7.86,6.35,17.53,7.89,29.2,3.21,24.37-2.45,41.43-7.45,51.14,3.1,10.78,4.68,21.25,5.33,26.37.16,1.22,1.73,1.63,2.45.62,4.79-6.68,15.88-26.11,11.67-58.13Z"/>
        <path class="cls-4" d="m174.37,322.41c-.5,0-1.01-.06-1.51-.19-2.45-.62-4.24-2.64-4.55-5.14-3.34-26.22-12.67-56.57-28.11-55.85h-.22s-78.69,0-78.69,0c-15.37-.7-24.77,29.64-28.11,55.86-.32,2.5-2.11,4.52-4.55,5.14-2.44.62-4.97-.31-6.44-2.36-5.23-7.31-16.93-27.93-12.51-61.51,5.52-41.92,28.38-59.4,29.35-60.12l3.8-2.83,5.66,7.59-3.78,2.82c-.35.27-20.69,16.2-25.64,53.77-2.88,21.89,1.68,37.43,6.16,46.77,3.83-21.93,13.47-55.54,36.4-54.61h78.26c22.9-.93,32.56,32.68,36.4,54.61,4.48-9.34,9.04-24.88,6.16-46.77-4.96-37.7-25.43-53.62-25.64-53.77l-3.76-2.85,5.65-7.55,3.78,2.82c.97.72,23.84,18.21,29.36,60.12,4.42,33.58-7.28,54.2-12.52,61.51-1.17,1.63-3,2.55-4.93,2.55Z"/>
      </g>
      <g>
        <path class="cls-3" d="m37.18,169.7c3.05,59.85,31.61,101.39,31.61,101.39h31.71v-.06h31.71s28.56-41.54,31.61-101.39c3.05-59.85-63.32-154.21-63.32-154.21,0,0-66.37,94.42-63.32,154.27Z"/>
        <path class="cls-6" d="m131.72,67.1c12.82,27.36,23.35,57.88,22.09,82.54-3.05,59.85-31.61,101.39-31.61,101.39h-31.71v.06h-31.71s-1.44-2.09-3.7-6c7.16,16.48,13.7,26,13.7,26h31.71v-.06h31.71s28.56-41.54,31.61-101.39c1.58-30.89-15.35-70.98-32.09-102.54Z"/>
        <path class="cls-4" d="m100.5,275.82h-31.71c-1.56,0-3.02-.77-3.9-2.05-1.2-1.74-29.35-43.34-32.43-103.83C29.35,109.16,93.87,16.62,96.62,12.71c.89-1.26,2.33-2.01,3.87-2.01s2.99.75,3.87,2.01c2.75,3.91,67.27,96.39,64.17,157.17-3.08,60.49-31.24,102.09-32.43,103.83-.88,1.29-2.34,2.05-3.9,2.05h-30.95c-.25.04-.5.06-.75.06Zm-29.12-9.47h28.37c.25-.04.5-.06.75-.06h29.12c5.55-8.97,26.9-46.5,29.47-96.89,2.51-49.24-44.57-124.32-58.58-145.5-14.02,21.2-61.1,96.33-58.59,145.57,2.58,50.5,23.91,87.94,29.46,96.89Z"/>
      </g>
      <g>
        <path class="cls-2" d="m147.59,101.86c-45.73-29.55-89.48-3.02-94.16,0-.13.08-.28-.05-.23-.19C70.77,57.44,98.3,16.54,100.37,13.49c.06-.09.19-.09.25,0,2.08,3.06,29.63,43.96,47.2,88.19.06.14-.1.27-.23.18Z"/>
        <path class="cls-7" d="m150.82,101.67c-17.57-44.22-45.12-85.13-47.2-88.19-.06-.09-.19-.09-.25,0-.6.89-3.35,4.97-7.37,11.38,15.03,23.95,22.53,36.28,36.11,67.84,6.06,2.15,12.26,5.12,18.49,9.15.13.08.28-.04.23-.18Z"/>
        <path class="cls-4" d="m147.68,106.62c-.92,0-1.84-.26-2.66-.79h0c-43.18-27.9-84.47-2.94-89.03,0-1.8,1.15-4.11,1.02-5.75-.34-1.65-1.35-2.22-3.59-1.44-5.57C66.38,55.64,93.43,15.28,96.45,10.83c.89-1.33,2.4-2.14,4.02-2.14h.02c1.62,0,3.13.8,4.04,2.14,3.03,4.46,30.1,44.84,47.69,89.1.79,1.98.21,4.23-1.44,5.58-.9.74-2,1.12-3.1,1.12Zm-4.26-3.2s0,0,0,0c0,0,0,0,0,0Zm6.75-5.54s0,0,0,0c0,0,0,0,0,0ZM100.5,21.92c-7.51,11.65-24.56,39.29-38.03,69.88,15.63-6.84,44.61-14.9,75.88-.44-13.44-30.42-30.38-57.85-37.85-69.44Zm3.81-5.79s-.02.03-.03.04l.03-.04Z"/>
      </g>
      <g>
        <path class="cls-2" d="m78.16,268.9c1.51,20.25,22.33,59.06,22.33,59.06,0,0,20.95-38.82,22.47-59.06,2.84-37.93-22.33-66.87-22.33-66.87,0,0-25.3,28.93-22.47,66.87Z"/>
        <path class="cls-7" d="m98.39,273.15c.83,18.79,5.06,45.9,5.06,45.9,0,0,18.78-27.11,19.61-45.9,1.56-35.2-17.7-63.28-17.7-63.28,0,0-8.54,28.08-6.98,63.28Z"/>
        <path class="cls-4" d="m100.5,332.7h0c-1.74,0-3.34-.96-4.17-2.5-.87-1.62-21.31-39.94-22.88-60.95h0c-2.95-39.46,22.54-69.1,23.62-70.34.9-1.03,2.2-1.62,3.57-1.62h0c1.37,0,2.67.6,3.57,1.63,1.08,1.24,26.43,30.88,23.48,70.33-1.57,21.01-22.15,59.34-23.02,60.96-.83,1.53-2.43,2.49-4.17,2.49Zm-17.61-64.15c1.01,13.58,11.59,36.73,17.62,49,6.07-12.26,16.71-35.42,17.73-49,2.01-26.86-11.07-49.28-17.62-58.68-6.58,9.38-19.74,31.82-17.73,58.68h0Z"/>
      </g>
      <g>
        <path class="cls-5" d="m125.67,136.85c0,13.8-11.01,21.45-24.82,21.45s-25.17-7.64-25.17-21.45,11.37-21.45,25.17-21.45,24.82,7.64,24.82,21.45Z"/>
        <path class="cls-8" d="m87.26,155.87c-1.92-2.9-3.1-6.43-3.31-10.57-.71-13.78,9.9-21.98,23.68-22.69,4.9-.25,9.55.48,13.53,2.15-4.54-6.83-13.23-10.18-22.93-9.68-13.78.71-24.39,8.9-23.68,22.69.46,8.99,5.46,15.12,12.71,18.1Z"/>
        <path class="cls-4" d="m100.85,163.03c-17.61,0-29.91-10.77-29.91-26.18s12.3-26.18,29.91-26.18,29.55,10.77,29.55,26.18-12.15,26.18-29.55,26.18Zm0-42.89c-9.43,0-20.43,4.38-20.43,16.71s11.01,16.71,20.43,16.71,20.08-4.38,20.08-16.71-10.82-16.71-20.08-16.71Z"/>
      </g>
      <rect class="cls-4" x="95.89" y="202.03" width="9.47" height="123.08"/>
    </g>
  </g>
</svg>