<?xml version="1.0" encoding="UTF-8"?>
<svg id="Layer_2" data-name="Layer 2" xmlns="http://www.w3.org/2000/svg" viewBox="0 0 367.81 234.57">
  <defs>
    <style>
      .cls-1 {
        fill: #4d4d4d;
      }

      .cls-1, .cls-2, .cls-3, .cls-4, .cls-5, .cls-6, .cls-7, .cls-8 {
        stroke-width: 0px;
      }

      .cls-2 {
        fill: #666;
      }

      .cls-3 {
        fill: #4fa19d;
      }

      .cls-5 {
        fill: #b3b3b3;
      }

      .cls-6 {
        fill: #38827f;
      }

      .cls-7 {
        fill: #add1d6;
      }

      .cls-8 {
        fill: #f2f2f2;
      }
    </style>
  </defs>
  <g id="Alien">
    <g id="Ovni">
      <g>
        <g>
          <path class="cls-3" d="m344.36,148.15c-4.86-23-51.93-28.85-69.42-35.49h-.07c-7.25-22.85-33.76-90.53-93.24-89.37-57.13,1.12-79.81,65.48-86.27,89.38-17.53,6.63-67.09,11.89-71.95,34.87-2.17,10.26,25.95,23.05,66.42,31.95l-1.69,1.47c7.36,16.63,52.82,30.54,97.7,30.31,43.69-.22,86.82-14.13,93.99-30.31l-.08-.56c39.66-8.85,66.77-22.01,64.61-32.26Z"/>
          <path class="cls-4" d="m183.14,23.28c58.42,0,84.54,66.73,91.73,89.38h.07c17.49,6.64,64.56,12.49,69.42,35.49,2.17,10.25-24.95,23.41-64.61,32.26l.08.56c-7.17,16.19-50.31,30.1-93.99,30.31-.36,0-.71,0-1.07,0-44.53,0-89.32-13.82-96.63-30.32l1.69-1.47c-40.47-8.89-68.59-21.69-66.42-31.95,4.85-22.98,54.42-28.24,71.95-34.87,6.46-23.91,29.14-88.26,86.27-89.38.51-.01,1.01-.01,1.52-.01m0-3.73h0c-.53,0-1.06,0-1.59.02-25.82.51-47.73,13.2-65.1,37.72-13.33,18.81-20.72,40.29-24.17,52.53-3.96,1.33-9.27,2.64-15.29,4.14-22.4,5.56-53.08,13.17-57.23,32.83-1.49,7.03,4.82,13.78,19.27,20.62,11.35,5.37,27.03,10.44,45.54,14.73l.15.34c5.35,12.07,25.26,19.84,36.65,23.39,18.89,5.9,41.4,9.14,63.38,9.14.36,0,.72,0,1.09,0,21.5-.11,43.45-3.43,61.82-9.35,18.25-5.89,30.61-13.7,35.04-22.1,18.98-4.36,35.08-9.67,46.69-15.42,13.81-6.84,20.08-13.83,18.61-20.76-4.2-19.88-34.12-27.8-55.96-33.58-5.56-1.47-10.45-2.77-14.2-4.05-3.99-12.15-12.37-33.6-26.65-52.52-18.87-25-41.77-37.68-68.05-37.68h0Z"/>
        </g>
        <path class="cls-8" d="m184.75,234.57c-23.7,0-48.05-3.5-68.71-9.88-20.62-6.37-35.27-14.89-43.73-25.41-16.52-4.2-30.75-9.04-41.64-14.2-8.31-3.93-14.66-8.01-19.42-12.48C-1.05,161.06-.69,148.94.62,142.74c3.23-15.31,14.61-27.4,33.83-35.95,12.33-5.49,26.46-8.99,37.82-11.81,1.5-.37,3.02-.75,4.49-1.12,4.59-13.57,12.14-31.52,23.73-47.87C121.36,16.54,149.25.64,181.17.02c32.84-.61,62.33,14.86,85.18,44.84,12.8,16.78,21.35,35.24,26.58,48.95,1.33.36,2.71.72,4.11,1.09,25.25,6.68,63.41,16.78,70.1,48.44h0c2.44,11.54-.63,28.25-29.07,42.33-11.39,5.64-26.37,10.84-43.73,15.21-22.76,26.04-78.88,33.54-108.39,33.69-.4,0-.8,0-1.2,0Zm-58.82-55.64c14.18,4.82,35.53,9.24,59.78,9.07,17.05-.08,34.7-2.51,49.7-6.84,9.82-2.83,16.16-5.79,19.86-7.99l-1.46-10.83,20.86-4.66c15.61-3.48,27.03-7.17,34.99-10.33-7.59-2.96-16.57-5.33-24.53-7.44-5.21-1.38-9.91-2.62-14.09-3.97h-13.14l-5.22-16.24c-5.47-17.24-26.56-73.14-69.61-73.14-.33,0-.65,0-.98,0-41.73.82-59.73,55.45-64.25,72.18l-3.11,11.49-11.13,4.21c-5.57,2.11-12.3,3.78-20.1,5.71-7.65,1.9-16.22,4.03-23.69,6.64,8.19,3.05,19.64,6.56,35.02,9.94l45.17,9.93-14.06,12.24Zm196.16-24.63h.01-.01Z"/>
      </g>
      <g>
        <path class="cls-1" d="m279.82,180.97c-7.17,16.19-50.31,30.1-93.99,30.31-44.88.22-90.33-13.69-97.7-30.31l13.52-11.77,176.76,1.4,1.4,10.37Z"/>
        <path class="cls-4" d="m101.66,169.2l176.76,1.4,1.4,10.37c-7.17,16.19-50.31,30.1-93.99,30.31-.35,0-.71,0-1.07,0-44.53,0-89.32-13.82-96.63-30.32l13.52-11.77m-4.84-13.08l-3.73,3.24-13.52,11.77-7.26,6.32,3.9,8.8c5.21,11.77,19.47,21.36,42.39,28.51,19.76,6.17,43.26,9.56,66.16,9.56.38,0,.76,0,1.13,0,22.43-.11,45.38-3.59,64.63-9.8,22.22-7.16,36.09-16.68,41.22-28.27l1.49-3.37-.49-3.66-1.4-10.37-1.52-11.2-11.3-.09-176.76-1.4-4.94-.04h0Z"/>
      </g>
      <g>
        <path class="cls-5" d="m95.39,112.66c-17.49,6.63-67.13,11.89-71.99,34.89-3.75,17.76,83.31,43.13,168.04,42.69,80.58-.42,156.48-25.19,152.91-42.09-4.86-23-51.93-28.85-69.42-35.49H95.39Z"/>
        <path class="cls-4" d="m274.94,112.66c17.49,6.63,64.56,12.49,69.42,35.49,3.57,16.89-72.33,41.66-152.91,42.09-.74,0-1.47,0-2.21,0-84.02,0-169.55-25.09-165.83-42.69,4.86-23,54.5-28.25,71.99-34.89h179.55m2.39-13.04H93l-2.23.85c-3.56,1.35-9.61,2.85-16.02,4.44-24.79,6.15-58.74,14.58-64.1,39.94-.71,3.37-1.05,10.07,4.66,17.12,11.14,13.74,42.15,23.36,66.2,29,33.81,7.93,72.07,12.3,107.73,12.3.76,0,1.51,0,2.27,0,33.72-.18,69.29-4.54,100.14-12.29,21.75-5.46,49.93-14.77,60.72-28.15,5.51-6.83,5.62-13.23,4.74-17.39-5.39-25.49-38.51-34.26-62.69-40.66-5.87-1.55-11.41-3.02-14.86-4.33l-2.23-.85h0Z"/>
      </g>
      <path class="cls-2" d="m344.36,148.15c-4.35-20.58-42.47-27.43-62.98-33.4,13.1,5.07,24.27,12.01,26.5,22.59,3.15,14.9-55.55,35.94-124.76,40.98-9.24.67-18.66,1.06-28.16,1.11-37.35.2-75.15-4.63-105.42-11.6,31.59,12.23,87.23,22.69,141.9,22.41,80.58-.42,156.48-25.19,152.91-42.09Z"/>
      <g>
        <path class="cls-7" d="m293.95,141.26c2.75-6.19,11.06-7.25,19.06-3.75,7.99,3.5,12.64,10.24,9.89,16.44-2.75,6.19-12.55,5.98-20.54,2.48-7.99-3.5-11.15-8.97-8.41-15.17Z"/>
        <path class="cls-4" d="m304.18,135.53c2.78,0,5.82.67,8.82,1.99,7.99,3.5,12.64,10.24,9.89,16.44-1.54,3.47-5.28,4.93-9.68,4.93-3.46,0-7.34-.9-10.86-2.45-7.99-3.5-11.15-8.97-8.41-15.17,1.72-3.87,5.61-5.74,10.23-5.74m0-7.45h0c-7.85,0-14.23,3.8-17.05,10.17-1.96,4.42-2.14,8.95-.52,13.12,1.34,3.46,4.65,8.34,12.75,11.89,4.52,1.98,9.44,3.08,13.85,3.08,7.85,0,13.86-3.41,16.49-9.36,1.83-4.14,1.92-8.6.25-12.9-2.16-5.56-7.25-10.43-13.96-13.38-3.9-1.71-7.99-2.61-11.81-2.61h0Z"/>
      </g>
      <g>
        <path class="cls-7" d="m76.37,138.9c2.33,6.79-3.4,13.58-12.16,16.58s-17.24,1.08-19.56-5.72c-2.33-6.79,5.47-13.65,14.23-16.65,8.76-3,15.17-1,17.49,5.79Z"/>
        <path class="cls-4" d="m66.12,131.76c5.01,0,8.62,2.4,10.25,7.14,2.33,6.79-3.4,13.58-12.16,16.58-2.67.92-5.32,1.37-7.77,1.37-5.59,0-10.17-2.37-11.79-7.09-2.33-6.79,5.47-13.65,14.23-16.65,2.65-.91,5.08-1.36,7.25-1.36m0-5.59h0c-2.8,0-5.84.56-9.06,1.66-11.49,3.93-21.26,13.35-17.71,23.74,2.33,6.8,8.71,10.87,17.08,10.87,3.12,0,6.34-.56,9.58-1.67,5.38-1.84,9.95-4.95,12.86-8.76,3.51-4.59,4.49-9.88,2.77-14.92-2.38-6.94-8.04-10.92-15.53-10.92h0Z"/>
      </g>
      <g>
        <path class="cls-7" d="m193.16,175.8c-.78,5.06-4.15,9.27-9.27,9.27s-9.27-4.15-9.27-9.27,4.7-10.37,9.82-10.37,9.82,3.27,8.73,10.37Z"/>
        <path class="cls-4" d="m184.43,165.43c5.12,0,9.82,3.27,8.73,10.37-.78,5.06-4.15,9.27-9.27,9.27s-9.27-4.15-9.27-9.27,4.7-10.37,9.82-10.37m0-5.59c-8.06,0-15.41,7.6-15.41,15.95s6.67,14.86,14.86,14.86c7.44,0,13.53-5.76,14.8-14.01.92-5.95-1.12-9.79-2.98-11.96-2.64-3.07-6.75-4.84-11.27-4.84h0Z"/>
      </g>
      <g>
        <path class="cls-3" d="m181.62,23.3c-70.19,1.38-88.38,98.2-88.38,98.2,0,0,2.81,26.65,92.59,25.25,91.22-1.43,91.19-26.65,91.19-26.65,0,0-23.85-98.2-95.4-96.8Z"/>
        <path class="cls-6" d="m205.09,26.68c33.28,23.2,48.04,69.49,51.24,80.85.66,2.35.34,4.87-.98,6.93-4.66,7.29-22.35,21.24-89.52,22.29-32.12.5-53.11-2.59-66.82-6.76,8.81,7.67,31.01,17.64,86.82,16.76,91.22-1.43,91.19-26.65,91.19-26.65,0,0-18.54-76.29-71.93-93.41Z"/>
        <path class="cls-4" d="m183.14,23.28c70.36,0,93.88,96.81,93.88,96.81,0,0,.03,25.23-91.19,26.65-2.31.04-4.54.05-6.74.05-83.18,0-85.85-25.31-85.85-25.31,0,0,18.19-96.82,88.38-98.2.51-.01,1.01-.01,1.52-.01m0-13.04c-.59,0-1.17,0-1.77.02-33.64.66-61.89,20.16-81.7,56.4-14.15,25.89-19.04,51.36-19.24,52.43l-.35,1.88.2,1.9c.32,3.04,2.59,13.66,18.23,22.6,16.68,9.54,43.8,14.37,80.59,14.37,2.27,0,4.6-.02,6.94-.06,40.05-.63,69-5.86,86.05-15.57,16.7-9.5,17.98-20.88,17.98-24.14v-1.55s-.37-1.51-.37-1.51c-.26-1.07-6.53-26.46-22.08-52.09-21.69-35.78-50.9-54.68-84.47-54.68h0Z"/>
      </g>
      <path class="cls-8" d="m111.48,120.08c-.2,0-.4-.02-.61-.07-1.51-.33-2.46-1.83-2.12-3.33,2.85-12.81,7.06-21.33,7.24-21.69.69-1.38,2.37-1.94,3.75-1.25,1.38.69,1.94,2.37,1.25,3.75-.04.08-4.1,8.3-6.79,20.4-.29,1.3-1.44,2.19-2.73,2.19Z"/>
      <path class="cls-8" d="m126.91,79.4c-.36,0-.73-.07-1.09-.22-1.42-.6-2.09-2.23-1.49-3.65.48-1.14,12.14-28,46.69-38.07,1.48-.43,3.03.42,3.46,1.9.43,1.48-.42,3.03-1.9,3.46-31.9,9.3-42.99,34.63-43.1,34.88-.45,1.06-1.49,1.7-2.58,1.7Z"/>
    </g>
  </g>
</svg>