<?xml version="1.0" encoding="UTF-8"?>
<svg id="Layer_2" data-name="Layer 2" xmlns="http://www.w3.org/2000/svg" viewBox="0 0 382.12 382.12">
  <defs>
    <style>
      .cls-1 {
        fill: #b5442c;
      }

      .cls-1, .cls-2, .cls-3, .cls-4, .cls-5 {
        stroke-width: 0px;
      }

      .cls-3 {
        fill: #e66a4e;
      }

      .cls-4 {
        fill: #f7a648;
      }

      .cls-5 {
        fill: #f2f2f2;
      }
    </style>
  </defs>
  <g id="Basket">
    <g id="Option_2" data-name="Option 2">
      <g id="Ball">
        <g>
          <path class="cls-5" d="m191.06,41.63c82.53,0,149.43,66.9,149.43,149.43s-66.9,149.43-149.43,149.43S41.63,273.59,41.63,191.06,108.53,41.63,191.06,41.63m0-41.63c-25.77,0-50.8,5.06-74.38,15.03-22.76,9.63-43.18,23.4-60.72,40.93-17.53,17.53-31.3,37.96-40.93,60.72C5.06,140.26,0,165.28,0,191.06s5.06,50.8,15.03,74.38c9.63,22.76,23.4,43.18,40.93,60.72,17.53,17.53,37.96,31.3,60.72,40.93,23.58,9.97,48.61,15.03,74.38,15.03s50.8-5.06,74.38-15.03c22.76-9.63,43.18-23.4,60.72-40.93,17.53-17.53,31.3-37.96,40.93-60.72,9.97-23.58,15.03-48.61,15.03-74.38s-5.06-50.8-15.03-74.38c-9.62-22.76-23.4-43.18-40.93-60.72-17.53-17.53-37.96-31.3-60.72-40.93C241.86,5.06,216.83,0,191.06,0h0Z"/>
          <g>
            <circle class="cls-3" cx="191.06" cy="191.06" r="159.84" transform="translate(-79.14 191.06) rotate(-45)"/>
            <path class="cls-2" d="m191.06,41.63c82.53,0,149.43,66.9,149.43,149.43s-66.9,149.43-149.43,149.43S41.63,273.59,41.63,191.06,108.53,41.63,191.06,41.63m0-20.81c-22.97,0-45.27,4.5-66.27,13.39-20.28,8.58-38.48,20.85-54.11,36.48-15.63,15.63-27.9,33.83-36.48,54.11-8.88,21-13.39,43.3-13.39,66.27s4.5,45.27,13.39,66.27c8.58,20.28,20.85,38.48,36.48,54.11,15.63,15.63,33.83,27.9,54.11,36.48,21,8.88,43.3,13.39,66.27,13.39s45.27-4.5,66.27-13.39c20.28-8.58,38.48-20.85,54.11-36.48,15.63-15.63,27.9-33.83,36.48-54.11,8.88-21,13.39-43.3,13.39-66.27s-4.5-45.27-13.39-66.27c-8.58-20.28-20.85-38.48-36.48-54.11-15.63-15.63-33.83-27.9-54.11-36.48-21-8.88-43.3-13.39-66.27-13.39h0Z"/>
          </g>
        </g>
        <path class="cls-1" d="m244.05,293.34c-67.71,35.32-150.03,13.66-192.2-47.74,2.12,5.63,4.59,11.19,7.44,16.66,38.17,73.17,128.43,101.55,201.6,63.38,73.17-38.17,101.55-128.43,63.38-201.6-2.85-5.47-6-10.68-9.4-15.63,26.23,69.71-3.11,149.62-70.82,184.94Z"/>
        <path class="cls-2" d="m41.63,180.65c101.31,5.72,202.9,5.41,304.22,0,0,0,0,20.81,0,20.81-75.98-4.43-152.09-4.76-228.16-3.19-25.35.59-50.7,1.48-76.05,3.19,0,0,0-20.81,0-20.81h0Z"/>
        <g>
          <line class="cls-4" x1="193.74" y1="38.95" x2="193.74" y2="343.17"/>
          <path class="cls-2" d="m204.14,38.95c-5.72,101.31-5.41,202.9,0,304.22,0,0-20.81,0-20.81,0,4.43-75.98,4.76-152.09,3.19-228.16-.59-25.35-1.48-50.7-3.19-76.05h20.81Z"/>
        </g>
        <path class="cls-2" d="m96.48,71.46c8.86,13.17,19.12,27.6,28.46,40.55,10.16,13.79,20.47,27.7,26.51,44.09,8.89,22.27,8.74,47.54-.23,69.75-5.86,15.95-16.65,30.48-26.48,44.02-9.27,12.99-19.42,27.48-28.21,40.72,0,0-16.59-12.57-16.59-12.57,12.23-14.18,24.99-29.96,36.73-44.62,32.65-38.19,37.07-78.06,5.36-118.55-5.68-7.35-14.76-18.2-20.7-25.52-7.05-8.46-14.08-16.92-21.34-25.21,0,0,16.51-12.67,16.51-12.67h0Z"/>
        <path class="cls-2" d="m303.76,84.14c-10.46,11.93-21.69,25.63-31.81,37.98-17.22,20.39-31.89,41.18-31.92,68.85,0,23.44,12.15,44.82,27.04,62.45,11.75,14.66,24.48,30.42,36.73,44.62,0,0-16.59,12.57-16.59,12.57-8.78-13.22-18.96-27.72-28.21-40.72-9.84-13.58-20.61-28.05-26.48-44.02-6.57-16.57-8.69-35.13-5.18-52.68,3.35-17.34,11.66-33.53,21.68-47.69,2.89-4.21,6.87-9.34,9.78-13.48,9.35-12.93,19.59-27.36,28.46-40.55,0,0,16.51,12.67,16.51,12.67h0Z"/>
      </g>
    </g>
  </g>
</svg>