<?xml version="1.0" encoding="UTF-8"?>
<svg id="Layer_2" data-name="Layer 2" xmlns="http://www.w3.org/2000/svg" viewBox="0 0 374.01 285.4">
  <defs>
    <style>
      .cls-1 {
        fill: #b3b3b3;
      }

      .cls-1, .cls-2, .cls-3, .cls-4 {
        stroke-width: 0px;
      }

      .cls-2 {
        fill: #787878;
      }

      .cls-3 {
        fill: #f02828;
      }

      .cls-4 {
        fill: #f2f2f2;
      }
    </style>
  </defs>
  <g id="Basket">
    <g id="Option_2" data-name="Option 2">
      <g id="Basket-2" data-name="Basket">
        <g>
          <path class="cls-4" d="m289.48,285.4c-4.96,0-9.86-1.93-13.53-5.65l-49.6-50.23-25.49,25.46c-7.39,7.39-19.37,7.42-26.79.06l-26.1-25.83-49.9,50.53c-6.1,6.18-15.61,7.44-23.1,3.06-7.5-4.38-11.07-13.28-8.69-21.62,10.47-36.65,14.58-72.03,12.33-105.73-.17-1.06-.26-2.15-.25-3.24,0-.03,0-.07,0-.1-1.43-17.99-4.69-35.5-9.77-52.47-.87-2.91-1.77-5.71-2.69-8.41l-26.74-52.36c-.76-1.41-1.33-2.9-1.71-4.42-.58-2.31-.71-4.67-.42-6.96.38-3.04,1.49-6.01,3.34-8.62.96-1.36,2.12-2.61,3.45-3.71,2.12-1.74,4.52-2.96,7.04-3.65,2.12-.58,4.3-.78,6.45-.62,3.32.25,6.59,1.37,9.43,3.35.99.69,1.93,1.48,2.79,2.37l29.25,29.62,33.83-32.15c7.34-6.97,18.85-6.97,26.18,0l28.22,26.83,26.94-25.61c7.34-6.97,18.85-6.97,26.19,0l33.86,32.19,30.63-31.02c7.12-7.22,18.66-7.56,26.21-.79,7.55,6.78,8.44,18.28,2.03,26.15-.11.14-16.32,20.67-27.44,57.79-5.08,16.97-8.34,34.48-9.77,52.47v.06c.01,1.11-.07,2.21-.25,3.29-2.25,33.7,1.86,69.08,12.33,105.73,2.38,8.35-1.19,17.25-8.69,21.62-2.99,1.74-6.29,2.59-9.58,2.59Zm-114.8-83.22l12.7,12.57,12.28-12.27-12.64-12.8-12.34,12.5Zm-58.51-4.45c-.25,3.47-.57,7-.94,10.57l5.74-5.82-4.8-4.76Zm137.07,4.93l5.57,5.64c-.36-3.48-.67-6.91-.92-10.29l-4.65,4.65Zm-39.52-40.02l12.82,12.98,22.91-22.89-13.38-12.72-22.34,22.63Zm-89.06-9.97l23.01,22.77,12.65-12.81-22.34-22.63-13.31,12.66Zm40.86-38.85l21.5,21.78,21.5-21.78-21.5-20.45-21.5,20.45Zm-54.5-1.11c.03.14.06.28.09.42l.17-.16-.26-.26Zm151.76.26l.17.16c.03-.14.06-.28.08-.42l-.26.26Zm-137.28-39.68l13.32,13.49,20.64-19.62-13.75-13.07-20.21,19.21Zm89.1-6.14l20.64,19.62,12.07-12.22-20.24-19.25-12.46,11.85Z"/>
          <path class="cls-1" d="m289.48,274.4c-2.09,0-4.15-.81-5.7-2.38l-57.37-58.1-33.31,33.28c-3.11,3.11-8.15,3.12-11.28.03l-33.92-33.57-57.63,58.37c-2.57,2.6-6.57,3.13-9.73,1.29-3.16-1.84-4.66-5.59-3.66-9.1,21.35-74.75,12.83-133.08,1.93-168.86-.89-2.91-1.8-5.71-2.74-8.42l-27.21-53.27c-.32-.6-.57-1.23-.73-1.88-.24-.96-.29-1.94-.17-2.89.16-1.29.63-2.55,1.41-3.65.4-.57.89-1.1,1.45-1.56.89-.74,1.91-1.25,2.97-1.54,0,0,0,0,0,0h0c.89-.24,1.8-.33,2.7-.26,1.4.1,2.78.57,3.98,1.41.42.29.81.63,1.18,1l36.91,37.38,41.65-39.58c3.09-2.94,7.94-2.93,11.02,0l35.8,34.04,34.52-32.82c3.09-2.94,7.94-2.94,11.03,0l41.68,39.63,38.21-38.7c3-3.04,7.86-3.18,11.04-.33,3.18,2.85,3.55,7.7.86,11.01-.16.2-17.28,21.64-29.11,60.45-10.9,35.77-19.42,94.1,1.93,168.86,1,3.51-.5,7.26-3.66,9.1-1.26.73-2.65,1.09-4.03,1.09Zm-183.43-102.16c.09,20.52-1.84,43.26-6.85,67.95l37.32-37.79-30.47-30.16Zm131.68,30.37l37.11,37.58c-5-24.64-6.94-47.33-6.85-67.81l-30.26,30.23Zm-78.6-.34l28.28,27.99,27.75-27.73-28.15-28.51-27.89,28.24Zm39.13-39.63l28.22,28.58,38.72-38.68-29.38-27.94-37.56,38.04Zm-89.4-10.12l38.9,38.5,28.02-28.37-37.56-38.04-29.35,27.91Zm40.95-38.94l37.21,37.68,37.21-37.68-37.21-35.38-37.21,35.38Zm-56.36-25.01c.13.42.26.84.39,1.27,3.9,12.63,7.52,27.91,9.79,45.57l23.34-22.19-28.78-29.15-4.74,4.5Zm153.62,24.65l23.34,22.19c2.23-17.37,5.77-32.42,9.59-44.93l-5.4-5.14-27.53,27.88Zm-137.28-40.17l28.78,29.15,36.84-35.03-29.7-28.25-35.92,34.13Zm88.84-5.89l36.84,35.03,27.53-27.88-35.95-34.18-28.42,27.03Z"/>
          <path class="cls-2" d="m48.85,33.65l25.75,50.42h46.07l-10.89-11.02,35.92-34.13,29.7,28.25-17.78,16.91h23.22l6.17-5.87,6.17,5.87h23.22l-17.78-16.91,28.42-27.03,35.95,34.18-9.63,9.75h45.62c11.38-31.65,25.21-48.98,25.36-49.16,2.7-3.31,2.32-8.16-.86-11.01-3.18-2.85-8.04-2.71-11.04.33l-38.21,38.7-41.68-39.63c-3.09-2.94-7.94-2.94-11.03,0l-34.52,32.82-35.8-34.04c-3.09-2.94-7.94-2.94-11.02,0l-41.65,39.58L61.64,24.28c-.36-.38-.76-.71-1.18-1-1.2-.84-2.58-1.31-3.98-1.41-.9-.07-1.81.02-2.7.26,0,0,0,0,0,0-1.06.29-2.08.8-2.97,1.54-.56.46-1.04.98-1.45,1.56-.78,1.1-1.25,2.36-1.41,3.65-.12.95-.06,1.93.17,2.89.16.65.4,1.28.73,1.88Z"/>
        </g>
        <g>
          <path class="cls-4" d="m348.51,51H25.5C11.42,51,0,39.58,0,25.5S11.42,0,25.5,0h323.01c14.08,0,25.5,11.42,25.5,25.5s-11.42,25.5-25.5,25.5Z"/>
          <path class="cls-3" d="m348.51,42H25.5c-9.11,0-16.5-7.39-16.5-16.5s7.39-16.5,16.5-16.5h323.01c9.11,0,16.5,7.39,16.5,16.5s-7.39,16.5-16.5,16.5Z"/>
        </g>
      </g>
    </g>
  </g>
</svg>