<?xml version="1.0" encoding="UTF-8"?>
<svg id="Layer_2" data-name="Layer 2" xmlns="http://www.w3.org/2000/svg" viewBox="0 0 374.01 285.4">
  <defs>
    <style>
      .cls-1 {
        fill: #f2f2f2;
        stroke-width: 0px;
      }

      .cls-2 {
        stroke: #b3b3b3;
        stroke-linejoin: round;
        stroke-width: 16px;
      }

      .cls-2, .cls-3 {
        fill: none;
        stroke-linecap: round;
      }

      .cls-3 {
        stroke: #f02828;
        stroke-miterlimit: 10;
        stroke-width: 33px;
      }
    </style>
  </defs>
  <g id="Basket">
    <g id="Option_2" data-name="Option 2">
      <g id="Basket-2" data-name="Basket">
        <g>
          <path class="cls-1" d="m289.48,285.4c-4.96,0-9.86-1.93-13.53-5.65l-49.6-50.23-25.49,25.46c-7.39,7.39-19.37,7.42-26.79.06l-26.1-25.83-49.9,50.53c-6.1,6.18-15.61,7.44-23.1,3.06-7.5-4.38-11.07-13.28-8.69-21.62,10.47-36.65,14.58-72.03,12.33-105.73-.17-1.06-.26-2.15-.25-3.24,0-.03,0-.07,0-.1-1.43-17.99-4.69-35.5-9.77-52.47-.87-2.91-1.77-5.71-2.69-8.41l-26.74-52.36c-.76-1.41-1.33-2.9-1.71-4.42-.58-2.31-.71-4.67-.42-6.96.38-3.04,1.49-6.01,3.34-8.62.96-1.36,2.12-2.61,3.45-3.71,2.12-1.74,4.52-2.96,7.04-3.65,2.12-.58,4.3-.78,6.45-.62,3.32.25,6.59,1.37,9.43,3.35.99.69,1.93,1.48,2.79,2.37l29.25,29.62,33.83-32.15c7.34-6.97,18.85-6.97,26.18,0l28.22,26.83,26.94-25.61c7.34-6.97,18.85-6.97,26.19,0l33.86,32.19,30.63-31.02c7.12-7.22,18.66-7.56,26.21-.79,7.55,6.78,8.44,18.28,2.03,26.15-.11.14-16.32,20.67-27.44,57.79-5.08,16.97-8.34,34.48-9.77,52.47v.06c.01,1.11-.07,2.21-.25,3.29-2.25,33.7,1.86,69.08,12.33,105.73,2.38,8.35-1.19,17.25-8.69,21.62-2.99,1.74-6.29,2.59-9.58,2.59Zm-114.8-83.22l12.7,12.57,12.28-12.27-12.64-12.8-12.34,12.5Zm-58.51-4.45c-.25,3.47-.57,7-.94,10.57l5.74-5.82-4.8-4.76Zm137.07,4.93l5.57,5.64c-.36-3.48-.67-6.91-.92-10.29l-4.65,4.65Zm-39.52-40.02l12.82,12.98,22.91-22.89-13.38-12.72-22.34,22.63Zm-89.06-9.97l23.01,22.77,12.65-12.81-22.34-22.63-13.31,12.66Zm40.86-38.85l21.5,21.78,21.5-21.78-21.5-20.45-21.5,20.45Zm-54.5-1.11c.03.14.06.28.09.42l.17-.16-.26-.26Zm151.76.26l.17.16c.03-.14.06-.28.08-.42l-.26.26Zm-137.28-39.68l13.32,13.49,20.64-19.62-13.75-13.07-20.21,19.21Zm89.1-6.14l20.64,19.62,12.07-12.22-20.24-19.25-12.46,11.85Z"/>
          <path class="cls-2" d="m288.67,87.69l-61.62-58.6-129.68,123.31,90.07,89.14,89.22-89.14L145.71,27.87l-61.14,58.11-28.67-56.13s71.26,87.4,28.67,236.55L318.15,29.85s-71.26,87.4-28.67,236.55L55.89,29.85"/>
        </g>
        <g>
          <path class="cls-1" d="m348.51,51H25.5C11.42,51,0,39.58,0,25.5S11.42,0,25.5,0h323.01c14.08,0,25.5,11.42,25.5,25.5s-11.42,25.5-25.5,25.5Z"/>
          <polyline class="cls-3" points="348.51 25.5 187.02 25.5 25.5 25.5"/>
        </g>
      </g>
    </g>
  </g>
</svg>