<?xml version="1.0" encoding="UTF-8"?>
<svg id="Layer_2" data-name="Layer 2" xmlns="http://www.w3.org/2000/svg" viewBox="0 0 355.67 325.27">
  <defs>
    <style>
      .cls-1, .cls-2, .cls-3 {
        stroke-width: 0px;
      }

      .cls-2 {
        fill: #ccc;
      }

      .cls-3 {
        fill: #f2f2f2;
      }
    </style>
  </defs>
  <g id="Alien">
    <g id="bob">
      <g>
        <ellipse class="cls-3" cx="177.83" cy="162.63" rx="143.51" ry="128.31"/>
        <path class="cls-3" d="m177.83,34.32c79.26,0,143.51,57.45,143.51,128.31s-64.25,128.31-143.51,128.31S34.32,233.5,34.32,162.63,98.57,34.32,177.83,34.32m0-34.32c-46.78,0-90.95,16.45-124.35,46.32-16.62,14.86-29.71,32.25-38.9,51.69C4.9,118.46,0,140.2,0,162.63s4.9,44.18,14.57,64.62c9.2,19.45,22.29,36.84,38.9,51.69,33.41,29.87,77.57,46.32,124.35,46.32s90.95-16.45,124.35-46.32c16.62-14.86,29.71-32.25,38.9-51.69,9.67-20.44,14.57-42.18,14.57-64.62s-4.9-44.18-14.57-64.62c-9.2-19.45-22.29-36.84-38.9-51.69C268.78,16.45,224.62,0,177.83,0h0Z"/>
      </g>
      <g>
        <ellipse class="cls-3" cx="177.83" cy="162.63" rx="143.43" ry="128.24"/>
        <path class="cls-1" d="m177.83,34.4c79.21,0,143.43,57.41,143.43,128.24s-64.21,128.24-143.43,128.24S34.41,233.46,34.41,162.63,98.62,34.4,177.83,34.4m0-18.47c-42.86,0-83.25,15.01-113.73,42.26-15.02,13.43-26.84,29.12-35.12,46.63-8.66,18.3-13.04,37.75-13.04,57.81s4.39,39.52,13.04,57.81c8.28,17.51,20.1,33.2,35.12,46.63,30.48,27.25,70.87,42.26,113.73,42.26s83.25-15.01,113.73-42.26c15.02-13.43,26.84-29.12,35.12-46.63,8.66-18.3,13.04-37.75,13.04-57.81s-4.39-39.52-13.04-57.81c-8.28-17.51-20.1-33.2-35.12-46.63-30.48-27.25-70.87-42.26-113.73-42.26h0Z"/>
      </g>
      <g>
        <ellipse class="cls-3" cx="177.83" cy="162.63" rx="143.43" ry="128.24"/>
        <path class="cls-1" d="m177.83,34.4c79.21,0,143.43,57.41,143.43,128.24s-64.21,128.24-143.43,128.24S34.41,233.46,34.41,162.63,98.62,34.4,177.83,34.4m0-16.8c-42.45,0-82.44,14.86-112.62,41.84-14.85,13.28-26.54,28.79-34.73,46.1-8.55,18.07-12.88,37.28-12.88,57.1s4.34,39.03,12.88,57.1c8.19,17.31,19.87,32.82,34.73,46.1,30.17,26.98,70.17,41.84,112.62,41.84s82.44-14.86,112.62-41.84c14.85-13.28,26.54-28.79,34.73-46.1,8.55-18.07,12.88-37.28,12.88-57.1s-4.34-39.03-12.88-57.1c-8.19-17.31-19.87-32.82-34.73-46.1-30.17-26.98-70.17-41.84-112.62-41.84h0Z"/>
      </g>
      <path class="cls-1" d="m227.01,88.26c0,5.94,6.27,10.55,13.19,10.55,6.92,0,11.87-3.3,11.87-9.23,0-8.97-6.27-14.51-13.19-14.51-6.92,0-11.87,6.27-11.87,13.19Z"/>
      <path class="cls-1" d="m97.54,94.85c1.01,5.85,7.98,9.33,14.8,8.15,6.82-1.18,11.14-5.27,10.13-11.12-1.53-8.84-8.65-13.23-15.47-12.05-6.82,1.18-10.63,8.2-9.45,15.02Z"/>
      <path class="cls-1" d="m166.7,107.5c-16.15,0-25.86-7.21-26.52-7.72-1.73-1.33-2.06-3.81-.73-5.55,1.33-1.73,3.8-2.06,5.54-.74.99.74,23.63,17.1,58.67-7.16,1.8-1.24,4.26-.79,5.51,1,1.24,1.8.8,4.26-1,5.51-16.28,11.27-30.38,14.66-41.46,14.66Z"/>
      <path class="cls-2" d="m288.74,81.33c9.05,16.8,14.11,35.64,14.11,55.54,0,70.82-64.21,128.24-143.43,128.24-44.69,0-84.6-18.28-110.91-46.93,23.15,43.01,72.35,72.7,129.31,72.7,79.21,0,143.43-57.41,143.43-128.24,0-30.86-12.2-59.18-32.52-81.31Z"/>
    </g>
  </g>
</svg>