<?xml version="1.0" encoding="UTF-8"?>
<svg id="Layer_2" data-name="Layer 2" xmlns="http://www.w3.org/2000/svg" viewBox="0 0 402.04 211.3">
  <defs>
    <style>
      .cls-1, .cls-2 {
        stroke-width: 0px;
      }

      .cls-3 {
        fill: #d9ffaa;
        stroke-width: 12.87px;
      }

      .cls-3, .cls-4 {
        stroke: #000;
        stroke-linecap: round;
        stroke-linejoin: round;
      }

      .cls-2 {
        fill: #fcc751;
      }

      .cls-4 {
        fill: none;
        stroke-width: 10px;
      }
    </style>
  </defs>
  <g id="Menu_Template">
    <g id="Button">
      <g>
        <rect class="cls-2" x="8" y="8" width="386.04" height="195.3" rx="34.84" ry="34.84"/>
        <path class="cls-1" d="m359.21,16c14.8,0,26.84,12.04,26.84,26.84v125.63c0,7.17-2.79,13.91-7.86,18.98-5.07,5.07-11.81,7.86-18.98,7.86H42.84c-14.8,0-26.84-12.04-26.84-26.84V42.84c0-14.8,12.04-26.84,26.84-26.84h316.37m0-16H42.84C19.18,0,0,19.18,0,42.84v125.63c0,23.66,19.18,42.84,42.84,42.84h316.37c23.66,0,42.84-19.18,42.84-42.84V42.84c0-23.66-19.18-42.84-42.84-42.84h0Z"/>
      </g>
    </g>
    <g id="Layer_141" data-name="Layer 141">
      <rect class="cls-3" x="158.83" y="53.46" width="104.39" height="104.39" rx="17.04" ry="17.04"/>
      <line class="cls-4" x1="183.28" y1="105.65" x2="238.77" y2="105.65"/>
    </g>
  </g>
</svg>