<?xml version="1.0" encoding="UTF-8"?>
<svg id="Layer_2" data-name="Layer 2" xmlns="http://www.w3.org/2000/svg" viewBox="0 0 402.04 211.3">
  <defs>
    <style>
      .cls-1, .cls-2 {
        stroke-width: 0px;
      }

      .cls-3 {
        fill: #d9ffaa;
        stroke-width: 12.87px;
      }

      .cls-3, .cls-4 {
        stroke: #000;
        stroke-linecap: round;
        stroke-linejoin: round;
      }

      .cls-2 {
        fill: #fcc751;
      }

      .cls-4 {
        fill: none;
        stroke-width: 10px;
      }
    </style>
  </defs>
  <g id="Menu_Template">
    <g id="Button">
      <g>
        <path class="cls-2" d="m42.84,203.3c-19.21,0-34.84-15.63-34.84-34.84V42.84c0-19.21,15.63-34.84,34.84-34.84h316.37c19.21,0,34.84,15.63,34.84,34.84v125.63c0,19.21-15.63,34.84-34.84,34.84H42.84Z"/>
        <path class="cls-1" d="m359.21,0v16c14.8,0,26.84,12.04,26.84,26.84v125.63c0,14.8-12.04,26.84-26.84,26.84H42.84c-14.8,0-26.84-12.04-26.84-26.84V42.84c0-14.8,12.04-26.84,26.84-26.84h316.37V0m0,0H42.84C19.18,0,0,19.18,0,42.84v125.63c0,23.66,19.18,42.84,42.84,42.84h316.37c23.66,0,42.84-19.18,42.84-42.84V42.84c0-23.66-19.18-42.84-42.84-42.84h0Z"/>
      </g>
    </g>
    <g id="Layer_141" data-name="Layer 141">
      <rect class="cls-3" x="145.28" y="52.43" width="104.39" height="104.39" rx="17.04" ry="17.04"/>
      <line class="cls-4" x1="169.73" y1="104.63" x2="225.22" y2="104.63"/>
      <line class="cls-4" x1="169.73" y1="87.71" x2="225.22" y2="87.71"/>
      <line class="cls-4" x1="169.73" y1="121.55" x2="225.22" y2="121.55"/>
    </g>
  </g>
</svg>