<?xml version="1.0" encoding="UTF-8"?>
<svg id="Layer_2" data-name="Layer 2" xmlns="http://www.w3.org/2000/svg" viewBox="0 0 331.2 344.37">
  <defs>
    <style>
      .cls-1 {
        fill: #6a7bff;
      }

      .cls-1, .cls-2, .cls-3, .cls-4, .cls-5 {
        stroke-width: 0px;
      }

      .cls-2 {
        fill: #4a58c7;
      }

      .cls-4 {
        fill: #ccc;
      }

      .cls-5 {
        fill: #f2f2f2;
      }
    </style>
  </defs>
  <g id="Element_Bob">
    <g id="Bob_Skin_02">
      <g id="Layer_47" data-name="Layer 47">
        <ellipse class="cls-5" cx="161.89" cy="146.7" rx="143.43" ry="128.24"/>
        <path class="cls-3" d="m161.89,18.47c79.21,0,143.43,57.41,143.43,128.24s-64.21,128.24-143.43,128.24S18.47,217.53,18.47,146.7,82.68,18.47,161.89,18.47m0-18.47c-42.86,0-83.25,15.01-113.73,42.26-15.02,13.43-26.84,29.12-35.12,46.63C4.39,107.19,0,126.64,0,146.7s4.39,39.52,13.04,57.81c8.28,17.51,20.1,33.2,35.12,46.63,30.48,27.25,70.87,42.26,113.73,42.26s83.25-15.01,113.73-42.26c15.02-13.43,26.84-29.12,35.12-46.63,8.66-18.3,13.04-37.75,13.04-57.81s-4.39-39.52-13.04-57.81c-8.28-17.51-20.1-33.2-35.12-46.63C245.14,15.01,204.75,0,161.89,0h0Z"/>
        <path class="cls-3" d="m211.07,72.33c0,5.94,6.27,10.55,13.19,10.55,6.92,0,11.87-3.3,11.87-9.23,0-8.97-6.27-14.51-13.19-14.51-6.92,0-11.87,6.27-11.87,13.19Z"/>
        <path class="cls-3" d="m81.6,78.92c1.01,5.85,7.98,9.33,14.8,8.15,6.82-1.18,11.14-5.27,10.13-11.12-1.53-8.84-8.65-13.23-15.47-12.05-6.82,1.18-10.63,8.2-9.45,15.02Z"/>
        <path class="cls-3" d="m150.76,91.57c-16.15,0-25.86-7.21-26.52-7.72-1.73-1.33-2.06-3.81-.73-5.55,1.33-1.73,3.8-2.06,5.54-.74.99.74,23.63,17.1,58.67-7.16,1.8-1.24,4.26-.79,5.51,1,1.24,1.8.8,4.26-1,5.51-16.28,11.27-30.38,14.66-41.46,14.66Z"/>
        <path class="cls-4" d="m272.8,65.4c9.05,16.8,14.11,35.64,14.11,55.54,0,70.82-64.21,128.24-143.43,128.24-44.69,0-84.6-18.28-110.91-46.93,23.15,43.01,72.35,72.7,129.31,72.7,79.21,0,143.43-57.41,143.43-128.24,0-30.86-12.2-59.18-32.52-81.31Z"/>
      </g>
      <g id="Bow_Tie">
        <path class="cls-1" d="m32.58,197.83s-19.38,5.87-9.2,68.48,27,70.04,29.35,73.57,36.39-12.13,46.96-21.91,50.09-39.52,50.09-39.52c0,0-5.87-14.09-8.22-27.39s1.96-21.13,1.96-21.13c0,0-64.16-34.04-110.93-32.09Z"/>
        <path class="cls-2" d="m141.56,251.04c-2.35-13.3,1.96-21.13,1.96-21.13,0,0-4.34-2.3-11.56-5.67-.93,3.6-1.71,9.34-.39,16.8,2.35,13.3,8.22,27.39,8.22,27.39,0,0-39.52,29.74-50.09,39.52-9.55,8.84-38.29,22.48-45.45,22.42,4.26,6.03,7.55,8.08,8.49,9.5,2.35,3.52,36.39-12.13,46.96-21.91,10.57-9.78,50.09-39.52,50.09-39.52,0,0-5.87-14.09-8.22-27.39Z"/>
        <path class="cls-2" d="m137.82,250.87c-7.98-2.14-16.3-3.89-24.51-5.09-7.26-1.01-15.68-2.09-24.92-.8-1.12.19-1.53-1.48-.4-1.8,12.6-3.21,25.78-2.54,38.62-1.59,4.3.37,8.53.82,12.9,1.46,2.19.32,3.7,2.36,3.38,4.55-.33,2.38-2.76,3.94-5.06,3.27h0Z"/>
        <path class="cls-2" d="m145.64,267.45c-9.1,7.64-18.4,14.86-28.65,20.88-3.44,1.96-6.98,3.85-10.98,4.97-.75.21-1.53-.23-1.74-.98-.2-.72.19-1.46.87-1.71,3.37-1.36,6.55-3.51,9.6-5.74,9.15-6.84,17.5-14.96,25.37-23.21,3.96-3.92,9.64,1.99,5.53,5.79h0Z"/>
        <path class="cls-3" d="m54.15,344.37c-.31,0-.59-.02-.86-.05-2.15-.26-3.3-1.35-3.89-2.23-.12-.15-.67-.67-1.12-1.09-5.43-5.09-19.84-18.63-28.85-74.05-10.43-64.21,9.66-72.24,11.99-72.95l.49-.15.51-.02c47.28-1.97,110.31,31.14,112.97,32.55l3.59,1.9-1.96,3.56s-3.56,6.94-1.52,18.51c2.24,12.69,7.91,26.41,7.97,26.55l1.19,2.87-2.48,1.87c-.39.3-39.48,29.73-49.77,39.26-9.34,8.65-38.71,23.48-48.26,23.48Zm-20.59-142.57c-2.29,1.44-14.69,11.81-6.23,63.87,8.57,52.74,21.54,64.92,26.43,69.51.45.42.86.81,1.22,1.18,6.55-.71,33.03-13.04,41.99-21.33,9.19-8.5,39.12-31.25,47.97-37.95-1.87-4.9-5.54-15.25-7.32-25.34-1.6-9.07-.35-15.93.87-19.9-13.27-6.61-65.68-31.31-104.92-30.05Z"/>
        <path class="cls-1" d="m201.43,221.31s6.53,19.18,7.04,32.87,0,17.22,0,17.22c0,0,88.83,37.96,104.48,33.26s16.99-64.96,10.84-87.26-10.38-50.55-26.1-56.74-90,49.7-96.26,60.65Z"/>
        <path class="cls-2" d="m218.47,271.39s.51-3.53,0-17.22c-.51-13.69-7.04-32.87-7.04-32.87,5.45-9.53,62.33-53.04,87.41-60.14-.38-.18-.75-.36-1.14-.51-15.72-6.19-90,49.7-96.26,60.65,0,0,6.53,19.18,7.04,32.87.51,13.69,0,17.22,0,17.22,0,0,88.83,37.96,104.48,33.26.16-.05.31-.11.47-.17-27.83-4.41-94.95-33.09-94.95-33.09Z"/>
        <path class="cls-3" d="m309.82,308.99c-22.34,0-88.93-27.94-102.92-33.92l-2.83-1.21.44-3.04c.01-.11.44-3.68-.04-16.49-.48-12.93-6.77-31.54-6.83-31.73l-.58-1.71.89-1.57c3.98-6.96,26.41-24.83,45.8-38.08,28.42-19.42,47.06-27.6,55.4-24.31,15.02,5.92,20.37,27.3,25.54,47.98,1,3.99,1.94,7.75,2.95,11.42,3.24,11.75,4.42,32.98,2.88,51.63-1.38,16.65-5.34,37.2-16.43,40.53-1.14.34-2.58.5-4.28.5Zm-97.18-40.17c34.1,14.43,89.04,35.04,99.16,32,4.08-1.22,8.99-12.06,10.76-33.52,1.45-17.53.34-38.07-2.62-48.84-1.04-3.76-2.03-7.75-3-11.6-4.68-18.72-9.53-38.07-20.71-42.48-3.21-1.26-16.91,2.26-47.96,23.48-21.42,14.64-37.94,28.74-42.41,34.13,1.7,5.34,6.18,20.39,6.61,32.05.28,7.59.26,12.16.17,14.79Z"/>
        <path class="cls-1" d="m142.6,230.96s-2.22,15.52,1.04,27.65,5.09,19.57,6.13,20.61,17.22,3,30.91.78,25.04-6.65,26.48-8.35,2.48-21.39,1.3-26.61-2.35-20.61-7.57-22.7-19.3-4.04-27.65-2.87-23.48,4.83-30.65,11.48Z"/>
        <path class="cls-2" d="m211.98,252.92c18.07,6.2,36.64,12.35,55.76,14.09,1.33.08,1.35,2.09-.02,2.15-4.94.17-9.85-.16-14.74-.64-14.67-1.54-29.04-4.47-43.37-7.97-5.34-1.56-2.95-9.38,2.37-7.64h0Z"/>
        <path class="cls-2" d="m207.68,234.53c10.77-8.99,28.97-22.76,42.9-24.72,1.19-.11,1.48,1.63.3,1.9,0,0-2.83.83-2.83.83l-2.76,1.12c-9.17,4.25-17.41,10.29-25.47,16.36-3.23,2.47-6.45,5.02-9.57,7.58-2.02,1.61-4.52-1.33-2.57-3.06h0Z"/>
        <path class="cls-2" d="m208.47,245.04c-1.17-5.22-2.35-20.61-7.57-22.7-1.25-.5-3.02-.99-5.1-1.44,1.35,5.16,2.01,11.23,2.66,14.13,1.17,5.22.13,24.91-1.3,26.61-1.43,1.7-12.78,6.13-26.48,8.35-8.36,1.35-17.64,1.15-23.85.55,1.37,5.01,2.3,8.03,2.93,8.67,1.04,1.04,17.22,3,30.91.78,13.7-2.22,25.04-6.65,26.48-8.35,1.43-1.7,2.48-21.39,1.3-26.61Z"/>
        <path class="cls-3" d="m166.81,285.01c-2.64,0-4.9-.09-6.56-.19-11.18-.65-12.62-2.09-13.31-2.78-1.57-1.57-2.4-4.51-5.65-16.74-.47-1.75-.97-3.64-1.51-5.66-3.43-12.78-1.23-28.59-1.14-29.26l.2-1.4,1.04-.96c9.75-9.04,30.48-12.18,32.81-12.51,8.73-1.23,23.62.69,29.69,3.12,5.77,2.31,7.6,11.05,9.26,21.4.27,1.7.51,3.17.72,4.13,1.02,4.52.86,26.51-2.15,30.07-2.95,3.49-17.32,7.84-28.89,9.71-5.12.83-10.29,1.06-14.52,1.06Zm-14.2-9.05c4.03.83,16.56,1.85,27.44.09,12.09-1.96,21.24-5.45,23.79-6.9.86-3.91,1.68-19.01.73-23.23-.27-1.21-.53-2.79-.82-4.63-.55-3.44-2.22-13.91-4.38-15.26-4.49-1.79-17.77-3.69-25.56-2.6-7.15,1.01-20.54,4.11-27.42,9.54-.43,4.01-1.33,15.48,1.12,24.59.54,2.03,1.05,3.92,1.52,5.68,1.43,5.38,2.8,10.52,3.58,12.71Zm51.75-7.14h0s0,0,0,0Z"/>
        <path class="cls-3" d="m136.82,249.87c-7.98-2.14-16.3-3.89-24.51-5.09-8.24-1.15-16.66-1.96-24.92-.8-1.12.19-1.53-1.48-.4-1.8,12.6-3.21,25.78-2.54,38.62-1.59,4.3.37,8.53.82,12.9,1.46,2.19.32,3.7,2.36,3.38,4.55-.33,2.38-2.76,3.94-5.06,3.27h0Z"/>
        <path class="cls-3" d="m144.64,266.45c-9.1,7.64-18.4,14.86-28.65,20.88-3.44,1.96-6.98,3.85-10.98,4.97-.75.21-1.53-.23-1.74-.98-.2-.72.19-1.46.87-1.71,3.37-1.36,6.55-3.51,9.6-5.74,9.15-6.84,17.5-14.96,25.37-23.21,3.96-3.92,9.64,1.99,5.53,5.79h0Z"/>
        <path class="cls-3" d="m212.98,251.92c18.07,6.2,36.64,12.35,55.76,14.09,1.33.08,1.35,2.09-.02,2.15-4.94.17-9.85-.16-14.74-.64-14.67-1.54-29.04-4.47-43.37-7.97-5.34-1.56-2.95-9.38,2.37-7.64h0Z"/>
        <path class="cls-3" d="m207.68,233.53c10.77-8.99,28.97-22.76,42.9-24.72,1.19-.11,1.48,1.63.3,1.9,0,0-2.83.83-2.83.83l-2.76,1.12c-9.17,4.25-17.41,10.29-25.47,16.36-3.23,2.47-6.45,5.02-9.57,7.58-2.02,1.61-4.52-1.33-2.57-3.06h0Z"/>
      </g>
    </g>
  </g>
</svg>