<?xml version="1.0" encoding="UTF-8"?>
<svg id="Layer_2" data-name="Layer 2" xmlns="http://www.w3.org/2000/svg" viewBox="0 0 323.79 293.41">
  <defs>
    <style>
      .cls-1, .cls-2 {
        stroke-width: 0px;
      }

      .cls-2 {
        fill: #fff;
      }
    </style>
  </defs>
  <g id="Element_Bob">
    <g id="Bob_Skin_03">
      <g>
        <ellipse class="cls-1" cx="161.89" cy="146.7" rx="143.43" ry="128.24"/>
        <path class="cls-1" d="m161.89,275.44c-79.36,0-143.93-57.75-143.93-128.74S82.53,17.97,161.89,17.97s143.93,57.75,143.93,128.74-64.56,128.74-143.93,128.74Zm0-256.47c-78.81,0-142.93,57.3-142.93,127.74s64.12,127.74,142.93,127.74,142.93-57.3,142.93-127.74S240.7,18.97,161.89,18.97Z"/>
      </g>
      <path class="cls-1" d="m161.89,18.47c79.21,0,143.43,57.41,143.43,128.24s-64.21,128.24-143.43,128.24S18.47,217.53,18.47,146.7,82.68,18.47,161.89,18.47m0-18.47c-42.86,0-83.25,15.01-113.73,42.26-15.02,13.43-26.84,29.12-35.12,46.63C4.39,107.19,0,126.64,0,146.7s4.39,39.52,13.04,57.81c8.28,17.51,20.1,33.2,35.12,46.63,30.48,27.25,70.87,42.26,113.73,42.26s83.25-15.01,113.73-42.26c15.02-13.43,26.84-29.12,35.12-46.63,8.66-18.3,13.04-37.75,13.04-57.81s-4.39-39.52-13.04-57.81c-8.28-17.51-20.1-33.2-35.12-46.63C245.14,15.01,204.75,0,161.89,0h0Z"/>
      <path class="cls-2" d="m211.07,72.33c0,5.94,6.27,10.55,13.19,10.55,6.92,0,11.87-3.3,11.87-9.23,0-8.97-6.27-14.51-13.19-14.51-6.92,0-11.87,6.27-11.87,13.19Z"/>
      <path class="cls-2" d="m81.6,78.92c1.01,5.85,7.98,9.33,14.8,8.15,6.82-1.18,11.14-5.27,10.13-11.12-1.53-8.84-8.65-13.23-15.47-12.05-6.82,1.18-10.63,8.2-9.45,15.02Z"/>
      <path class="cls-2" d="m150.76,91.57c-16.15,0-25.86-7.21-26.52-7.72-1.73-1.33-2.06-3.81-.73-5.55,1.33-1.73,3.8-2.06,5.54-.74.99.74,23.63,17.1,58.67-7.16,1.8-1.24,4.26-.79,5.51,1,1.24,1.8.8,4.26-1,5.51-16.28,11.27-30.38,14.66-41.46,14.66Z"/>
      <path class="cls-1" d="m272.8,65.4c9.05,16.8,14.11,35.64,14.11,55.54,0,70.82-64.21,128.24-143.43,128.24-44.69,0-84.6-18.28-110.91-46.93,23.15,43.01,72.35,72.7,129.31,72.7,79.21,0,143.43-57.41,143.43-128.24,0-30.86-12.2-59.18-32.52-81.31Z"/>
    </g>
  </g>
</svg>