<?xml version="1.0" encoding="UTF-8"?>
<svg id="Layer_2" data-name="Layer 2" xmlns="http://www.w3.org/2000/svg" viewBox="0 0 323.79 384.03">
  <defs>
    <style>
      .cls-1 {
        fill: #ff4c50;
      }

      .cls-1, .cls-2, .cls-3, .cls-4, .cls-5, .cls-6, .cls-7, .cls-8 {
        stroke-width: 0px;
      }

      .cls-3 {
        fill: #36eb4b;
      }

      .cls-4 {
        fill: #d94144;
      }

      .cls-5 {
        fill: #ccc;
      }

      .cls-6 {
        fill: #6862e3;
      }

      .cls-7 {
        fill: #27a836;
      }

      .cls-8 {
        fill: #f2f2f2;
      }
    </style>
  </defs>
  <g id="Element_Bob">
    <g id="Bob_Skin_01">
      <g id="Bob">
        <ellipse class="cls-8" cx="161.89" cy="237.32" rx="143.43" ry="128.24"/>
        <path class="cls-2" d="m161.89,109.09c79.21,0,143.43,57.41,143.43,128.24s-64.21,128.24-143.43,128.24S18.47,308.14,18.47,237.32,82.68,109.09,161.89,109.09m0-18.47c-42.86,0-83.25,15.01-113.73,42.26-15.02,13.43-26.84,29.12-35.12,46.63C4.39,197.81,0,217.26,0,237.32s4.39,39.52,13.04,57.81c8.28,17.51,20.1,33.2,35.12,46.63,30.48,27.25,70.87,42.26,113.73,42.26s83.25-15.01,113.73-42.26c15.02-13.43,26.84-29.12,35.12-46.63,8.66-18.3,13.04-37.75,13.04-57.81s-4.39-39.52-13.04-57.81c-8.28-17.51-20.1-33.2-35.12-46.63-30.48-27.25-70.87-42.26-113.73-42.26h0Z"/>
        <path class="cls-2" d="m211.07,162.95c0,5.94,6.27,10.55,13.19,10.55,6.92,0,11.87-3.3,11.87-9.23,0-8.97-6.27-14.51-13.19-14.51-6.92,0-11.87,6.27-11.87,13.19Z"/>
        <path class="cls-2" d="m81.6,169.54c1.01,5.85,7.98,9.33,14.8,8.15,6.82-1.18,11.14-5.27,10.13-11.12-1.53-8.84-8.65-13.23-15.47-12.05-6.82,1.18-10.63,8.2-9.45,15.02Z"/>
        <path class="cls-2" d="m150.76,182.18c-16.15,0-25.86-7.21-26.52-7.72-1.73-1.33-2.06-3.81-.73-5.55,1.33-1.73,3.8-2.06,5.54-.74.99.74,23.63,17.1,58.67-7.16,1.8-1.24,4.26-.79,5.51,1,1.24,1.8.8,4.26-1,5.51-16.28,11.27-30.38,14.66-41.46,14.66Z"/>
        <path class="cls-5" d="m272.8,156.02c9.05,16.8,14.11,35.64,14.11,55.54,0,70.82-64.21,128.24-143.43,128.24-44.69,0-84.6-18.28-110.91-46.93,23.15,43.01,72.35,72.7,129.31,72.7,79.21,0,143.43-57.41,143.43-128.24,0-30.86-12.2-59.18-32.52-81.31Z"/>
      </g>
      <g id="Hat">
        <path class="cls-1" d="m42.98,138.72c.68,1.26,1.9,2.14,3.31,2.37,9.94,1.62,51.52,7.41,99.74-.39,55.37-8.96,86.51-25.28,88.5-29.07,4.64-8.84-2.84-39.04-34.07-61.76-31.24-22.72-59.16-22.72-73.12-20.59-13.96,2.13-43.54,8.76-67.44,39.52s-19.18,65.69-17.52,68.79l.61,1.13Z"/>
        <path class="cls-6" d="m193.4,130.04s4.59-33.64-67.25-99.77c-50.95,83.29-34.93,114.12-34.93,114.12l53.44-3.43,48.74-10.92Z"/>
        <path class="cls-4" d="m234.52,111.62c4.64-8.84-2.84-39.04-34.07-61.76-29.74-21.63-56.46-22.66-71-20.87,14.17,1.63,31.97,7.03,51,20.87,31.24,22.72,41.93,56.77,43.67,66.6"/>
        <path class="cls-2" d="m94.89,148.32c-24.04,0-42.16-2.51-49.19-3.66-2.54-.42-4.7-1.96-5.92-4.23h0s-.61-1.13-.61-1.13c-2.68-5-6.62-41.24,17.85-72.73,17.68-22.76,41.15-36.52,69.76-40.88,14.38-2.2,43.36-2.35,75.8,21.24,33.26,24.19,40.57,56.07,35.15,66.38-3.25,6.19-37.41,22.28-91.13,30.97-18.73,3.03-36.42,4.05-51.72,4.05Zm-48.71-11.32c.14.27.4.45.7.5,11.22,1.83,51.48,7.23,98.57-.39,53.45-8.65,82.86-23.98,85.95-27.34,3.46-7.23-3.69-35.6-33.08-56.98-30.34-22.07-57.15-21.96-70.44-19.93-26.71,4.07-48.62,16.91-65.12,38.16-22.4,28.83-18.51,61.35-17.14,64.93l.56,1.05Zm-.61-1.13v.02s0-.01,0-.02Zm185.9-26.19h0s0,0,0,0Z"/>
        <path class="cls-2" d="m90.15,146.28l-.55-1.05c-.67-1.3-15.91-32.7,34.99-115.91l1.15-1.88,1.62,1.49c71.72,66.01,68.01,99.94,67.82,101.35l-.17,1.25-50.25,11.24-54.62,3.51Zm36.39-113.17c-43.25,71.47-36.15,103.38-34.12,109.39l51.98-3.34,47.23-10.58c-.13-6.52-4.12-38.85-65.08-95.47Z"/>
        <ellipse class="cls-3" cx="76.22" cy="30.27" rx="47.7" ry="7.26" transform="translate(-3.51 11.08) rotate(-8.13)"/>
        <path class="cls-7" d="m122.25,20.94c-4.69,3.86-22.92,8.82-45.03,11.98-20.43,2.92-38.11,3.43-45.09,1.6-.84.69-1.25,1.35-1.17,1.95.57,3.97,22.17,4.17,48.25.45s46.76-9.96,46.2-13.94c-.12-.86-1.24-1.54-3.17-2.05Z"/>
        <path class="cls-2" d="m44.68,41.94c-.39,0-.77,0-1.15,0-13.83-.13-16.02-2.43-16.34-4.67-.32-2.24,1.14-5.06,14.38-9.05,8.81-2.66,20.66-5.12,33.36-6.94s24.77-2.77,33.97-2.68c13.83.13,16.02,2.43,16.34,4.67h0c.32,2.24-1.14,5.06-14.38,9.05-8.81,2.66-20.66,5.12-33.36,6.93-12.18,1.74-23.77,2.69-32.82,2.69Zm-13.73-5.21c2.84,1.94,20.05,2.64,46.03-1.07,25.98-3.71,42.3-9.21,44.49-11.86-2.84-1.94-20.05-2.64-46.03,1.07-25.98,3.71-42.3,9.21-44.49,11.86Z"/>
        <ellipse class="cls-3" cx="171.21" cy="16.7" rx="47.7" ry="7.26" transform="translate(-.64 24.38) rotate(-8.13)"/>
        <path class="cls-7" d="m215.27,7.91c-4.69,3.86-22.92,8.82-45.03,11.98-20.43,2.92-38.11,3.43-45.09,1.6-.84.69-1.25,1.35-1.17,1.95.57,3.97,22.17,4.17,48.25.45s46.76-9.96,46.2-13.94c-.12-.86-1.24-1.54-3.17-2.05Z"/>
        <path class="cls-2" d="m139.68,28.38c-.39,0-.77,0-1.15,0-13.83-.13-16.02-2.43-16.34-4.67-.32-2.24,1.14-5.06,14.38-9.05,8.81-2.66,20.66-5.12,33.36-6.93,12.7-1.81,24.78-2.76,33.97-2.68,13.83.13,16.02,2.43,16.34,4.67h0c.32,2.24-1.14,5.06-14.38,9.05-8.81,2.66-20.66,5.12-33.36,6.93-12.18,1.74-23.77,2.69-32.82,2.69Zm-13.73-5.21c2.84,1.93,20.05,2.64,46.03-1.07,25.98-3.71,42.3-9.21,44.49-11.86-2.84-1.94-20.05-2.64-46.03,1.07-25.98,3.71-42.3,9.21-44.49,11.86Z"/>
        <circle class="cls-1" cx="122.31" cy="11.08" r="9.27"/>
        <path class="cls-4" d="m122.31,1.81c-1.05,0-2.06.18-3,.51,3.65,1.25,6.27,4.7,6.27,8.76s-2.62,7.52-6.27,8.76c.94.32,1.95.51,3,.51,5.12,0,9.27-4.15,9.27-9.27s-4.15-9.27-9.27-9.27Z"/>
        <path class="cls-2" d="m122.31,22.17c-6.11,0-11.08-4.97-11.08-11.08S116.2,0,122.31,0s11.08,4.97,11.08,11.08-4.97,11.08-11.08,11.08Zm0-18.54c-4.11,0-7.46,3.35-7.46,7.46s3.35,7.46,7.46,7.46,7.46-3.34,7.46-7.46-3.34-7.46-7.46-7.46Z"/>
      </g>
    </g>
  </g>
</svg>